{
.appVersion = "895";
copyright = "Copyright 2016 Google Inc. All Rights Reserved.";
customParameters = (
{
name = description;
value = "Data unhinted. Designed by Monotype design team.";
},
{
name = license;
value = "This Font Software is licensed under the SIL Open Font License, Version 1.1. This Font Software is distributed on an \"AS IS\" BASIS, WITHOUT WARRANTIES OR CONDITIONS OF ANY KIND, either express or implied. See the SIL Open Font License for the specific language, permissions and limitations governing your use of this Font Software.";
},
{
name = licenseURL;
value = "http://scripts.sil.org/OFL";
},
{
name = vendorID;
value = GOOG;
},
{
name = panose;
value = (
2,
11,
5,
2,
4,
5,
4,
2,
2,
4
);
},
{
name = unicodeRanges;
value = (
81
);
},
{
name = codePageRanges;
value = (
1252
);
},
{
name = glyphOrder;
value = (
.notdef,
null,
uni000D,
space,
u1820.fin,
u1823.med,
u1823.fin,
u1820.iniV1,
u1823.finV1,
u1822.med,
u1822.medV1,
u182E,
u1829.med,
u182F.fin,
MongolianDot,
u1828,
u1828.ini,
u1828.iniV1,
u1826.iniV1,
u180A,
u182C.med,
u182A_1822.ini,
u182C_1822.ini,
u182C_1822.med,
u1830.fin,
u1834.med,
u1834.ini,
tail,
u182A_1822.med,
u1837,
u1837.ini,
u1837.med,
u1837.fin,
u1832.med,
u1832,
u1832.ini,
u1833,
u1833.iniV1,
u1833.ini,
u1834,
u1830.med,
u182C.fin,
u182C.finV1,
u1830.ini,
u182A_1823,
u182A_1823.fin,
u182A_1823.ini,
u182A_1823.med,
u182A_1824.ini,
u182A_1824.med,
u182A_1824.fin,
u182A_1824,
u1829,
u1829.ini,
u1829.fin,
u1828.medV2,
u1828.fin,
u1828.finV1,
u1822.fin,
u1822.ini,
u1820.medV1,
u1820.medV2,
u1821.ini,
u1821.iniV1,
u1821.med,
u1824.fin,
u1825.fin,
u182A,
u182A_1825,
u182A_1825.fin,
u182A_1825.ini,
u182A_1825.med,
u182A_1825.finV1,
u182A_1826,
u182F.ini,
u182F.med,
u182F,
u1829_182F.med,
u182E.fin,
u182C.ini,
u1831.ini,
u1831.med,
u1831,
u1830,
u1831.fin,
u1830.finV1,
u183E.med,
u183F.ini,
u183F.med,
u1820,
u1820.V1,
u1820.ini,
u182A_1820.ini,
u1827.med,
u182C_1825.V1,
u182C_1825.iniV1,
u182C_1821.ini,
u182B_1820.ini,
u1839_1823,

glyphs = (
{
glyphname = .notdef;
lastChange = "2016-11-10 17:40:46 +0000";
layers = (
{
layerId = "ECD52525-6592-4E14-BB2F-A163A2F4C2CC";
paths = (
{
closed = 1;
nodes = (
"1034 0 LINE",
"1034 1462 LINE",
"193 1462 LINE",
"193 0 LINE"
);
},
{
closed = 1;
nodes = (
"297 1358 LINE",
"930 1358 LINE",
"930 104 LINE",
"297 104 LINE"
);
}
);
width = 1229;
}
);
note = .notdef;
},
{
glyphname = u1820.fin;
lastChange = "2016-11-10 17:40:46 +0000";
layers = (
{
layerId = "ECD52525-6592-4E14-BB2F-A163A2F4C2CC";
paths = (
{
closed = 1;
nodes = (
"467 319 LINE SMOOTH",
"467 904 OFFCURVE",
"609 1408 OFFCURVE",
"854 1712 CURVE",
"666 1712 LINE",
"454 1435 OFFCURVE",
"309 919 OFFCURVE",
"309 319 CURVE",
"148 415 OFFCURVE",
"84 576 OFFCURVE",
"84 909 CURVE",
"-68 909 LINE",
"-68 745 LINE SMOOTH",
"-68 635 OFFCURVE",
"-44 531 OFFCURVE",
"3 433 CURVE SMOOTH",
"97 237 OFFCURVE",
"264 120 OFFCURVE",
"467 109 CURVE"
);
}
);
width = 874;
}
);
note = u1820.fin;
},
{
glyphname = u1823.med;
lastChange = "2016-11-10 17:40:46 +0000";
layers = (
{
layerId = "ECD52525-6592-4E14-BB2F-A163A2F4C2CC";
paths = (
{
closed = 1;
nodes = (
"662 82 OFFCURVE",
"809 249 OFFCURVE",
"809 510 CURVE SMOOTH",
"809 600 OFFCURVE",
"794 678 OFFCURVE",
"764 745 CURVE",
"1235 745 LINE",
"1235 909 LINE",
"0 909 LINE",
"0 745 LINE",
"41 745 LINE",
"14 681 OFFCURVE",
"0 603 OFFCURVE",
"0 510 CURVE SMOOTH",
"0 226 OFFCURVE",
"155 82 OFFCURVE",
"403 82 CURVE SMOOTH"
);
},
{
closed = 1;
nodes = (
"242 252 OFFCURVE",
"162 339 OFFCURVE",
"162 514 CURVE SMOOTH",
"162 605 OFFCURVE",
"176 682 OFFCURVE",
"203 745 CURVE",
"606 745 LINE",
"633 682 OFFCURVE",
"647 605 OFFCURVE",
"647 514 CURVE SMOOTH",
"647 339 OFFCURVE",
"554 252 OFFCURVE",
"403 252 CURVE SMOOTH"
);
}
);
width = 1174;
}
);
note = u1823.med;
},
{
glyphname = u1823.fin;
lastChange = "2016-11-10 17:40:46 +0000";
layers = (
{
layerId = "ECD52525-6592-4E14-BB2F-A163A2F4C2CC";
paths = (
{
closed = 1;
nodes = (
"532 82 OFFCURVE",
"595 102 OFFCURVE",
"651 142 CURVE SMOOTH",
"763 222 OFFCURVE",
"829 375 OFFCURVE",
"829 563 CURVE SMOOTH",
"829 660 OFFCURVE",
"807 833 OFFCURVE",
"782 909 CURVE",
"160 909 LINE",
"165 1230 OFFCURVE",
"328 1432 OFFCURVE",
"592 1432 CURVE SMOOTH",
"848 1432 OFFCURVE",
"1015 1207 OFFCURVE",
"1042 838 CURVE",
"1206 858 LINE",
"1197 1002 OFFCURVE",
"1166 1131 OFFCURVE",
"1112 1245 CURVE SMOOTH",
"1003 1472 OFFCURVE",
"816 1602 OFFCURVE",
"592 1602 CURVE SMOOTH",
"223 1602 OFFCURVE",
"-2 1312 OFFCURVE",
"-2 836 CURVE SMOOTH",
"-2 335 OFFCURVE",
"145 82 OFFCURVE",
"461 82 CURVE SMOOTH"
);
},
{
closed = 1;
nodes = (
"261 252 OFFCURVE",
"165 416 OFFCURVE",
"160 745 CURVE",
"647 745 LINE",
"661 703 OFFCURVE",
"668 642 OFFCURVE",
"668 563 CURVE SMOOTH",
"668 356 OFFCURVE",
"575 252 OFFCURVE",
"446 252 CURVE SMOOTH"
);
}
);
width = 1298;
}
);
note = u1823.fin;
},
{
glyphname = u1820.iniV1;
lastChange = "2016-11-10 17:40:46 +0000";
layers = (
{
layerId = "ECD52525-6592-4E14-BB2F-A163A2F4C2CC";
paths = (
{
closed = 1;
nodes = (
"598 152 LINE",
"618 449 LINE SMOOTH",
"624 532 OFFCURVE",
"636 593 OFFCURVE",
"655 634 CURVE SMOOTH",
"692 714 OFFCURVE",
"756 745 OFFCURVE",
"911 745 CURVE SMOOTH",
"1069 745 LINE",
"1069 909 LINE",
"909 909 LINE SMOOTH",
"738 909 OFFCURVE",
"629 852 OFFCURVE",
"584 739 CURVE",
"575 739 LINE",
"569 911 LINE SMOOTH",
"560 1215 OFFCURVE",
"486 1337 OFFCURVE",
"285 1337 CURVE SMOOTH",
"204 1337 OFFCURVE",
"116 1317 OFFCURVE",
"20 1276 CURVE",
"20 1126 LINE",
"106 1161 OFFCURVE",
"180 1178 OFFCURVE",
"242 1178 CURVE SMOOTH",
"354 1178 OFFCURVE",
"395 1100 OFFCURVE",
"410 895 CURVE SMOOTH",
"463 152 LINE"
);
}
);
width = 1008;
}
);
note = u1820.iniV1;
},
{
glyphname = u1823.finV1;
lastChange = "2016-11-10 17:40:46 +0000";
layers = (
{
layerId = "ECD52525-6592-4E14-BB2F-A163A2F4C2CC";
paths = (
{
closed = 1;
nodes = (
"662 82 OFFCURVE",
"809 249 OFFCURVE",
"809 510 CURVE SMOOTH",
"809 657 OFFCURVE",
"769 805 OFFCURVE",
"713 909 CURVE",
"0 909 LINE",
"0 745 LINE",
"41 745 LINE",
"14 681 OFFCURVE",
"0 603 OFFCURVE",
"0 510 CURVE SMOOTH",
"0 226 OFFCURVE",
"155 82 OFFCURVE",
"403 82 CURVE SMOOTH"
);
},
{
closed = 1;
nodes = (
"242 252 OFFCURVE",
"162 339 OFFCURVE",
"162 514 CURVE SMOOTH",
"162 605 OFFCURVE",
"176 682 OFFCURVE",
"203 745 CURVE",
"602 745 LINE",
"632 676 OFFCURVE",
"647 599 OFFCURVE",
"647 514 CURVE SMOOTH",
"647 339 OFFCURVE",
"554 252 OFFCURVE",
"403 252 CURVE SMOOTH"
);
}
);
width = 901;
}
);
note = u1823.finV1;
},
{
glyphname = u1822.med;
lastChange = "2016-11-10 17:40:46 +0000";
layers = (
{
layerId = "ECD52525-6592-4E14-BB2F-A163A2F4C2CC";
paths = (
{
closed = 1;
nodes = (
"504 -63 LINE",
"354 204 OFFCURVE",
"240 473 OFFCURVE",
"162 745 CURVE",
"801 745 LINE",
"801 909 LINE",
"0 909 LINE",
"0 745 LINE",
"75 458 OFFCURVE",
"193 164 OFFCURVE",
"354 -137 CURVE"
);
}
);
width = 739;
}
);
note = u1822.med;
},
{
glyphname = u1822.medV1;
lastChange = "2016-11-10 17:40:46 +0000";
layers = (
{
layerId = "ECD52525-6592-4E14-BB2F-A163A2F4C2CC";
paths = (
{
closed = 1;
nodes = (
"950 -63 LINE",
"801 204 OFFCURVE",
"687 473 OFFCURVE",
"608 745 CURVE",
"1247 745 LINE",
"1247 909 LINE",
"0 909 LINE",
"0 745 LINE",
"39 197 LINE",
"174 197 LINE",
"213 745 LINE",
"446 745 LINE",
"524 451 OFFCURVE",
"642 157 OFFCURVE",
"801 -137 CURVE"
);
}
);
width = 1186;
}
);
note = u1822.medV1;
},
{
glyphname = u182E;
lastChange = "2016-11-10 17:40:46 +0000";
layers = (
{
layerId = "ECD52525-6592-4E14-BB2F-A163A2F4C2CC";
paths = (
{
closed = 1;
nodes = (
"598 152 LINE",
"618 449 LINE SMOOTH",
"624 532 OFFCURVE",
"636 593 OFFCURVE",
"655 634 CURVE SMOOTH",
"692 714 OFFCURVE",
"756 745 OFFCURVE",
"911 745 CURVE SMOOTH",
"1069 745 LINE",
"1069 909 LINE",
"909 909 LINE SMOOTH",
"738 909 OFFCURVE",
"629 852 OFFCURVE",
"584 739 CURVE",
"575 739 LINE",
"570 1090 OFFCURVE",
"534 1278 OFFCURVE",
"469 1419 CURVE",
"543 1419 LINE SMOOTH",
"655 1419 OFFCURVE",
"736 1425 OFFCURVE",
"785 1437 CURVE SMOOTH",
"834 1448 OFFCURVE",
"876 1468 OFFCURVE",
"909 1497 CURVE",
"909 1655 LINE",
"838 1607 OFFCURVE",
"756 1583 OFFCURVE",
"543 1583 CURVE SMOOTH",
"295 1583 LINE",
"295 1466 LINE",
"334 1429 OFFCURVE",
"364 1381 OFFCURVE",
"387 1323 CURVE",
"360 1332 OFFCURVE",
"326 1337 OFFCURVE",
"285 1337 CURVE SMOOTH",
"204 1337 OFFCURVE",
"116 1317 OFFCURVE",
"20 1276 CURVE",
"20 1126 LINE",
"106 1161 OFFCURVE",
"180 1178 OFFCURVE",
"242 1178 CURVE SMOOTH",
"354 1178 OFFCURVE",
"395 1100 OFFCURVE",
"410 895 CURVE SMOOTH",
"463 152 LINE"
);
}
);
width = 1161;
}
);
note = u182E;
unicode = 182E;
},
{
glyphname = u1829.med;
lastChange = "2016-11-10 17:40:46 +0000";
layers = (
{
layerId = "ECD52525-6592-4E14-BB2F-A163A2F4C2CC";
paths = (
{
closed = 1;
nodes = (
"844 229 LINE",
"711 453 OFFCURVE",
"657 619 OFFCURVE",
"657 811 CURVE SMOOTH",
"657 1024 OFFCURVE",
"745 1153 OFFCURVE",
"909 1153 CURVE SMOOTH",
"1057 1153 OFFCURVE",
"1159 1021 OFFCURVE",
"1176 745 CURVE",
"1327 745 LINE",
"1311 1112 OFFCURVE",
"1164 1323 OFFCURVE",
"909 1323 CURVE SMOOTH",
"680 1323 OFFCURVE",
"531 1164 OFFCURVE",
"502 909 CURVE",
"0 909 LINE",
"0 745 LINE",
"39 197 LINE",
"174 197 LINE",
"213 745 LINE",
"498 745 LINE",
"509 554 OFFCURVE",
"573 354 OFFCURVE",
"692 143 CURVE"
);
}
);
width = 1176;
}
);
note = u1829.med;
},
{
glyphname = u182F.fin;
lastChange = "2016-11-10 17:40:46 +0000";
layers = (
{
layerId = "ECD52525-6592-4E14-BB2F-A163A2F4C2CC";
paths = (
{
closed = 1;
nodes = (
"500 322 LINE SMOOTH",
"500 742 OFFCURVE",
"567 1053 OFFCURVE",
"692 1337 CURVE",
"692 1462 LINE",
"332 1462 LINE SMOOTH",
"141 1462 OFFCURVE",
"63 1475 OFFCURVE",
"-37 1536 CURVE",
"-37 1376 LINE",
"36 1316 OFFCURVE",
"119 1298 OFFCURVE",
"332 1298 CURVE SMOOTH",
"492 1298 LINE",
"389 1031 OFFCURVE",
"338 707 OFFCURVE",
"338 326 CURVE",
"170 421 OFFCURVE",
"98 577 OFFCURVE",
"98 909 CURVE",
"-68 909 LINE",
"-68 745 LINE SMOOTH",
"-68 636 OFFCURVE",
"-44 532 OFFCURVE",
"5 433 CURVE SMOOTH",
"102 235 OFFCURVE",
"289 101 OFFCURVE",
"500 92 CURVE"
);
}
);
width = 784;
}
);
note = u182F.fin;
},
{
glyphname = MongolianDot;
lastChange = "2016-11-10 17:40:46 +0000";
layers = (
{
layerId = "ECD52525-6592-4E14-BB2F-A163A2F4C2CC";
paths = (
{
closed = 1;
nodes = (
"208 -263 OFFCURVE",
"303 -184 OFFCURVE",
"426 -96 CURVE",
"301 45 LINE",
"222 -34 OFFCURVE",
"140 -133 OFFCURVE",
"53 -254 CURVE",
"141 -334 LINE"
);
}
);
width = 426;
}
);
note = MongolianDot;
},
{
glyphname = u1826.iniV1;
lastChange = "2016-11-10 17:40:46 +0000";
layers = (
{
layerId = "ECD52525-6592-4E14-BB2F-A163A2F4C2CC";
paths = (
{
closed = 1;
nodes = (
"753 82 OFFCURVE",
"901 249 OFFCURVE",
"901 510 CURVE SMOOTH",
"901 603 OFFCURVE",
"887 681 OFFCURVE",
"860 745 CURVE",
"1327 745 LINE",
"1327 909 LINE",
"184 909 LINE",
"121 802 OFFCURVE",
"92 688 OFFCURVE",
"92 532 CURVE SMOOTH",
"92 232 OFFCURVE",
"247 82 OFFCURVE",
"496 82 CURVE SMOOTH"
);
},
{
closed = 1;
nodes = (
"335 252 OFFCURVE",
"254 347 OFFCURVE",
"254 537 CURVE SMOOTH",
"254 620 OFFCURVE",
"268 689 OFFCURVE",
"295 745 CURVE",
"698 745 LINE",
"725 682 OFFCURVE",
"739 605 OFFCURVE",
"739 514 CURVE SMOOTH",
"739 339 OFFCURVE",
"645 252 OFFCURVE",
"496 252 CURVE SMOOTH"
);
}
);
width = 1266;
}
);
note = u1826.iniV1;
},
{
glyphname = u180A;
lastChange = "2016-11-10 17:37:31 +0000";
layers = (
{
layerId = "ECD52525-6592-4E14-BB2F-A163A2F4C2CC";
paths = (
{
closed = 1;
nodes = (
"385 745 LINE",
"385 909 LINE",
"0 909 LINE",
"0 745 LINE"
);
}
);
width = 344;
}
);
note = u180A;
unicode = 180A;
},
{
glyphname = u182A_1822.ini;
lastChange = "2016-11-10 17:40:46 +0000";
layers = (
{
layerId = "ECD52525-6592-4E14-BB2F-A163A2F4C2CC";
paths = (
{
closed = 1;
nodes = (
"1642 -63 LINE",
"1479 232 OFFCURVE",
"1368 488 OFFCURVE",
"1315 745 CURVE",
"1939 745 LINE",
"1939 909 LINE",
"1284 909 LINE",
"1195 1401 OFFCURVE",
"1008 1602 OFFCURVE",
"676 1602 CURVE SMOOTH",
"313 1602 OFFCURVE",
"92 1315 OFFCURVE",
"92 836 CURVE SMOOTH",
"92 329 OFFCURVE",
"244 82 OFFCURVE",
"553 82 CURVE SMOOTH",
"624 82 OFFCURVE",
"688 102 OFFCURVE",
"745 142 CURVE SMOOTH",
"857 221 OFFCURVE",
"924 376 OFFCURVE",
"924 563 CURVE SMOOTH",
"924 647 OFFCURVE",
"902 826 OFFCURVE",
"877 909 CURVE",
"254 909 LINE",
"259 1233 OFFCURVE",
"419 1432 OFFCURVE",
"676 1432 CURVE SMOOTH",
"929 1432 OFFCURVE",
"1061 1264 OFFCURVE",
"1130 856 CURVE SMOOTH",
"1189 513 OFFCURVE",
"1266 295 OFFCURVE",
"1493 -137 CURVE"
);
},
{
closed = 1;
nodes = (
"355 252 OFFCURVE",
"259 416 OFFCURVE",
"254 745 CURVE",
"741 745 LINE",
"755 707 OFFCURVE",
"762 646 OFFCURVE",
"762 563 CURVE SMOOTH",
"762 356 OFFCURVE",
"669 252 OFFCURVE",
"541 252 CURVE SMOOTH"
);
}
);
width = 1878;
}
);
note = u182A_1822.ini;
},
{
glyphname = u182C_1822.ini;
lastChange = "2016-11-10 17:40:46 +0000";
layers = (
{
layerId = "ECD52525-6592-4E14-BB2F-A163A2F4C2CC";
paths = (
{
closed = 1;
nodes = (
"1423 -63 LINE",
"1252 206 OFFCURVE",
"1142 476 OFFCURVE",
"1092 745 CURVE",
"1720 745 LINE",
"1720 909 LINE",
"1071 909 LINE",
"1016 1354 OFFCURVE",
"875 1556 OFFCURVE",
"588 1556 CURVE SMOOTH",
"288 1556 OFFCURVE",
"92 1286 OFFCURVE",
"92 854 CURVE SMOOTH",
"92 613 OFFCURVE",
"180 357 OFFCURVE",
"356 86 CURVE",
"502 174 LINE",
"329 427 OFFCURVE",
"254 615 OFFCURVE",
"254 854 CURVE SMOOTH",
"254 1211 OFFCURVE",
"388 1386 OFFCURVE",
"588 1386 CURVE SMOOTH",
"656 1386 OFFCURVE",
"710 1369 OFFCURVE",
"751 1335 CURVE SMOOTH",
"832 1266 OFFCURVE",
"882 1129 OFFCURVE",
"915 856 CURVE SMOOTH",
"954 536 OFFCURVE",
"1077 184 OFFCURVE",
"1274 -137 CURVE"
);
}
);
width = 1659;
}
);
note = u182C_1822.ini;
},
{
glyphname = u1830.fin;
lastChange = "2016-11-10 17:40:46 +0000";
layers = (
{
layerId = "ECD52525-6592-4E14-BB2F-A163A2F4C2CC";
paths = (
{
closed = 1;
nodes = (
"215 150 LINE",
"189 253 OFFCURVE",
"176 392 OFFCURVE",
"176 565 CURVE SMOOTH",
"176 828 OFFCURVE",
"236 1035 OFFCURVE",
"340 1255 CURVE",
"348 1255 LINE",
"387 871 OFFCURVE",
"485 548 OFFCURVE",
"672 217 CURVE",
"836 217 LINE",
"923 640 OFFCURVE",
"1067 982 OFFCURVE",
"1311 1315 CURVE",
"1112 1315 LINE",
"948 1082 OFFCURVE",
"808 785 OFFCURVE",
"733 457 CURVE",
"725 457 LINE",
"556 804 OFFCURVE",
"487 1135 OFFCURVE",
"487 1503 CURVE",
"322 1503 LINE",
"193 1310 OFFCURVE",
"108 1112 OFFCURVE",
"66 909 CURVE",
"0 909 LINE",
"0 745 LINE SMOOTH",
"0 560 OFFCURVE",
"24 323 OFFCURVE",
"55 150 CURVE"
);
}
);
width = 1403;
}
);
note = u1830.fin;
},
{
glyphname = u1834.med;
lastChange = "2016-11-10 17:40:46 +0000";
layers = (
{
layerId = "ECD52525-6592-4E14-BB2F-A163A2F4C2CC";
paths = (
{
closed = 1;
nodes = (
"127 110 OFFCURVE",
"253 129 OFFCURVE",
"481 129 CURVE SMOOTH",
"729 129 LINE",
"729 264 LINE",
"674 428 OFFCURVE",
"645 573 OFFCURVE",
"645 745 CURVE",
"1147 745 LINE",
"1147 909 LINE",
"0 909 LINE",
"0 745 LINE",
"494 745 LINE",
"494 572 OFFCURVE",
"514 421 OFFCURVE",
"555 293 CURVE",
"481 293 LINE SMOOTH",
"200 293 OFFCURVE",
"97 270 OFFCURVE",
"0 207 CURVE",
"0 33 LINE"
);
}
);
width = 1085;
}
);
note = u1834.med;
},
{
glyphname = tail;
lastChange = "2016-11-10 17:40:46 +0000";
layers = (
{
layerId = "ECD52525-6592-4E14-BB2F-A163A2F4C2CC";
paths = (
{
closed = 1;
nodes = (
"369 332 LINE",
"403 407 OFFCURVE",
"420 487 OFFCURVE",
"420 571 CURVE SMOOTH",
"420 796 OFFCURVE",
"300 909 OFFCURVE",
"61 909 CURVE SMOOTH",
"0 909 LINE",
"0 745 LINE",
"61 745 LINE SMOOTH",
"206 745 OFFCURVE",
"262 683 OFFCURVE",
"262 571 CURVE SMOOTH",
"262 481 OFFCURVE",
"247 401 OFFCURVE",
"217 332 CURVE"
);
}
);
width = 512;
}
);
note = tail;
},
{
glyphname = u1837;
lastChange = "2016-11-10 17:40:46 +0000";
layers = (
{
layerId = "ECD52525-6592-4E14-BB2F-A163A2F4C2CC";
paths = (
{
closed = 1;
nodes = (
"641 -197 LINE",
"554 -34 OFFCURVE",
"480 129 OFFCURVE",
"420 293 CURVE",
"592 293 LINE SMOOTH",
"777 293 OFFCURVE",
"852 199 OFFCURVE",
"852 27 CURVE SMOOTH",
"852 -38 OFFCURVE",
"842 -91 OFFCURVE",
"821 -133 CURVE",
"983 -133 LINE",
"1005 -78 OFFCURVE",
"1016 -18 OFFCURVE",
"1016 49 CURVE SMOOTH",
"1016 294 OFFCURVE",
"861 457 OFFCURVE",
"598 457 CURVE SMOOTH",
"360 457 LINE",
"330 548 OFFCURVE",
"304 644 OFFCURVE",
"281 745 CURVE",
"1327 745 LINE",
"1327 909 LINE",
"92 909 LINE",
"147 547 OFFCURVE",
"281 155 OFFCURVE",
"492 -268 CURVE"
);
}
);
width = 1419;
}
);
note = u1837;
unicode = 1837;
},
{
glyphname = u1837.med;
lastChange = "2016-11-10 17:40:46 +0000";
layers = (
{
layerId = "ECD52525-6592-4E14-BB2F-A163A2F4C2CC";
paths = (
{
closed = 1;
nodes = (
"520 -197 LINE",
"429 -26 OFFCURVE",
"356 138 OFFCURVE",
"299 293 CURVE",
"471 293 LINE SMOOTH",
"656 293 OFFCURVE",
"731 199 OFFCURVE",
"731 27 CURVE SMOOTH",
"731 -38 OFFCURVE",
"721 -91 OFFCURVE",
"700 -133 CURVE",
"862 -133 LINE",
"884 -78 OFFCURVE",
"895 -18 OFFCURVE",
"895 49 CURVE SMOOTH",
"895 294 OFFCURVE",
"740 457 OFFCURVE",
"477 457 CURVE SMOOTH",
"240 457 LINE",
"211 543 OFFCURVE",
"184 639 OFFCURVE",
"160 745 CURVE",
"1206 745 LINE",
"1206 909 LINE",
"0 909 LINE",
"0 745 LINE",
"79 405 OFFCURVE",
"202 67 OFFCURVE",
"371 -268 CURVE"
);
}
);
width = 1145;
}
);
note = u1837.med;
},
{
glyphname = u1837.fin;
lastChange = "2016-11-10 17:40:46 +0000";
layers = (
{
layerId = "ECD52525-6592-4E14-BB2F-A163A2F4C2CC";
paths = (
{
closed = 1;
nodes = (
"426 113 LINE",
"331 243 OFFCURVE",
"262 366 OFFCURVE",
"219 483 CURVE",
"395 483 LINE SMOOTH",
"564 483 OFFCURVE",
"633 393 OFFCURVE",
"633 236 CURVE SMOOTH",
"633 180 OFFCURVE",
"623 133 OFFCURVE",
"602 96 CURVE",
"766 96 LINE",
"788 140 OFFCURVE",
"799 194 OFFCURVE",
"799 258 CURVE SMOOTH",
"799 493 OFFCURVE",
"653 645 OFFCURVE",
"401 645 CURVE SMOOTH",
"174 645 LINE",
"163 695 OFFCURVE",
"158 758 OFFCURVE",
"158 834 CURVE SMOOTH",
"158 1158 OFFCURVE",
"281 1315 OFFCURVE",
"469 1315 CURVE SMOOTH",
"649 1315 OFFCURVE",
"755 1143 OFFCURVE",
"776 838 CURVE",
"940 858 LINE",
"915 1261 OFFCURVE",
"744 1485 OFFCURVE",
"469 1485 CURVE SMOOTH",
"182 1485 OFFCURVE",
"-4 1243 OFFCURVE",
"-4 834 CURVE SMOOTH",
"-4 581 OFFCURVE",
"91 311 OFFCURVE",
"281 25 CURVE"
);
}
);
width = 1032;
}
);
note = u1837.fin;
},
{
glyphname = u1832.med;
lastChange = "2016-11-10 17:40:46 +0000";
layers = (
{
layerId = "ECD52525-6592-4E14-BB2F-A163A2F4C2CC";
paths = (
{
closed = 1;
nodes = (
"856 -322 OFFCURVE",
"1006 -172 OFFCURVE",
"1006 55 CURVE SMOOTH",
"1006 310 OFFCURVE",
"847 475 OFFCURVE",
"594 475 CURVE SMOOTH",
"466 475 OFFCURVE",
"356 411 OFFCURVE",
"291 315 CURVE",
"240 461 OFFCURVE",
"197 604 OFFCURVE",
"162 745 CURVE",
"1317 745 LINE",
"1317 909 LINE",
"0 909 LINE",
"0 745 LINE",
"47 545 OFFCURVE",
"105 357 OFFCURVE",
"174 181 CURVE SMOOTH",
"310 -172 OFFCURVE",
"445 -322 OFFCURVE",
"653 -322 CURVE SMOOTH"
);
},
{
closed = 1;
nodes = (
"538 -158 OFFCURVE",
"445 -68 OFFCURVE",
"352 156 CURVE",
"399 251 OFFCURVE",
"490 313 OFFCURVE",
"594 313 CURVE SMOOTH",
"763 313 OFFCURVE",
"846 211 OFFCURVE",
"846 55 CURVE SMOOTH",
"846 -78 OFFCURVE",
"768 -158 OFFCURVE",
"653 -158 CURVE SMOOTH"
);
}
);
width = 1255;
}
);
note = u1832.med;
},
{
glyphname = u1832;
lastChange = "2016-11-10 17:37:31 +0000";
layers = (
{
layerId = "ECD52525-6592-4E14-BB2F-A163A2F4C2CC";
paths = (
{
closed = 1;
nodes = (
"965 197 LINE",
"1004 745 LINE",
"1434 745 LINE",
"1434 909 LINE",
"942 909 LINE",
"935 1070 OFFCURVE",
"915 1200 OFFCURVE",
"882 1301 CURVE SMOOTH",
"814 1501 OFFCURVE",
"697 1591 OFFCURVE",
"498 1591 CURVE SMOOTH",
"419 1591 OFFCURVE",
"349 1573 OFFCURVE",
"288 1537 CURVE SMOOTH",
"164 1465 OFFCURVE",
"92 1322 OFFCURVE",
"92 1153 CURVE SMOOTH",
"92 1005 OFFCURVE",
"131 849 OFFCURVE",
"186 745 CURVE",
"791 745 LINE",
"829 197 LINE"
);
},
{
closed = 1;
nodes = (
"270 968 OFFCURVE",
"254 1049 OFFCURVE",
"254 1153 CURVE SMOOTH",
"254 1322 OFFCURVE",
"350 1421 OFFCURVE",
"498 1421 CURVE SMOOTH",
"683 1421 OFFCURVE",
"765 1261 OFFCURVE",
"778 909 CURVE",
"301 909 LINE"
);
}
);
width = 1526;
}
);
note = u1832;
unicode = 1832;
},
{
glyphname = u1833;
lastChange = "2016-11-10 17:40:46 +0000";
layers = (
{
layerId = "ECD52525-6592-4E14-BB2F-A163A2F4C2CC";
paths = (
{
closed = 1;
nodes = (
"979 -322 OFFCURVE",
"1128 -174 OFFCURVE",
"1128 55 CURVE SMOOTH",
"1128 314 OFFCURVE",
"969 475 OFFCURVE",
"717 475 CURVE SMOOTH",
"589 475 OFFCURVE",
"479 411 OFFCURVE",
"414 315 CURVE",
"363 461 OFFCURVE",
"320 604 OFFCURVE",
"285 745 CURVE",
"1440 745 LINE",
"1440 909 LINE",
"92 909 LINE",
"126 700 OFFCURVE",
"183 487 OFFCURVE",
"262 270 CURVE SMOOTH",
"421 -166 OFFCURVE",
"557 -322 OFFCURVE",
"776 -322 CURVE SMOOTH"
);
},
{
closed = 1;
nodes = (
"661 -158 OFFCURVE",
"568 -68 OFFCURVE",
"475 156 CURVE",
"522 251 OFFCURVE",
"613 313 OFFCURVE",
"717 313 CURVE SMOOTH",
"886 313 OFFCURVE",
"969 211 OFFCURVE",
"969 55 CURVE SMOOTH",
"969 -78 OFFCURVE",
"891 -158 OFFCURVE",
"776 -158 CURVE SMOOTH"
);
}
);
width = 1532;
}
);
note = u1833;
unicode = 1833;
},
{
glyphname = u1834;
lastChange = "2016-11-10 17:37:31 +0000";
layers = (
{
layerId = "ECD52525-6592-4E14-BB2F-A163A2F4C2CC";
paths = (
{
closed = 1;
nodes = (
"459 110 OFFCURVE",
"585 129 OFFCURVE",
"813 129 CURVE SMOOTH",
"1061 129 LINE",
"1061 264 LINE",
"1006 428 OFFCURVE",
"977 573 OFFCURVE",
"977 745 CURVE",
"1479 745 LINE",
"1479 909 LINE",
"129 909 LINE",
"92 745 LINE",
"825 745 LINE",
"825 574 OFFCURVE",
"846 423 OFFCURVE",
"887 293 CURVE",
"813 293 LINE SMOOTH",
"532 293 OFFCURVE",
"429 270 OFFCURVE",
"332 207 CURVE",
"332 33 LINE"
);
}
);
width = 1571;
}
);
note = u1834;
unicode = 1834;
},
{
glyphname = u1830.med;
lastChange = "2016-11-10 17:40:46 +0000";
layers = (
{
layerId = "ECD52525-6592-4E14-BB2F-A163A2F4C2CC";
paths = (
{
closed = 1;
nodes = (
"215 150 LINE",
"198 218 OFFCURVE",
"190 304 OFFCURVE",
"190 408 CURVE SMOOTH",
"190 725 OFFCURVE",
"250 976 OFFCURVE",
"403 1264 CURVE",
"412 1264 LINE",
"449 808 OFFCURVE",
"533 490 OFFCURVE",
"684 150 CURVE",
"858 150 LINE",
"763 344 OFFCURVE",
"691 542 OFFCURVE",
"641 745 CURVE",
"1251 745 LINE",
"1251 909 LINE",
"606 909 LINE",
"572 1104 OFFCURVE",
"555 1302 OFFCURVE",
"555 1503 CURVE",
"389 1503 LINE",
"256 1321 OFFCURVE",
"161 1123 OFFCURVE",
"102 909 CURVE",
"0 909 LINE",
"0 745 LINE SMOOTH",
"0 556 OFFCURVE",
"26 295 OFFCURVE",
"57 150 CURVE"
);
}
);
width = 1190;
}
);
note = u1830.med;
},
{
glyphname = u182C.fin;
lastChange = "2016-11-10 17:40:46 +0000";
layers = (
{
layerId = "ECD52525-6592-4E14-BB2F-A163A2F4C2CC";
paths = (
{
closed = 1;
nodes = (
"1036 381 LINE SMOOTH",
"1036 788 OFFCURVE",
"1113 1088 OFFCURVE",
"1266 1364 CURVE",
"1075 1364 LINE",
"941 1097 OFFCURVE",
"874 771 OFFCURVE",
"874 385 CURVE",
"714 477 OFFCURVE",
"657 618 OFFCURVE",
"657 909 CURVE",
"0 909 LINE",
"0 745 LINE",
"39 197 LINE",
"174 197 LINE",
"213 745 LINE",
"514 745 LINE",
"514 643 OFFCURVE",
"537 546 OFFCURVE",
"583 454 CURVE SMOOTH",
"675 270 OFFCURVE",
"848 152 OFFCURVE",
"1036 152 CURVE"
);
}
);
width = 1358;
}
);
note = u182C.fin;
},
{
glyphname = u182A_1823;
lastChange = "2016-11-10 17:40:46 +0000";
layers = (
{
layerId = "ECD52525-6592-4E14-BB2F-A163A2F4C2CC";
paths = (
{
closed = 1;
nodes = (
"633 82 OFFCURVE",
"756 145 OFFCURVE",
"811 276 CURVE",
"868 145 OFFCURVE",
"971 82 OFFCURVE",
"1102 82 CURVE SMOOTH",
"1399 82 OFFCURVE",
"1540 300 OFFCURVE",
"1540 768 CURVE SMOOTH",
"1540 931 OFFCURVE",
"1512 1076 OFFCURVE",
"1456 1203 CURVE SMOOTH",
"1344 1456 OFFCURVE",
"1124 1602 OFFCURVE",
"829 1602 CURVE SMOOTH",
"678 1602 OFFCURVE",
"547 1567 OFFCURVE",
"436 1498 CURVE SMOOTH",
"213 1359 OFFCURVE",
"92 1097 OFFCURVE",
"92 768 CURVE SMOOTH",
"92 317 OFFCURVE",
"219 82 OFFCURVE",
"510 82 CURVE SMOOTH"
);
},
{
closed = 1;
nodes = (
"447 252 OFFCURVE",
"398 268 OFFCURVE",
"362 300 CURVE SMOOTH",
"290 364 OFFCURVE",
"254 513 OFFCURVE",
"254 745 CURVE",
"735 745 LINE",
"735 586 LINE SMOOTH",
"735 362 OFFCURVE",
"641 252 OFFCURVE",
"510 252 CURVE SMOOTH"
);
},
{
closed = 1;
nodes = (
"965 252 OFFCURVE",
"897 363 OFFCURVE",
"897 586 CURVE SMOOTH",
"897 745 LINE",
"1378 745 LINE",
"1377 626 OFFCURVE",
"1367 531 OFFCURVE",
"1348 458 CURVE SMOOTH",
"1310 312 OFFCURVE",
"1239 252 OFFCURVE",
"1102 252 CURVE SMOOTH"
);
},
{
closed = 1;
nodes = (
"299 1234 OFFCURVE",
"477 1432 OFFCURVE",
"829 1432 CURVE SMOOTH",
"1126 1432 OFFCURVE",
"1321 1237 OFFCURVE",
"1368 909 CURVE",
"260 909 LINE"
);
}
);
width = 1632;
}
);
note = u182A_1823;
},
{
glyphname = u182A_1823.ini;
lastChange = "2016-11-10 17:40:46 +0000";
layers = (
{
layerId = "ECD52525-6592-4E14-BB2F-A163A2F4C2CC";
paths = (
{
closed = 1;
nodes = (
"633 82 OFFCURVE",
"756 145 OFFCURVE",
"811 276 CURVE",
"868 145 OFFCURVE",
"971 82 OFFCURVE",
"1102 82 CURVE SMOOTH",
"1394 82 OFFCURVE",
"1535 298 OFFCURVE",
"1540 745 CURVE",
"1972 745 LINE",
"1972 909 LINE",
"1532 909 LINE",
"1516 1051 OFFCURVE",
"1478 1174 OFFCURVE",
"1417 1279 CURVE SMOOTH",
"1296 1488 OFFCURVE",
"1092 1602 OFFCURVE",
"829 1602 CURVE SMOOTH",
"678 1602 OFFCURVE",
"547 1567 OFFCURVE",
"436 1498 CURVE SMOOTH",
"213 1359 OFFCURVE",
"92 1097 OFFCURVE",
"92 768 CURVE SMOOTH",
"92 317 OFFCURVE",
"219 82 OFFCURVE",
"510 82 CURVE SMOOTH"
);
},
{
closed = 1;
nodes = (
"447 252 OFFCURVE",
"398 268 OFFCURVE",
"362 300 CURVE SMOOTH",
"290 364 OFFCURVE",
"254 513 OFFCURVE",
"254 745 CURVE",
"735 745 LINE",
"735 586 LINE SMOOTH",
"735 362 OFFCURVE",
"641 252 OFFCURVE",
"510 252 CURVE SMOOTH"
);
},
{
closed = 1;
nodes = (
"965 252 OFFCURVE",
"897 363 OFFCURVE",
"897 586 CURVE SMOOTH",
"897 745 LINE",
"1378 745 LINE",
"1377 626 OFFCURVE",
"1367 531 OFFCURVE",
"1348 458 CURVE SMOOTH",
"1310 312 OFFCURVE",
"1239 252 OFFCURVE",
"1102 252 CURVE SMOOTH"
);
},
{
closed = 1;
nodes = (
"299 1234 OFFCURVE",
"477 1432 OFFCURVE",
"829 1432 CURVE SMOOTH",
"1126 1432 OFFCURVE",
"1321 1237 OFFCURVE",
"1368 909 CURVE",
"260 909 LINE"
);
}
);
width = 1911;
}
);
note = u182A_1823.ini;
},
{
glyphname = u1829.fin;
lastChange = "2016-11-10 17:40:46 +0000";
layers = (
{
layerId = "ECD52525-6592-4E14-BB2F-A163A2F4C2CC";
paths = (
{
closed = 1;
nodes = (
"1266 -541 LINE",
"1237 -491 OFFCURVE",
"1223 -438 OFFCURVE",
"1223 -383 CURVE SMOOTH",
"1223 -340 OFFCURVE",
"1227 -305 OFFCURVE",
"1235 -278 CURVE SMOOTH",
"1250 -224 OFFCURVE",
"1287 -158 OFFCURVE",
"1360 -63 CURVE SMOOTH",
"1555 186 OFFCURVE",
"1632 341 OFFCURVE",
"1632 502 CURVE SMOOTH",
"1632 763 OFFCURVE",
"1474 909 OFFCURVE",
"1159 909 CURVE SMOOTH",
"0 909 LINE",
"0 745 LINE",
"39 197 LINE",
"174 197 LINE",
"213 745 LINE",
"446 745 LINE",
"524 451 OFFCURVE",
"642 157 OFFCURVE",
"801 -137 CURVE",
"950 -63 LINE",
"801 204 OFFCURVE",
"687 473 OFFCURVE",
"608 745 CURVE",
"1157 745 LINE SMOOTH",
"1376 745 OFFCURVE",
"1473 666 OFFCURVE",
"1473 502 CURVE SMOOTH",
"1473 373 OFFCURVE",
"1412 261 OFFCURVE",
"1253 57 CURVE SMOOTH",
"1113 -128 OFFCURVE",
"1059 -248 OFFCURVE",
"1059 -383 CURVE SMOOTH",
"1059 -445 OFFCURVE",
"1072 -498 OFFCURVE",
"1098 -541 CURVE"
);
}
);
width = 1724;
}
);
note = u1829.fin;
},
{
glyphname = u1822.fin;
lastChange = "2016-11-10 17:40:46 +0000";
layers = (
{
layerId = "ECD52525-6592-4E14-BB2F-A163A2F4C2CC";
paths = (
{
closed = 1;
nodes = (
"406 174 LINE",
"242 402 OFFCURVE",
"158 594 OFFCURVE",
"158 834 CURVE SMOOTH",
"158 1161 OFFCURVE",
"275 1319 OFFCURVE",
"463 1319 CURVE SMOOTH",
"643 1319 OFFCURVE",
"749 1119 OFFCURVE",
"770 770 CURVE",
"934 791 LINE",
"909 1236 OFFCURVE",
"739 1489 OFFCURVE",
"463 1489 CURVE SMOOTH",
"176 1489 OFFCURVE",
"-4 1239 OFFCURVE",
"-4 834 CURVE SMOOTH",
"-4 599 OFFCURVE",
"84 349 OFFCURVE",
"260 86 CURVE"
);
}
);
width = 1026;
}
);
note = u1822.fin;
},
{
glyphname = u1822.ini;
lastChange = "2016-11-10 17:40:46 +0000";
layers = (
{
layerId = "ECD52525-6592-4E14-BB2F-A163A2F4C2CC";
paths = (
{
closed = 1;
nodes = (
"1432 -63 LINE",
"1282 204 OFFCURVE",
"1168 473 OFFCURVE",
"1090 745 CURVE",
"1729 745 LINE",
"1729 909 LINE",
"909 909 LINE SMOOTH",
"738 909 OFFCURVE",
"629 852 OFFCURVE",
"584 739 CURVE",
"575 739 LINE",
"569 911 LINE SMOOTH",
"560 1215 OFFCURVE",
"486 1337 OFFCURVE",
"285 1337 CURVE SMOOTH",
"204 1337 OFFCURVE",
"116 1317 OFFCURVE",
"20 1276 CURVE",
"20 1126 LINE",
"106 1161 OFFCURVE",
"180 1178 OFFCURVE",
"242 1178 CURVE SMOOTH",
"354 1178 OFFCURVE",
"395 1100 OFFCURVE",
"410 895 CURVE SMOOTH",
"463 152 LINE",
"598 152 LINE",
"618 449 LINE SMOOTH",
"624 532 OFFCURVE",
"636 593 OFFCURVE",
"655 634 CURVE SMOOTH",
"692 714 OFFCURVE",
"756 745 OFFCURVE",
"911 745 CURVE SMOOTH",
"928 745 LINE",
"1005 453 OFFCURVE",
"1123 159 OFFCURVE",
"1282 -137 CURVE"
);
}
);
width = 1667;
}
);
note = u1822.ini;
},
{
glyphname = u1820.medV1;
lastChange = "2016-11-10 17:40:46 +0000";
layers = (
{
layerId = "ECD52525-6592-4E14-BB2F-A163A2F4C2CC";
paths = (
{
closed = 1;
nodes = (
"174 197 LINE",
"213 745 LINE",
"582 745 LINE",
"621 197 LINE",
"756 197 LINE",
"795 745 LINE",
"1225 745 LINE",
"1225 909 LINE",
"0 909 LINE",
"0 745 LINE",
"39 197 LINE"
);
}
);
width = 1163;
}
);
note = u1820.medV1;
},
{
glyphname = u182A_1825.ini;
lastChange = "2016-11-10 17:40:46 +0000";
layers = (
{
layerId = "ECD52525-6592-4E14-BB2F-A163A2F4C2CC";
paths = (
{
closed = 1;
nodes = (
"2271 -63 LINE",
"2124 199 OFFCURVE",
"2010 468 OFFCURVE",
"1929 745 CURVE",
"2568 745 LINE",
"2568 909 LINE",
"1532 909 LINE",
"1516 1051 OFFCURVE",
"1478 1174 OFFCURVE",
"1417 1279 CURVE SMOOTH",
"1296 1488 OFFCURVE",
"1092 1602 OFFCURVE",
"829 1602 CURVE SMOOTH",
"678 1602 OFFCURVE",
"547 1567 OFFCURVE",
"436 1498 CURVE SMOOTH",
"213 1359 OFFCURVE",
"92 1097 OFFCURVE",
"92 768 CURVE SMOOTH",
"92 317 OFFCURVE",
"219 82 OFFCURVE",
"510 82 CURVE SMOOTH",
"633 82 OFFCURVE",
"756 145 OFFCURVE",
"811 276 CURVE",
"868 145 OFFCURVE",
"971 82 OFFCURVE",
"1102 82 CURVE SMOOTH",
"1394 82 OFFCURVE",
"1535 298 OFFCURVE",
"1540 745 CURVE",
"1767 745 LINE",
"1845 451 OFFCURVE",
"1963 157 OFFCURVE",
"2122 -137 CURVE"
);
},
{
closed = 1;
nodes = (
"447 252 OFFCURVE",
"398 268 OFFCURVE",
"362 300 CURVE SMOOTH",
"290 364 OFFCURVE",
"254 513 OFFCURVE",
"254 745 CURVE",
"735 745 LINE",
"735 586 LINE SMOOTH",
"735 362 OFFCURVE",
"641 252 OFFCURVE",
"510 252 CURVE SMOOTH"
);
},
{
closed = 1;
nodes = (
"965 252 OFFCURVE",
"897 363 OFFCURVE",
"897 586 CURVE SMOOTH",
"897 745 LINE",
"1378 745 LINE",
"1377 626 OFFCURVE",
"1367 531 OFFCURVE",
"1348 458 CURVE SMOOTH",
"1310 312 OFFCURVE",
"1239 252 OFFCURVE",
"1102 252 CURVE SMOOTH"
);
},
{
closed = 1;
nodes = (
"299 1234 OFFCURVE",
"477 1432 OFFCURVE",
"829 1432 CURVE SMOOTH",
"1126 1432 OFFCURVE",
"1321 1237 OFFCURVE",
"1368 909 CURVE",
"260 909 LINE"
);
}
);
width = 2507;
}
);
note = u182A_1825.ini;
},
{
glyphname = u182F.med;
lastChange = "2016-11-10 17:37:31 +0000";
layers = (
{
layerId = "ECD52525-6592-4E14-BB2F-A163A2F4C2CC";
paths = (
{
closed = 1;
nodes = (
"174 197 LINE",
"213 745 LINE",
"643 745 LINE",
"643 909 LINE",
"176 909 LINE",
"181 1060 OFFCURVE",
"224 1190 OFFCURVE",
"303 1337 CURVE",
"303 1473 LINE",
"57 1473 LINE SMOOTH",
"-151 1473 OFFCURVE",
"-232 1491 OFFCURVE",
"-311 1546 CURVE",
"-311 1386 LINE",
"-278 1357 OFFCURVE",
"-236 1337 OFFCURVE",
"-187 1326 CURVE SMOOTH",
"-138 1315 OFFCURVE",
"-57 1309 OFFCURVE",
"57 1309 CURVE SMOOTH",
"127 1309 LINE",
"70 1187 OFFCURVE",
"39 1054 OFFCURVE",
"33 909 CURVE",
"0 909 LINE",
"0 745 LINE",
"39 197 LINE"
);
}
);
width = 582;
}
);
note = u182F.med;
},
{
glyphname = u182F;
lastChange = "2016-11-10 17:40:46 +0000";
layers = (
{
layerId = "ECD52525-6592-4E14-BB2F-A163A2F4C2CC";
paths = (
{
closed = 1;
nodes = (
"598 152 LINE",
"618 449 LINE SMOOTH",
"624 532 OFFCURVE",
"636 593 OFFCURVE",
"655 634 CURVE SMOOTH",
"692 714 OFFCURVE",
"756 745 OFFCURVE",
"911 745 CURVE SMOOTH",
"1069 745 LINE",
"1069 909 LINE",
"909 909 LINE SMOOTH",
"738 909 OFFCURVE",
"629 852 OFFCURVE",
"584 739 CURVE",
"575 739 LINE",
"569 911 LINE SMOOTH",
"565 1023 OFFCURVE",
"552 1111 OFFCURVE",
"530 1174 CURVE",
"545 1310 OFFCURVE",
"599 1429 OFFCURVE",
"694 1569 CURVE",
"694 1704 LINE",
"449 1704 LINE SMOOTH",
"234 1704 OFFCURVE",
"149 1727 OFFCURVE",
"80 1778 CURVE",
"80 1618 LINE",
"111 1591 OFFCURVE",
"152 1571 OFFCURVE",
"201 1559 CURVE SMOOTH",
"250 1546 OFFCURVE",
"333 1540 OFFCURVE",
"449 1540 CURVE SMOOTH",
"506 1540 LINE",
"467 1480 OFFCURVE",
"435 1405 OFFCURVE",
"410 1315 CURVE",
"373 1330 OFFCURVE",
"331 1337 OFFCURVE",
"285 1337 CURVE SMOOTH",
"204 1337 OFFCURVE",
"116 1317 OFFCURVE",
"20 1276 CURVE",
"20 1126 LINE",
"106 1161 OFFCURVE",
"180 1178 OFFCURVE",
"242 1178 CURVE SMOOTH",
"354 1178 OFFCURVE",
"395 1100 OFFCURVE",
"410 895 CURVE SMOOTH",
"463 152 LINE"
);
}
);
width = 1161;
}
);
note = u182F;
unicode = 182F;
},
{
glyphname = u1829_182F.med;
lastChange = "2016-11-10 17:40:46 +0000";
layers = (
{
layerId = "ECD52525-6592-4E14-BB2F-A163A2F4C2CC";
paths = (
{
closed = 1;
nodes = (
"844 229 LINE",
"711 453 OFFCURVE",
"657 619 OFFCURVE",
"657 811 CURVE SMOOTH",
"657 1024 OFFCURVE",
"745 1153 OFFCURVE",
"909 1153 CURVE SMOOTH",
"1057 1153 OFFCURVE",
"1159 1021 OFFCURVE",
"1176 745 CURVE SMOOTH",
"1214 197 LINE",
"1350 197 LINE",
"1389 745 LINE",
"1819 745 LINE",
"1819 909 LINE",
"1309 909 LINE",
"1302 939 OFFCURVE",
"1295 968 OFFCURVE",
"1288 995 CURVE SMOOTH",
"1281 1022 OFFCURVE",
"1273 1048 OFFCURVE",
"1262 1071 CURVE",
"1262 1251 OFFCURVE",
"1313 1400 OFFCURVE",
"1409 1569 CURVE",
"1409 1704 LINE",
"1163 1704 LINE SMOOTH",
"950 1704 OFFCURVE",
"864 1727 OFFCURVE",
"795 1778 CURVE",
"795 1618 LINE",
"826 1591 OFFCURVE",
"866 1571 OFFCURVE",
"915 1559 CURVE SMOOTH",
"964 1546 OFFCURVE",
"1047 1540 OFFCURVE",
"1163 1540 CURVE SMOOTH",
"1221 1540 LINE",
"1180 1457 OFFCURVE",
"1151 1359 OFFCURVE",
"1133 1247 CURVE",
"1070 1298 OFFCURVE",
"995 1323 OFFCURVE",
"909 1323 CURVE SMOOTH",
"680 1323 OFFCURVE",
"531 1164 OFFCURVE",
"502 909 CURVE",
"0 909 LINE",
"0 745 LINE",
"39 197 LINE",
"174 197 LINE",
"213 745 LINE",
"498 745 LINE",
"509 554 OFFCURVE",
"573 354 OFFCURVE",
"692 143 CURVE"
);
}
);
width = 1757;
}
);
note = u1829_182F.med;
},
{
glyphname = u182E.fin;
lastChange = "2016-11-10 17:40:46 +0000";
layers = (
{
layerId = "ECD52525-6592-4E14-BB2F-A163A2F4C2CC";
paths = (
{
closed = 1;
nodes = (
"553 381 LINE SMOOTH",
"553 801 OFFCURVE",
"654 1109 OFFCURVE",
"911 1470 CURVE",
"709 1470 LINE",
"490 1170 OFFCURVE",
"391 811 OFFCURVE",
"391 375 CURVE",
"328 409 OFFCURVE",
"279 449 OFFCURVE",
"244 496 CURVE SMOOTH",
"175 588 OFFCURVE",
"143 719 OFFCURVE",
"143 920 CURVE SMOOTH",
"143 1036 OFFCURVE",
"129 1143 OFFCURVE",
"100 1241 CURVE",
"281 1241 OFFCURVE",
"371 1262 OFFCURVE",
"436 1319 CURVE",
"436 1479 LINE",
"359 1423 OFFCURVE",
"284 1405 OFFCURVE",
"92 1405 CURVE SMOOTH",
"-55 1405 LINE",
"-55 1270 LINE",
"-18 1155 OFFCURVE",
"0 1038 OFFCURVE",
"0 920 CURVE SMOOTH",
"0 745 LINE SMOOTH",
"0 643 OFFCURVE",
"24 546 OFFCURVE",
"73 455 CURVE SMOOTH",
"169 271 OFFCURVE",
"349 155 OFFCURVE",
"553 152 CURVE"
);
}
);
width = 932;
}
);
note = u182E.fin;
},
{
glyphname = u182C.ini;
lastChange = "2016-11-10 17:40:46 +0000";
layers = (
{
layerId = "ECD52525-6592-4E14-BB2F-A163A2F4C2CC";
paths = (
{
closed = 1;
nodes = (
"612 197 LINE",
"592 549 OFFCURVE",
"529 772 OFFCURVE",
"422 866 CURVE",
"438 1175 OFFCURVE",
"558 1319 OFFCURVE",
"741 1319 CURVE SMOOTH",
"946 1319 OFFCURVE",
"1049 1154 OFFCURVE",
"1049 774 CURVE SMOOTH",
"1049 571 OFFCURVE",
"1037 379 OFFCURVE",
"1014 197 CURVE",
"1174 197 LINE",
"1203 394 OFFCURVE",
"1217 576 OFFCURVE",
"1217 745 CURVE",
"1675 745 LINE",
"1675 909 LINE",
"1210 909 LINE",
"1173 1296 OFFCURVE",
"1017 1489 OFFCURVE",
"741 1489 CURVE SMOOTH",
"480 1489 OFFCURVE",
"295 1279 OFFCURVE",
"264 924 CURVE",
"197 921 OFFCURVE",
"140 909 OFFCURVE",
"92 887 CURVE",
"92 723 LINE",
"127 741 OFFCURVE",
"172 750 OFFCURVE",
"229 750 CURVE SMOOTH",
"292 750 OFFCURVE",
"341 709 OFFCURVE",
"376 626 CURVE SMOOTH",
"411 543 OFFCURVE",
"436 400 OFFCURVE",
"453 197 CURVE"
);
}
);
width = 1614;
}
);
note = u182C.ini;
},
{
glyphname = u1830;
lastChange = "2016-11-10 17:40:46 +0000";
layers = (
{
layerId = "ECD52525-6592-4E14-BB2F-A163A2F4C2CC";
paths = (
{
closed = 1;
nodes = (
"1063 150 LINE",
"1040 257 OFFCURVE",
"1018 360 OFFCURVE",
"997 459 CURVE SMOOTH",
"976 557 OFFCURVE",
"953 652 OFFCURVE",
"930 745 CURVE",
"1456 745 LINE",
"1456 909 LINE",
"887 909 LINE",
"832 1117 OFFCURVE",
"774 1315 OFFCURVE",
"715 1503 CURVE",
"522 1503 LINE",
"479 1245 OFFCURVE",
"441 1076 OFFCURVE",
"408 995 CURVE SMOOTH",
"375 914 OFFCURVE",
"327 874 OFFCURVE",
"266 874 CURVE SMOOTH",
"213 874 OFFCURVE",
"155 887 OFFCURVE",
"92 913 CURVE",
"92 760 LINE",
"151 726 OFFCURVE",
"212 709 OFFCURVE",
"276 709 CURVE SMOOTH",
"349 709 OFFCURVE",
"408 729 OFFCURVE",
"451 768 CURVE SMOOTH",
"538 846 OFFCURVE",
"598 1099 OFFCURVE",
"618 1270 CURVE",
"627 1270 LINE",
"712 1030 OFFCURVE",
"819 613 OFFCURVE",
"907 150 CURVE"
);
}
);
width = 1548;
}
);
note = u1830;
unicode = 1830;
},
{
glyphname = u1830.finV1;
lastChange = "2016-11-10 17:40:46 +0000";
layers = (
{
layerId = "ECD52525-6592-4E14-BB2F-A163A2F4C2CC";
paths = (
{
closed = 1;
nodes = (
"309 217 LINE",
"402 662 OFFCURVE",
"551 996 OFFCURVE",
"784 1315 CURVE",
"586 1315 LINE",
"418 1080 OFFCURVE",
"274 765 OFFCURVE",
"207 457 CURVE",
"199 457 LINE",
"102 574 OFFCURVE",
"76 698 OFFCURVE",
"76 909 CURVE",
"-68 909 LINE",
"-68 745 LINE SMOOTH",
"-68 582 OFFCURVE",
"21 378 OFFCURVE",
"164 217 CURVE"
);
}
);
width = 877;
}
);
note = u1830.finV1;
},
{
glyphname = u183E.med;
lastChange = "2016-11-10 17:40:46 +0000";
layers = (
{
layerId = "ECD52525-6592-4E14-BB2F-A163A2F4C2CC";
paths = (
{
closed = 1;
nodes = (
"838 -117 LINE",
"685 167 OFFCURVE",
"609 440 OFFCURVE",
"604 745 CURVE",
"1128 745 LINE",
"1128 909 LINE",
"449 909 LINE",
"449 750 LINE SMOOTH",
"449 451 OFFCURVE",
"506 190 OFFCURVE",
"621 -35 CURVE",
"367 -147 LINE",
"211 145 OFFCURVE",
"154 404 OFFCURVE",
"154 745 CURVE SMOOTH",
"154 909 LINE",
"0 909 LINE",
"0 745 LINE SMOOTH",
"0 353 OFFCURVE",
"84 -1 OFFCURVE",
"287 -373 CURVE"
);
}
);
width = 1067;
}
);
note = u183E.med;
},
{
glyphname = u1820;
lastChange = "2016-11-10 17:40:46 +0000";
layers = (
{
layerId = "ECD52525-6592-4E14-BB2F-A163A2F4C2CC";
paths = (
{
closed = 1;
nodes = (
"1495 319 LINE SMOOTH",
"1495 904 OFFCURVE",
"1637 1408 OFFCURVE",
"1882 1712 CURVE",
"1694 1712 LINE",
"1479 1432 OFFCURVE",
"1337 907 OFFCURVE",
"1337 319 CURVE",
"1176 415 OFFCURVE",
"1112 576 OFFCURVE",
"1112 909 CURVE",
"909 909 LINE SMOOTH",
"738 909 OFFCURVE",
"629 852 OFFCURVE",
"584 739 CURVE",
"575 739 LINE",
"569 911 LINE SMOOTH",
"560 1215 OFFCURVE",
"486 1337 OFFCURVE",
"285 1337 CURVE SMOOTH",
"204 1337 OFFCURVE",
"116 1317 OFFCURVE",
"20 1276 CURVE",
"20 1126 LINE",
"106 1161 OFFCURVE",
"180 1178 OFFCURVE",
"242 1178 CURVE SMOOTH",
"354 1178 OFFCURVE",
"395 1100 OFFCURVE",
"410 895 CURVE SMOOTH",
"463 152 LINE",
"598 152 LINE",
"618 449 LINE SMOOTH",
"624 532 OFFCURVE",
"636 593 OFFCURVE",
"655 634 CURVE SMOOTH",
"692 714 OFFCURVE",
"756 745 OFFCURVE",
"911 745 CURVE SMOOTH",
"961 745 LINE",
"961 635 OFFCURVE",
"984 531 OFFCURVE",
"1031 434 CURVE SMOOTH",
"1123 238 OFFCURVE",
"1292 120 OFFCURVE",
"1495 109 CURVE"
);
}
);
width = 1903;
}
);
note = u1820;
unicode = 1820;
},
{
glyphname = u1820.V1;
lastChange = "2016-11-10 17:40:46 +0000";
layers = (
{
layerId = "ECD52525-6592-4E14-BB2F-A163A2F4C2CC";
paths = (
{
closed = 1;
nodes = (
"1229 -541 LINE",
"1200 -491 OFFCURVE",
"1186 -438 OFFCURVE",
"1186 -383 CURVE SMOOTH",
"1186 -340 OFFCURVE",
"1190 -305 OFFCURVE",
"1198 -278 CURVE SMOOTH",
"1213 -224 OFFCURVE",
"1250 -158 OFFCURVE",
"1323 -63 CURVE SMOOTH",
"1518 186 OFFCURVE",
"1595 341 OFFCURVE",
"1595 502 CURVE SMOOTH",
"1595 763 OFFCURVE",
"1437 909 OFFCURVE",
"1122 909 CURVE SMOOTH",
"909 909 LINE SMOOTH",
"738 909 OFFCURVE",
"629 852 OFFCURVE",
"584 739 CURVE",
"575 739 LINE",
"569 911 LINE SMOOTH",
"560 1215 OFFCURVE",
"486 1337 OFFCURVE",
"285 1337 CURVE SMOOTH",
"204 1337 OFFCURVE",
"116 1317 OFFCURVE",
"20 1276 CURVE",
"20 1126 LINE",
"106 1161 OFFCURVE",
"180 1178 OFFCURVE",
"242 1178 CURVE SMOOTH",
"354 1178 OFFCURVE",
"395 1100 OFFCURVE",
"410 895 CURVE SMOOTH",
"463 152 LINE",
"598 152 LINE",
"618 449 LINE SMOOTH",
"624 532 OFFCURVE",
"636 593 OFFCURVE",
"655 634 CURVE SMOOTH",
"692 714 OFFCURVE",
"756 745 OFFCURVE",
"911 745 CURVE SMOOTH",
"1120 745 LINE SMOOTH",
"1339 745 OFFCURVE",
"1436 666 OFFCURVE",
"1436 502 CURVE SMOOTH",
"1436 374 OFFCURVE",
"1378 270 OFFCURVE",
"1217 57 CURVE SMOOTH",
"1077 -127 OFFCURVE",
"1022 -247 OFFCURVE",
"1022 -383 CURVE SMOOTH",
"1022 -445 OFFCURVE",
"1035 -498 OFFCURVE",
"1061 -541 CURVE"
);
}
);
width = 1688;
}
);
note = u1820.V1;
},
{
glyphname = u1820.ini;
lastChange = "2016-11-10 17:40:46 +0000";
layers = (
{
layerId = "ECD52525-6592-4E14-BB2F-A163A2F4C2CC";
paths = (
{
closed = 1;
nodes = (
"598 152 LINE",
"618 449 LINE SMOOTH",
"624 532 OFFCURVE",
"636 593 OFFCURVE",
"655 634 CURVE SMOOTH",
"692 714 OFFCURVE",
"756 745 OFFCURVE",
"911 745 CURVE SMOOTH",
"1028 745 LINE",
"1067 197 LINE",
"1202 197 LINE",
"1241 745 LINE",
"1671 745 LINE",
"1671 909 LINE",
"909 909 LINE SMOOTH",
"738 909 OFFCURVE",
"629 852 OFFCURVE",
"584 739 CURVE",
"575 739 LINE",
"569 911 LINE SMOOTH",
"560 1215 OFFCURVE",
"486 1337 OFFCURVE",
"285 1337 CURVE SMOOTH",
"204 1337 OFFCURVE",
"116 1317 OFFCURVE",
"20 1276 CURVE",
"20 1126 LINE",
"106 1161 OFFCURVE",
"180 1178 OFFCURVE",
"242 1178 CURVE SMOOTH",
"354 1178 OFFCURVE",
"395 1100 OFFCURVE",
"410 895 CURVE SMOOTH",
"463 152 LINE"
);
}
);
width = 1610;
}
);
note = u1820.ini;
},
{
glyphname = u182A_1820.ini;
lastChange = "2016-11-10 17:40:46 +0000";
layers = (
{
layerId = "ECD52525-6592-4E14-BB2F-A163A2F4C2CC";
paths = (
{
closed = 1;
nodes = (
"624 82 OFFCURVE",
"688 102 OFFCURVE",
"745 142 CURVE SMOOTH",
"857 221 OFFCURVE",
"924 376 OFFCURVE",
"924 563 CURVE SMOOTH",
"924 647 OFFCURVE",
"902 826 OFFCURVE",
"877 909 CURVE",
"254 909 LINE",
"259 1229 OFFCURVE",
"433 1432 OFFCURVE",
"721 1432 CURVE SMOOTH",
"1010 1432 OFFCURVE",
"1153 1201 OFFCURVE",
"1186 745 CURVE SMOOTH",
"1225 197 LINE",
"1360 197 LINE",
"1399 745 LINE",
"1829 745 LINE",
"1829 909 LINE",
"1335 909 LINE",
"1275 1354 OFFCURVE",
"1061 1602 OFFCURVE",
"721 1602 CURVE SMOOTH",
"330 1602 OFFCURVE",
"92 1316 OFFCURVE",
"92 836 CURVE SMOOTH",
"92 329 OFFCURVE",
"244 82 OFFCURVE",
"553 82 CURVE SMOOTH"
);
},
{
closed = 1;
nodes = (
"355 252 OFFCURVE",
"259 416 OFFCURVE",
"254 745 CURVE",
"741 745 LINE",
"755 707 OFFCURVE",
"762 646 OFFCURVE",
"762 563 CURVE SMOOTH",
"762 356 OFFCURVE",
"669 252 OFFCURVE",
"541 252 CURVE SMOOTH"
);
}
);
width = 1767;
}
);
note = u182A_1820.ini;
},
{
glyphname = u1827.med;
lastChange = "2016-11-10 17:40:46 +0000";
layers = (
{
layerId = "ECD52525-6592-4E14-BB2F-A163A2F4C2CC";
paths = (
{
closed = 1;
nodes = (
"709 -244 OFFCURVE",
"772 -218 OFFCURVE",
"803 -174 CURVE",
"803 12 LINE",
"763 -45 OFFCURVE",
"706 -74 OFFCURVE",
"633 -74 CURVE SMOOTH",
"580 -74 OFFCURVE",
"531 -46 OFFCURVE",
"485 9 CURVE SMOOTH",
"393 120 OFFCURVE",
"243 460 OFFCURVE",
"162 745 CURVE",
"999 745 LINE",
"999 909 LINE",
"0 909 LINE",
"0 745 LINE",
"80 449 OFFCURVE",
"195 163 OFFCURVE",
"288 -1 CURVE SMOOTH",
"380 -165 OFFCURVE",
"481 -244 OFFCURVE",
"633 -244 CURVE SMOOTH"
);
}
);
width = 938;
}
);
note = u1827.med;
},
{
glyphname = u182C_1825.V1;
lastChange = "2016-11-10 17:40:46 +0000";
layers = (
{
layerId = "ECD52525-6592-4E14-BB2F-A163A2F4C2CC";
paths = (
{
closed = 1;
nodes = (
"1116 82 OFFCURVE",
"1185 104 OFFCURVE",
"1247 148 CURVE SMOOTH",
"1370 236 OFFCURVE",
"1442 408 OFFCURVE",
"1442 621 CURVE SMOOTH",
"1442 822 OFFCURVE",
"1414 993 OFFCURVE",
"1359 1135 CURVE SMOOTH",
"1247 1418 OFFCURVE",
"1039 1556 OFFCURVE",
"748 1556 CURVE SMOOTH",
"619 1556 OFFCURVE",
"505 1526 OFFCURVE",
"406 1467 CURVE SMOOTH",
"206 1348 OFFCURVE",
"92 1121 OFFCURVE",
"92 836 CURVE SMOOTH",
"92 604 OFFCURVE",
"166 337 OFFCURVE",
"299 86 CURVE",
"449 150 LINE",
"312 406 OFFCURVE",
"254 641 OFFCURVE",
"254 829 CURVE SMOOTH",
"254 1174 OFFCURVE",
"444 1386 OFFCURVE",
"748 1386 CURVE SMOOTH",
"1030 1386 OFFCURVE",
"1200 1227 OFFCURVE",
"1257 909 CURVE",
"711 909 LINE",
"664 822 OFFCURVE",
"633 686 OFFCURVE",
"633 563 CURVE SMOOTH",
"633 244 OFFCURVE",
"792 82 OFFCURVE",
"1040 82 CURVE SMOOTH"
);
},
{
closed = 1;
nodes = (
"873 252 OFFCURVE",
"795 356 OFFCURVE",
"795 563 CURVE SMOOTH",
"795 637 OFFCURVE",
"806 698 OFFCURVE",
"827 745 CURVE",
"1276 745 LINE",
"1279 705 OFFCURVE",
"1280 664 OFFCURVE",
"1280 621 CURVE SMOOTH",
"1280 374 OFFCURVE",
"1176 252 OFFCURVE",
"1028 252 CURVE SMOOTH"
);
}
);
width = 1534;
}
);
note = u182C_1825.V1;
},
{
glyphname = u182C_1825.iniV1;
lastChange = "2016-11-10 17:40:46 +0000";
layers = (
{
layerId = "ECD52525-6592-4E14-BB2F-A163A2F4C2CC";
paths = (
{
closed = 1;
nodes = (
"1116 82 OFFCURVE",
"1185 104 OFFCURVE",
"1247 148 CURVE SMOOTH",
"1370 236 OFFCURVE",
"1442 408 OFFCURVE",
"1442 621 CURVE SMOOTH",
"1442 664 OFFCURVE",
"1441 705 OFFCURVE",
"1438 745 CURVE",
"1874 745 LINE",
"1874 909 LINE",
"1419 909 LINE",
"1347 1330 OFFCURVE",
"1117 1556 OFFCURVE",
"748 1556 CURVE SMOOTH",
"619 1556 OFFCURVE",
"505 1526 OFFCURVE",
"406 1467 CURVE SMOOTH",
"206 1348 OFFCURVE",
"92 1121 OFFCURVE",
"92 836 CURVE SMOOTH",
"92 604 OFFCURVE",
"166 337 OFFCURVE",
"299 86 CURVE",
"449 150 LINE",
"312 406 OFFCURVE",
"254 641 OFFCURVE",
"254 829 CURVE SMOOTH",
"254 1174 OFFCURVE",
"444 1386 OFFCURVE",
"748 1386 CURVE SMOOTH",
"1030 1386 OFFCURVE",
"1200 1227 OFFCURVE",
"1257 909 CURVE",
"711 909 LINE",
"664 822 OFFCURVE",
"633 686 OFFCURVE",
"633 563 CURVE SMOOTH",
"633 244 OFFCURVE",
"792 82 OFFCURVE",
"1040 82 CURVE SMOOTH"
);
},
{
closed = 1;
nodes = (
"873 252 OFFCURVE",
"795 356 OFFCURVE",
"795 563 CURVE SMOOTH",
"795 637 OFFCURVE",
"806 698 OFFCURVE",
"827 745 CURVE",
"1276 745 LINE",
"1279 705 OFFCURVE",
"1280 664 OFFCURVE",
"1280 621 CURVE SMOOTH",
"1280 374 OFFCURVE",
"1176 252 OFFCURVE",
"1028 252 CURVE SMOOTH"
);
}
);
width = 1812;
}
);
note = u182C_1825.iniV1;
},
{
glyphname = u182C_1821.ini;
lastChange = "2016-11-10 17:40:46 +0000";
layers = (
{
layerId = "ECD52525-6592-4E14-BB2F-A163A2F4C2CC";
paths = (
{
closed = 1;
nodes = (
"502 174 LINE",
"329 427 OFFCURVE",
"254 615 OFFCURVE",
"254 854 CURVE SMOOTH",
"254 1169 OFFCURVE",
"373 1319 OFFCURVE",
"561 1319 CURVE SMOOTH",
"702 1319 OFFCURVE",
"780 1251 OFFCURVE",
"827 1095 CURVE SMOOTH",
"850 1016 OFFCURVE",
"868 900 OFFCURVE",
"881 745 CURVE SMOOTH",
"920 197 LINE",
"1055 197 LINE",
"1094 745 LINE",
"1524 745 LINE",
"1524 909 LINE",
"1030 909 LINE",
"981 1305 OFFCURVE",
"840 1489 OFFCURVE",
"561 1489 CURVE SMOOTH",
"468 1489 OFFCURVE",
"385 1463 OFFCURVE",
"314 1412 CURVE SMOOTH",
"170 1309 OFFCURVE",
"92 1110 OFFCURVE",
"92 854 CURVE SMOOTH",
"92 613 OFFCURVE",
"180 357 OFFCURVE",
"356 86 CURVE"
);
}
);
width = 1462;
}
);
note = u182C_1821.ini;
},
{
glyphname = u182B_1820.ini;
lastChange = "2016-11-10 17:37:31 +0000";
layers = (
{
layerId = "ECD52525-6592-4E14-BB2F-A163A2F4C2CC";
paths = (
{
closed = 1;
nodes = (
"224 139 OFFCURVE",
"332 150 OFFCURVE",
"473 150 CURVE SMOOTH",
"697 150 OFFCURVE",
"856 311 OFFCURVE",
"856 563 CURVE SMOOTH",
"856 679 OFFCURVE",
"842 794 OFFCURVE",
"813 909 CURVE",
"254 909 LINE",
"259 1233 OFFCURVE",
"419 1432 OFFCURVE",
"676 1432 CURVE SMOOTH",
"944 1432 OFFCURVE",
"1086 1201 OFFCURVE",
"1118 745 CURVE SMOOTH",
"1157 197 LINE",
"1292 197 LINE",
"1331 745 LINE",
"1761 745 LINE",
"1761 909 LINE",
"1266 909 LINE",
"1201 1362 OFFCURVE",
"999 1602 OFFCURVE",
"676 1602 CURVE SMOOTH",
"313 1602 OFFCURVE",
"92 1315 OFFCURVE",
"92 836 CURVE SMOOTH",
"92 745 LINE",
"674 745 LINE",
"687 705 OFFCURVE",
"694 644 OFFCURVE",
"694 563 CURVE SMOOTH",
"694 399 OFFCURVE",
"601 313 OFFCURVE",
"473 313 CURVE SMOOTH",
"290 313 OFFCURVE",
"202 299 OFFCURVE",
"127 250 CURVE",
"127 86 LINE"
);
}
);
width = 1700;
}
);
note = u182B_1820.ini;
},
{
glyphname = u1839_1823;
lastChange = "2016-11-10 17:40:46 +0000";
layers = (
{
layerId = "ECD52525-6592-4E14-BB2F-A163A2F4C2CC";
paths = (
{
closed = 1;
nodes = (
"590 -373 LINE",
"538 -303 OFFCURVE",
"512 -222 OFFCURVE",
"512 -129 CURVE SMOOTH",
"512 -48 OFFCURVE",
"526 23 OFFCURVE",
"555 84 CURVE",
"662 97 OFFCURVE",
"762 161 OFFCURVE",
"811 276 CURVE",
"868 145 OFFCURVE",
"971 82 OFFCURVE",
"1102 82 CURVE SMOOTH",
"1399 82 OFFCURVE",
"1540 300 OFFCURVE",
"1540 768 CURVE SMOOTH",
"1540 931 OFFCURVE",
"1512 1076 OFFCURVE",
"1456 1203 CURVE SMOOTH",
"1344 1456 OFFCURVE",
"1124 1602 OFFCURVE",
"829 1602 CURVE SMOOTH",
"678 1602 OFFCURVE",
"547 1567 OFFCURVE",
"436 1498 CURVE SMOOTH",
"213 1359 OFFCURVE",
"92 1097 OFFCURVE",
"92 768 CURVE SMOOTH",
"92 355 OFFCURVE",
"198 143 OFFCURVE",
"406 92 CURVE",
"365 21 OFFCURVE",
"344 -54 OFFCURVE",
"344 -131 CURVE SMOOTH",
"344 -231 OFFCURVE",
"365 -312 OFFCURVE",
"406 -373 CURVE"
);
},
{
closed = 1;
nodes = (
"447 252 OFFCURVE",
"398 268 OFFCURVE",
"362 300 CURVE SMOOTH",
"290 364 OFFCURVE",
"254 513 OFFCURVE",
"254 745 CURVE",
"735 745 LINE",
"735 586 LINE SMOOTH",
"735 362 OFFCURVE",
"641 252 OFFCURVE",
"510 252 CURVE SMOOTH"
);
},
{
closed = 1;
nodes = (
"965 252 OFFCURVE",
"897 363 OFFCURVE",
"897 586 CURVE SMOOTH",
"897 745 LINE",
"1378 745 LINE",
"1377 626 OFFCURVE",
"1367 531 OFFCURVE",
"1348 458 CURVE SMOOTH",
"1310 312 OFFCURVE",
"1239 252 OFFCURVE",
"1102 252 CURVE SMOOTH"
);
},
{
closed = 1;
nodes = (
"299 1234 OFFCURVE",
"477 1432 OFFCURVE",
"829 1432 CURVE SMOOTH",
"1126 1432 OFFCURVE",
"1321 1237 OFFCURVE",
"1368 909 CURVE",
"260 909 LINE"
);
}
);
width = 1632;
}
);
note = u1839_1823;
},
{
glyphname = u183B_1820.ini;
lastChange = "2016-11-10 17:40:46 +0000";
layers = (
{
layerId = "ECD52525-6592-4E14-BB2F-A163A2F4C2CC";
paths = (
{
closed = 1;
nodes = (
"502 174 LINE",
"341 403 OFFCURVE",
"277 576 OFFCURVE",
"258 745 CURVE",
"584 745 LINE",
"584 909 LINE",
"254 909 LINE",
"267 1185 OFFCURVE",
"384 1319 OFFCURVE",
"561 1319 CURVE SMOOTH",
"702 1319 OFFCURVE",
"780 1251 OFFCURVE",
"827 1095 CURVE SMOOTH",
"850 1016 OFFCURVE",
"868 900 OFFCURVE",
"881 745 CURVE SMOOTH",
"920 197 LINE",
"1055 197 LINE",
"1094 745 LINE",
"1524 745 LINE",
"1524 909 LINE",
"1030 909 LINE",
"981 1305 OFFCURVE",
"840 1489 OFFCURVE",
"561 1489 CURVE SMOOTH",
"468 1489 OFFCURVE",
"385 1463 OFFCURVE",
"314 1412 CURVE SMOOTH",
"170 1309 OFFCURVE",
"92 1110 OFFCURVE",
"92 854 CURVE SMOOTH",
"92 613 OFFCURVE",
"180 357 OFFCURVE",
"356 86 CURVE"
);
}
);
width = 1462;
}
);
note = u183B_1820.ini;
},
{
glyphname = u1835.med;
lastChange = "2016-11-10 17:40:46 +0000";
layers = (
{
layerId = "ECD52525-6592-4E14-BB2F-A163A2F4C2CC";
paths = (
{
closed = 1;
nodes = (
"89 91 OFFCURVE",
"183 158 OFFCURVE",
"281 211 CURVE SMOOTH",
"502 330 LINE SMOOTH",
"654 409 OFFCURVE",
"719 536 OFFCURVE",
"719 745 CURVE",
"1147 745 LINE",
"1147 909 LINE",
"0 909 LINE",
"0 745 LINE",
"561 745 LINE",
"561 609 OFFCURVE",
"530 523 OFFCURVE",
"401 455 CURVE SMOOTH",
"233 365 LINE SMOOTH",
"123 304 OFFCURVE",
"45 250 OFFCURVE",
"0 205 CURVE",
"0 10 LINE"
);
}
);
width = 1085;
}
);
note = u1835.med;
},
{
glyphname = u182C_1825.ini;
lastChange = "2016-11-10 17:40:46 +0000";
layers = (
{
layerId = "ECD52525-6592-4E14-BB2F-A163A2F4C2CC";
paths = (
{
closed = 1;
nodes = (
"2181 -63 LINE",
"2031 204 OFFCURVE",
"1917 473 OFFCURVE",
"1839 745 CURVE",
"2478 745 LINE",
"2478 909 LINE",
"1419 909 LINE",
"1347 1330 OFFCURVE",
"1117 1556 OFFCURVE",
"748 1556 CURVE SMOOTH",
"619 1556 OFFCURVE",
"505 1526 OFFCURVE",
"406 1467 CURVE SMOOTH",
"206 1348 OFFCURVE",
"92 1121 OFFCURVE",
"92 836 CURVE SMOOTH",
"92 604 OFFCURVE",
"166 337 OFFCURVE",
"299 86 CURVE",
"449 150 LINE",
"312 406 OFFCURVE",
"254 641 OFFCURVE",
"254 829 CURVE SMOOTH",
"254 1174 OFFCURVE",
"444 1386 OFFCURVE",
"748 1386 CURVE SMOOTH",
"1030 1386 OFFCURVE",
"1200 1227 OFFCURVE",
"1257 909 CURVE",
"711 909 LINE",
"664 822 OFFCURVE",
"633 686 OFFCURVE",
"633 563 CURVE SMOOTH",
"633 244 OFFCURVE",
"792 82 OFFCURVE",
"1040 82 CURVE SMOOTH",
"1116 82 OFFCURVE",
"1185 104 OFFCURVE",
"1247 148 CURVE SMOOTH",
"1370 236 OFFCURVE",
"1442 408 OFFCURVE",
"1442 621 CURVE SMOOTH",
"1442 664 OFFCURVE",
"1441 705 OFFCURVE",
"1438 745 CURVE",
"1677 745 LINE",
"1755 451 OFFCURVE",
"1873 157 OFFCURVE",
"2032 -137 CURVE"
);
},
{
closed = 1;
nodes = (
"873 252 OFFCURVE",
"795 356 OFFCURVE",
"795 563 CURVE SMOOTH",
"795 637 OFFCURVE",
"806 698 OFFCURVE",
"827 745 CURVE",
"1276 745 LINE",
"1279 705 OFFCURVE",
"1280 664 OFFCURVE",
"1280 621 CURVE SMOOTH",
"1280 374 OFFCURVE",
"1176 252 OFFCURVE",
"1028 252 CURVE SMOOTH"
);
}
);
width = 2417;
}
);
note = u182C_1825.ini;
},
{
glyphname = u182C.iniFem;
lastChange = "2016-11-10 17:40:46 +0000";
layers = (
{
layerId = "ECD52525-6592-4E14-BB2F-A163A2F4C2CC";
paths = (
{
closed = 1;
nodes = (
"502 174 LINE",
"338 402 OFFCURVE",
"254 594 OFFCURVE",
"254 834 CURVE SMOOTH",
"254 1161 OFFCURVE",
"371 1319 OFFCURVE",
"559 1319 CURVE SMOOTH",
"664 1319 OFFCURVE",
"739 1278 OFFCURVE",
"786 1195 CURVE SMOOTH",
"832 1112 OFFCURVE",
"862 962 OFFCURVE",
"877 745 CURVE",
"1028 745 LINE",
"1008 1250 OFFCURVE",
"863 1489 OFFCURVE",
"559 1489 CURVE SMOOTH",
"465 1489 OFFCURVE",
"383 1463 OFFCURVE",
"312 1410 CURVE SMOOTH",
"171 1304 OFFCURVE",
"92 1098 OFFCURVE",
"92 834 CURVE SMOOTH",
"92 599 OFFCURVE",
"180 349 OFFCURVE",
"356 86 CURVE"
);
}
);
width = 877;
}
);
note = u182C.iniFem;
},
{
glyphname = u182B_1823;
lastChange = "2016-11-10 17:37:31 +0000";
layers = (
{
layerId = "ECD52525-6592-4E14-BB2F-A163A2F4C2CC";
paths = (
{
closed = 1;
nodes = (
"1331 82 OFFCURVE",
"1473 304 OFFCURVE",
"1473 768 CURVE SMOOTH",
"1473 931 OFFCURVE",
"1445 1076 OFFCURVE",
"1389 1203 CURVE SMOOTH",
"1277 1455 OFFCURVE",
"1057 1602 OFFCURVE",
"762 1602 CURVE SMOOTH",
"629 1602 OFFCURVE",
"512 1571 OFFCURVE",
"410 1510 CURVE SMOOTH",
"206 1386 OFFCURVE",
"92 1147 OFFCURVE",
"92 836 CURVE SMOOTH",
"92 745 LINE",
"668 745 LINE",
"668 563 LINE SMOOTH",
"668 399 OFFCURVE",
"581 313 OFFCURVE",
"461 313 CURVE SMOOTH",
"282 313 OFFCURVE",
"202 299 OFFCURVE",
"127 250 CURVE",
"127 86 LINE",
"223 139 OFFCURVE",
"325 150 OFFCURVE",
"461 150 CURVE SMOOTH",
"578 150 OFFCURVE",
"672 193 OFFCURVE",
"743 279 CURVE",
"795 148 OFFCURVE",
"892 82 OFFCURVE",
"1034 82 CURVE SMOOTH"
);
},
{
closed = 1;
nodes = (
"897 252 OFFCURVE",
"829 363 OFFCURVE",
"829 586 CURVE SMOOTH",
"829 745 LINE",
"1311 745 LINE",
"1309 623 OFFCURVE",
"1299 526 OFFCURVE",
"1280 455 CURVE SMOOTH",
"1242 312 OFFCURVE",
"1173 252 OFFCURVE",
"1034 252 CURVE SMOOTH"
);
},
{
closed = 1;
nodes = (
"255 1010 OFFCURVE",
"277 1100 OFFCURVE",
"320 1181 CURVE SMOOTH",
"405 1341 OFFCURVE",
"563 1432 OFFCURVE",
"762 1432 CURVE SMOOTH",
"1057 1432 OFFCURVE",
"1253 1237 OFFCURVE",
"1300 909 CURVE",
"254 909 LINE"
);
}
);
width = 1565;
}
);
note = u182B_1823;
},
{
glyphname = u182B_1823.ini;
lastChange = "2016-11-10 17:37:31 +0000";
layers = (
{
layerId = "ECD52525-6592-4E14-BB2F-A163A2F4C2CC";
paths = (
{
closed = 1;
nodes = (
"1326 82 OFFCURVE",
"1466 294 OFFCURVE",
"1473 745 CURVE",
"1905 745 LINE",
"1905 909 LINE",
"1464 909 LINE",
"1448 1051 OFFCURVE",
"1410 1174 OFFCURVE",
"1350 1279 CURVE SMOOTH",
"1229 1488 OFFCURVE",
"1025 1602 OFFCURVE",
"762 1602 CURVE SMOOTH",
"629 1602 OFFCURVE",
"512 1571 OFFCURVE",
"410 1510 CURVE SMOOTH",
"206 1386 OFFCURVE",
"92 1147 OFFCURVE",
"92 836 CURVE SMOOTH",
"92 745 LINE",
"668 745 LINE",
"668 563 LINE SMOOTH",
"668 399 OFFCURVE",
"581 313 OFFCURVE",
"461 313 CURVE SMOOTH",
"282 313 OFFCURVE",
"202 299 OFFCURVE",
"127 250 CURVE",
"127 86 LINE",
"223 139 OFFCURVE",
"325 150 OFFCURVE",
"461 150 CURVE SMOOTH",
"578 150 OFFCURVE",
"672 193 OFFCURVE",
"743 279 CURVE",
"795 148 OFFCURVE",
"892 82 OFFCURVE",
"1034 82 CURVE SMOOTH"
);
},
{
closed = 1;
nodes = (
"897 252 OFFCURVE",
"829 363 OFFCURVE",
"829 586 CURVE SMOOTH",
"829 745 LINE",
"1311 745 LINE",
"1309 623 OFFCURVE",
"1299 526 OFFCURVE",
"1280 455 CURVE SMOOTH",
"1242 312 OFFCURVE",
"1173 252 OFFCURVE",
"1034 252 CURVE SMOOTH"
);
},
{
closed = 1;
nodes = (
"255 1010 OFFCURVE",
"277 1100 OFFCURVE",
"320 1181 CURVE SMOOTH",
"405 1341 OFFCURVE",
"563 1432 OFFCURVE",
"762 1432 CURVE SMOOTH",
"1057 1432 OFFCURVE",
"1253 1237 OFFCURVE",
"1300 909 CURVE",
"254 909 LINE"
);
}
);
width = 1843;
}
);
note = u182B_1823.ini;
},
{
glyphname = u182B_1825.ini;
lastChange = "2016-11-10 17:40:46 +0000";
layers = (
{
layerId = "ECD52525-6592-4E14-BB2F-A163A2F4C2CC";
paths = (
{
closed = 1;
nodes = (
"2204 -63 LINE",
"2054 204 OFFCURVE",
"1940 473 OFFCURVE",
"1862 745 CURVE",
"2501 745 LINE",
"2501 909 LINE",
"1464 909 LINE",
"1448 1051 OFFCURVE",
"1410 1174 OFFCURVE",
"1350 1279 CURVE SMOOTH",
"1229 1488 OFFCURVE",
"1025 1602 OFFCURVE",
"762 1602 CURVE SMOOTH",
"629 1602 OFFCURVE",
"512 1571 OFFCURVE",
"410 1510 CURVE SMOOTH",
"206 1386 OFFCURVE",
"92 1147 OFFCURVE",
"92 836 CURVE SMOOTH",
"92 745 LINE",
"668 745 LINE",
"668 563 LINE SMOOTH",
"668 399 OFFCURVE",
"581 313 OFFCURVE",
"461 313 CURVE SMOOTH",
"282 313 OFFCURVE",
"202 299 OFFCURVE",
"127 250 CURVE",
"127 86 LINE",
"223 139 OFFCURVE",
"325 150 OFFCURVE",
"461 150 CURVE SMOOTH",
"578 150 OFFCURVE",
"672 193 OFFCURVE",
"743 279 CURVE",
"795 148 OFFCURVE",
"892 82 OFFCURVE",
"1034 82 CURVE SMOOTH",
"1326 82 OFFCURVE",
"1466 294 OFFCURVE",
"1473 745 CURVE",
"1700 745 LINE",
"1777 453 OFFCURVE",
"1895 159 OFFCURVE",
"2054 -137 CURVE"
);
},
{
closed = 1;
nodes = (
"897 252 OFFCURVE",
"829 363 OFFCURVE",
"829 586 CURVE SMOOTH",
"829 745 LINE",
"1311 745 LINE",
"1309 623 OFFCURVE",
"1299 526 OFFCURVE",
"1280 455 CURVE SMOOTH",
"1242 312 OFFCURVE",
"1173 252 OFFCURVE",
"1034 252 CURVE SMOOTH"
);
},
{
closed = 1;
nodes = (
"255 1010 OFFCURVE",
"277 1100 OFFCURVE",
"320 1181 CURVE SMOOTH",
"405 1341 OFFCURVE",
"563 1432 OFFCURVE",
"762 1432 CURVE SMOOTH",
"1057 1432 OFFCURVE",
"1253 1237 OFFCURVE",
"1300 909 CURVE",
"254 909 LINE"
);
}
);
width = 2439;
}
);
note = u182B_1825.ini;
},
{
glyphname = u182B_1822.ini;
lastChange = "2016-11-10 17:40:46 +0000";
layers = (
{
layerId = "ECD52525-6592-4E14-BB2F-A163A2F4C2CC";
paths = (
{
closed = 1;
nodes = (
"1597 -63 LINE",
"1420 260 OFFCURVE",
"1321 498 OFFCURVE",
"1270 745 CURVE",
"1894 745 LINE",
"1894 909 LINE",
"1239 909 LINE",
"1160 1368 OFFCURVE",
"992 1602 OFFCURVE",
"653 1602 CURVE SMOOTH",
"308 1602 OFFCURVE",
"92 1319 OFFCURVE",
"92 836 CURVE SMOOTH",
"92 745 LINE",
"674 745 LINE",
"687 705 OFFCURVE",
"694 644 OFFCURVE",
"694 563 CURVE SMOOTH",
"694 399 OFFCURVE",
"601 313 OFFCURVE",
"473 313 CURVE SMOOTH",
"290 313 OFFCURVE",
"202 299 OFFCURVE",
"127 250 CURVE",
"127 86 LINE",
"224 139 OFFCURVE",
"332 150 OFFCURVE",
"473 150 CURVE SMOOTH",
"697 150 OFFCURVE",
"856 311 OFFCURVE",
"856 563 CURVE SMOOTH",
"856 679 OFFCURVE",
"842 794 OFFCURVE",
"813 909 CURVE",
"254 909 LINE",
"259 1230 OFFCURVE",
"410 1432 OFFCURVE",
"653 1432 CURVE SMOOTH",
"890 1432 OFFCURVE",
"1022 1233 OFFCURVE",
"1085 856 CURVE SMOOTH",
"1144 513 OFFCURVE",
"1221 295 OFFCURVE",
"1448 -137 CURVE"
);
}
);
width = 1833;
}
);
note = u182B_1822.ini;
},
{
glyphname = u182C_1827.ini;
lastChange = "2016-11-10 17:40:46 +0000";
layers = (
{
layerId = "ECD52525-6592-4E14-BB2F-A163A2F4C2CC";
paths = (
{
closed = 1;
nodes = (
"1586 -244 OFFCURVE",
"1648 -218 OFFCURVE",
"1677 -174 CURVE",
"1677 12 LINE",
"1640 -45 OFFCURVE",
"1584 -74 OFFCURVE",
"1509 -74 CURVE SMOOTH",
"1475 -74 OFFCURVE",
"1444 -64 OFFCURVE",
"1417 -44 CURVE SMOOTH",
"1361 -4 OFFCURVE",
"1294 93 OFFCURVE",
"1227 240 CURVE SMOOTH",
"1157 387 OFFCURVE",
"1110 556 OFFCURVE",
"1085 745 CURVE",
"1874 745 LINE",
"1874 909 LINE",
"1067 909 LINE",
"1012 1354 OFFCURVE",
"872 1556 OFFCURVE",
"588 1556 CURVE SMOOTH",
"288 1556 OFFCURVE",
"92 1286 OFFCURVE",
"92 854 CURVE SMOOTH",
"92 613 OFFCURVE",
"180 357 OFFCURVE",
"356 86 CURVE",
"502 174 LINE",
"329 427 OFFCURVE",
"254 615 OFFCURVE",
"254 854 CURVE SMOOTH",
"254 1211 OFFCURVE",
"388 1386 OFFCURVE",
"588 1386 CURVE SMOOTH",
"788 1386 OFFCURVE",
"870 1233 OFFCURVE",
"911 856 CURVE SMOOTH",
"941 573 OFFCURVE",
"1011 316 OFFCURVE",
"1120 84 CURVE SMOOTH",
"1231 -151 OFFCURVE",
"1341 -244 OFFCURVE",
"1509 -244 CURVE SMOOTH"
);
}
);
width = 1812;
}
);
note = u182C_1827.ini;
},
{
glyphname = u182B_1827.ini;
lastChange = "2016-11-10 17:40:46 +0000";
layers = (
{
layerId = "ECD52525-6592-4E14-BB2F-A163A2F4C2CC";
paths = (
{
closed = 1;
nodes = (
"1788 -244 OFFCURVE",
"1851 -218 OFFCURVE",
"1880 -174 CURVE",
"1880 12 LINE",
"1842 -45 OFFCURVE",
"1786 -74 OFFCURVE",
"1712 -74 CURVE SMOOTH",
"1612 -74 OFFCURVE",
"1529 26 OFFCURVE",
"1441 217 CURVE SMOOTH",
"1352 408 OFFCURVE",
"1297 588 OFFCURVE",
"1268 745 CURVE",
"2077 745 LINE",
"2077 909 LINE",
"1237 909 LINE",
"1148 1408 OFFCURVE",
"965 1602 OFFCURVE",
"653 1602 CURVE SMOOTH",
"308 1602 OFFCURVE",
"92 1319 OFFCURVE",
"92 836 CURVE SMOOTH",
"92 745 LINE",
"674 745 LINE",
"687 705 OFFCURVE",
"694 644 OFFCURVE",
"694 563 CURVE SMOOTH",
"694 399 OFFCURVE",
"601 313 OFFCURVE",
"473 313 CURVE SMOOTH",
"290 313 OFFCURVE",
"202 299 OFFCURVE",
"127 250 CURVE",
"127 86 LINE",
"224 139 OFFCURVE",
"332 150 OFFCURVE",
"473 150 CURVE SMOOTH",
"697 150 OFFCURVE",
"856 311 OFFCURVE",
"856 563 CURVE SMOOTH",
"856 679 OFFCURVE",
"842 794 OFFCURVE",
"813 909 CURVE",
"254 909 LINE",
"259 1230 OFFCURVE",
"410 1432 OFFCURVE",
"653 1432 CURVE SMOOTH",
"889 1432 OFFCURVE",
"1014 1273 OFFCURVE",
"1085 856 CURVE SMOOTH",
"1134 571 OFFCURVE",
"1212 314 OFFCURVE",
"1321 84 CURVE SMOOTH",
"1426 -141 OFFCURVE",
"1539 -244 OFFCURVE",
"1712 -244 CURVE SMOOTH"
);
}
);
width = 2015;
}
);
note = u182B_1827.ini;
},
{
glyphname = u182A_1827.ini;
lastChange = "2016-11-10 17:40:46 +0000";
layers = (
{
layerId = "ECD52525-6592-4E14-BB2F-A163A2F4C2CC";
paths = (
{
closed = 1;
nodes = (
"1834 -244 OFFCURVE",
"1896 -218 OFFCURVE",
"1925 -174 CURVE",
"1925 12 LINE",
"1887 -45 OFFCURVE",
"1831 -74 OFFCURVE",
"1757 -74 CURVE SMOOTH",
"1657 -74 OFFCURVE",
"1574 26 OFFCURVE",
"1486 217 CURVE SMOOTH",
"1397 408 OFFCURVE",
"1342 588 OFFCURVE",
"1313 745 CURVE",
"2122 745 LINE",
"2122 909 LINE",
"1282 909 LINE",
"1201 1370 OFFCURVE",
"1023 1602 OFFCURVE",
"676 1602 CURVE SMOOTH",
"313 1602 OFFCURVE",
"92 1315 OFFCURVE",
"92 836 CURVE SMOOTH",
"92 329 OFFCURVE",
"244 82 OFFCURVE",
"553 82 CURVE SMOOTH",
"624 82 OFFCURVE",
"688 102 OFFCURVE",
"745 142 CURVE SMOOTH",
"857 221 OFFCURVE",
"924 376 OFFCURVE",
"924 563 CURVE SMOOTH",
"924 647 OFFCURVE",
"902 826 OFFCURVE",
"877 909 CURVE",
"254 909 LINE",
"259 1233 OFFCURVE",
"419 1432 OFFCURVE",
"676 1432 CURVE SMOOTH",
"929 1432 OFFCURVE",
"1061 1264 OFFCURVE",
"1130 856 CURVE SMOOTH",
"1179 571 OFFCURVE",
"1257 314 OFFCURVE",
"1366 84 CURVE SMOOTH",
"1471 -141 OFFCURVE",
"1584 -244 OFFCURVE",
"1757 -244 CURVE SMOOTH"
);
},
{
closed = 1;
nodes = (
"355 252 OFFCURVE",
"259 416 OFFCURVE",
"254 745 CURVE",
"741 745 LINE",
"755 707 OFFCURVE",
"762 646 OFFCURVE",
"762 563 CURVE SMOOTH",
"762 356 OFFCURVE",
"669 252 OFFCURVE",
"541 252 CURVE SMOOTH"
);
}
);
width = 2060;
}
);
note = u182A_1827.ini;
},
{
glyphname = u1802;
lastChange = "2016-11-10 17:40:46 +0000";
layers = (
{
layerId = "ECD52525-6592-4E14-BB2F-A163A2F4C2CC";
paths = (
{
closed = 1;
nodes = (
"729 694 OFFCURVE",
"786 735 OFFCURVE",
"786 834 CURVE SMOOTH",
"786 934 OFFCURVE",
"729 971 OFFCURVE",
"657 971 CURVE SMOOTH",
"586 971 OFFCURVE",
"532 934 OFFCURVE",
"532 834 CURVE SMOOTH",
"532 735 OFFCURVE",
"586 694 OFFCURVE",
"657 694 CURVE SMOOTH"
);
}
);
width = 786;
}
);
note = u1802;
unicode = 1802;
},
{
glyphname = u1839_1820.ini;
lastChange = "2016-11-10 17:40:46 +0000";
layers = (
{
layerId = "ECD52525-6592-4E14-BB2F-A163A2F4C2CC";
paths = (
{
closed = 1;
nodes = (
"592 -373 LINE",
"540 -303 OFFCURVE",
"514 -222 OFFCURVE",
"514 -129 CURVE SMOOTH",
"514 -51 OFFCURVE",
"528 19 OFFCURVE",
"555 82 CURVE",
"625 82 OFFCURVE",
"688 102 OFFCURVE",
"745 142 CURVE SMOOTH",
"857 221 OFFCURVE",
"924 376 OFFCURVE",
"924 563 CURVE SMOOTH",
"924 647 OFFCURVE",
"902 826 OFFCURVE",
"877 909 CURVE",
"254 909 LINE",
"259 1229 OFFCURVE",
"433 1432 OFFCURVE",
"721 1432 CURVE SMOOTH",
"1010 1432 OFFCURVE",
"1153 1201 OFFCURVE",
"1186 745 CURVE SMOOTH",
"1225 197 LINE",
"1360 197 LINE",
"1399 745 LINE",
"1829 745 LINE",
"1829 909 LINE",
"1335 909 LINE",
"1275 1354 OFFCURVE",
"1061 1602 OFFCURVE",
"721 1602 CURVE SMOOTH",
"330 1602 OFFCURVE",
"92 1316 OFFCURVE",
"92 836 CURVE SMOOTH",
"92 413 OFFCURVE",
"196 171 OFFCURVE",
"412 102 CURVE",
"368 28 OFFCURVE",
"346 -50 OFFCURVE",
"346 -131 CURVE SMOOTH",
"346 -231 OFFCURVE",
"367 -312 OFFCURVE",
"408 -373 CURVE"
);
},
{
closed = 1;
nodes = (
"355 252 OFFCURVE",
"259 416 OFFCURVE",
"254 745 CURVE",
"741 745 LINE",
"755 707 OFFCURVE",
"762 646 OFFCURVE",
"762 563 CURVE SMOOTH",
"762 356 OFFCURVE",
"669 252 OFFCURVE",
"541 252 CURVE SMOOTH"
);
}
);
width = 1767;
}
);
note = u1839_1820.ini;
},
{
glyphname = u1839_1822.ini;
lastChange = "2016-11-10 17:40:46 +0000";
layers = (
{
layerId = "ECD52525-6592-4E14-BB2F-A163A2F4C2CC";
paths = (
{
closed = 1;
nodes = (
"592 -373 LINE",
"540 -303 OFFCURVE",
"514 -222 OFFCURVE",
"514 -129 CURVE SMOOTH",
"514 -51 OFFCURVE",
"528 19 OFFCURVE",
"555 82 CURVE",
"625 82 OFFCURVE",
"688 102 OFFCURVE",
"745 142 CURVE SMOOTH",
"857 221 OFFCURVE",
"924 376 OFFCURVE",
"924 563 CURVE SMOOTH",
"924 647 OFFCURVE",
"902 826 OFFCURVE",
"877 909 CURVE",
"254 909 LINE",
"259 1233 OFFCURVE",
"419 1432 OFFCURVE",
"676 1432 CURVE SMOOTH",
"929 1432 OFFCURVE",
"1061 1264 OFFCURVE",
"1130 856 CURVE SMOOTH",
"1189 513 OFFCURVE",
"1266 295 OFFCURVE",
"1493 -137 CURVE",
"1642 -63 LINE",
"1479 232 OFFCURVE",
"1368 488 OFFCURVE",
"1315 745 CURVE",
"1939 745 LINE",
"1939 909 LINE",
"1284 909 LINE",
"1195 1401 OFFCURVE",
"1008 1602 OFFCURVE",
"676 1602 CURVE SMOOTH",
"313 1602 OFFCURVE",
"92 1315 OFFCURVE",
"92 836 CURVE SMOOTH",
"92 413 OFFCURVE",
"196 171 OFFCURVE",
"412 102 CURVE",
"368 28 OFFCURVE",
"346 -50 OFFCURVE",
"346 -131 CURVE SMOOTH",
"346 -231 OFFCURVE",
"367 -312 OFFCURVE",
"408 -373 CURVE"
);
},
{
closed = 1;
nodes = (
"355 252 OFFCURVE",
"259 416 OFFCURVE",
"254 745 CURVE",
"741 745 LINE",
"755 707 OFFCURVE",
"762 646 OFFCURVE",
"762 563 CURVE SMOOTH",
"762 356 OFFCURVE",
"669 252 OFFCURVE",
"541 252 CURVE SMOOTH"
);
}
);
width = 1878;
}
);
note = u1839_1822.ini;
},
{
glyphname = u183A;
lastChange = "2016-11-10 17:40:46 +0000";
layers = (
{
layerId = "ECD52525-6592-4E14-BB2F-A163A2F4C2CC";
paths = (
{
closed = 1;
nodes = (
"627 184 LINE",
"371 460 OFFCURVE",
"254 673 OFFCURVE",
"254 858 CURVE SMOOTH",
"254 1173 OFFCURVE",
"373 1319 OFFCURVE",
"561 1319 CURVE SMOOTH",
"744 1319 OFFCURVE",
"850 1174 OFFCURVE",
"874 838 CURVE",
"1036 858 LINE",
"1007 1259 OFFCURVE",
"842 1489 OFFCURVE",
"561 1489 CURVE SMOOTH",
"273 1489 OFFCURVE",
"92 1247 OFFCURVE",
"92 858 CURVE SMOOTH",
"92 197 LINE",
"227 197 LINE",
"244 440 LINE",
"300 322 OFFCURVE",
"385 199 OFFCURVE",
"500 72 CURVE"
);
}
);
width = 1128;
}
);
note = u183A;
unicode = 183A;
},
{
glyphname = u183A.ini;
lastChange = "2016-11-10 17:40:46 +0000";
layers = (
{
layerId = "ECD52525-6592-4E14-BB2F-A163A2F4C2CC";
paths = (
{
closed = 1;
nodes = (
"627 184 LINE",
"371 460 OFFCURVE",
"254 673 OFFCURVE",
"254 858 CURVE SMOOTH",
"254 1173 OFFCURVE",
"373 1319 OFFCURVE",
"561 1319 CURVE SMOOTH",
"666 1319 OFFCURVE",
"741 1278 OFFCURVE",
"788 1195 CURVE SMOOTH",
"834 1112 OFFCURVE",
"864 962 OFFCURVE",
"879 745 CURVE",
"1030 745 LINE",
"1010 1250 OFFCURVE",
"865 1489 OFFCURVE",
"561 1489 CURVE SMOOTH",
"273 1489 OFFCURVE",
"92 1247 OFFCURVE",
"92 858 CURVE SMOOTH",
"92 197 LINE",
"227 197 LINE",
"244 440 LINE",
"300 322 OFFCURVE",
"385 199 OFFCURVE",
"500 72 CURVE"
);
}
);
width = 879;
}
);
note = u183A.ini;
},
{
glyphname = u1836;
lastChange = "2016-11-10 17:40:46 +0000";
layers = (
{
layerId = "ECD52525-6592-4E14-BB2F-A163A2F4C2CC";
paths = (
{
closed = 1;
nodes = (
"300 -208 OFFCURVE",
"496 -73 OFFCURVE",
"600 -14 CURVE",
"472 223 OFFCURVE",
"338 546 OFFCURVE",
"283 745 CURVE",
"924 745 LINE",
"924 909 LINE",
"92 909 LINE",
"141 614 OFFCURVE",
"258 298 OFFCURVE",
"381 51 CURVE",
"310 -8 OFFCURVE",
"243 -73 OFFCURVE",
"178 -143 CURVE",
"256 -244 LINE"
);
}
);
width = 1016;
}
);
note = u1836;
unicode = 1836;
},
{
glyphname = u1836.med;
lastChange = "2016-11-10 17:40:46 +0000";
layers = (
{
layerId = "ECD52525-6592-4E14-BB2F-A163A2F4C2CC";
paths = (
{
closed = 1;
nodes = (
"177 -208 OFFCURVE",
"373 -73 OFFCURVE",
"477 -14 CURVE",
"349 223 OFFCURVE",
"215 546 OFFCURVE",
"160 745 CURVE",
"801 745 LINE",
"801 909 LINE",
"0 909 LINE",
"0 745 LINE",
"60 516 OFFCURVE",
"146 285 OFFCURVE",
"258 51 CURVE",
"187 -8 OFFCURVE",
"120 -73 OFFCURVE",
"55 -143 CURVE",
"133 -244 LINE"
);
}
);
width = 739;
}
);
note = u1836.med;
},
{
glyphname = u1842;
lastChange = "2016-11-10 17:40:46 +0000";
layers = (
{
layerId = "ECD52525-6592-4E14-BB2F-A163A2F4C2CC";
paths = (
{
closed = 1;
nodes = (
"753 82 OFFCURVE",
"901 249 OFFCURVE",
"901 510 CURVE SMOOTH",
"901 603 OFFCURVE",
"887 681 OFFCURVE",
"860 745 CURVE",
"1124 745 LINE",
"1097 678 OFFCURVE",
"1083 600 OFFCURVE",
"1083 510 CURVE SMOOTH",
"1083 226 OFFCURVE",
"1238 82 OFFCURVE",
"1487 82 CURVE SMOOTH",
"1744 82 OFFCURVE",
"1892 249 OFFCURVE",
"1892 510 CURVE SMOOTH",
"1892 603 OFFCURVE",
"1877 681 OFFCURVE",
"1847 745 CURVE",
"2318 745 LINE",
"2318 909 LINE",
"184 909 LINE",
"121 802 OFFCURVE",
"92 688 OFFCURVE",
"92 532 CURVE SMOOTH",
"92 232 OFFCURVE",
"247 82 OFFCURVE",
"496 82 CURVE SMOOTH"
);
},
{
closed = 1;
nodes = (
"335 252 OFFCURVE",
"254 347 OFFCURVE",
"254 537 CURVE SMOOTH",
"254 620 OFFCURVE",
"268 689 OFFCURVE",
"295 745 CURVE",
"698 745 LINE",
"725 682 OFFCURVE",
"739 605 OFFCURVE",
"739 514 CURVE SMOOTH",
"739 339 OFFCURVE",
"645 252 OFFCURVE",
"496 252 CURVE SMOOTH"
);
},
{
closed = 1;
nodes = (
"1326 252 OFFCURVE",
"1245 339 OFFCURVE",
"1245 514 CURVE SMOOTH",
"1245 602 OFFCURVE",
"1259 679 OFFCURVE",
"1286 745 CURVE",
"1690 745 LINE",
"1717 679 OFFCURVE",
"1731 602 OFFCURVE",
"1731 514 CURVE SMOOTH",
"1731 339 OFFCURVE",
"1636 252 OFFCURVE",
"1487 252 CURVE SMOOTH"
);
}
);
width = 2410;
}
);
note = u1842;
unicode = 1842;
},
{
glyphname = u1842.fin;
lastChange = "2016-11-10 17:40:46 +0000";
layers = (
{
layerId = "ECD52525-6592-4E14-BB2F-A163A2F4C2CC";
paths = (
{
closed = 1;
nodes = (
"662 82 OFFCURVE",
"809 249 OFFCURVE",
"809 510 CURVE SMOOTH",
"809 600 OFFCURVE",
"794 678 OFFCURVE",
"764 745 CURVE",
"1032 745 LINE",
"1005 678 OFFCURVE",
"991 600 OFFCURVE",
"991 510 CURVE SMOOTH",
"991 226 OFFCURVE",
"1146 82 OFFCURVE",
"1395 82 CURVE SMOOTH",
"1652 82 OFFCURVE",
"1800 249 OFFCURVE",
"1800 510 CURVE SMOOTH",
"1800 603 OFFCURVE",
"1785 681 OFFCURVE",
"1755 745 CURVE",
"2021 745 LINE",
"2021 909 LINE",
"0 909 LINE",
"0 745 LINE",
"41 745 LINE",
"14 681 OFFCURVE",
"0 603 OFFCURVE",
"0 510 CURVE SMOOTH",
"0 226 OFFCURVE",
"155 82 OFFCURVE",
"403 82 CURVE SMOOTH"
);
},
{
closed = 1;
nodes = (
"242 252 OFFCURVE",
"162 339 OFFCURVE",
"162 514 CURVE SMOOTH",
"162 605 OFFCURVE",
"176 682 OFFCURVE",
"203 745 CURVE",
"606 745 LINE",
"633 682 OFFCURVE",
"647 605 OFFCURVE",
"647 514 CURVE SMOOTH",
"647 339 OFFCURVE",
"554 252 OFFCURVE",
"403 252 CURVE SMOOTH"
);
},
{
closed = 1;
nodes = (
"1234 252 OFFCURVE",
"1153 339 OFFCURVE",
"1153 514 CURVE SMOOTH",
"1153 605 OFFCURVE",
"1167 682 OFFCURVE",
"1194 745 CURVE",
"1597 745 LINE",
"1624 682 OFFCURVE",
"1638 605 OFFCURVE",
"1638 514 CURVE SMOOTH",
"1638 339 OFFCURVE",
"1544 252 OFFCURVE",
"1395 252 CURVE SMOOTH"
);
}
);
width = 2114;
}
);
note = u1842.fin;
},
{
glyphname = u1842.med;
lastChange = "2016-11-10 17:40:46 +0000";
layers = (
{
layerId = "ECD52525-6592-4E14-BB2F-A163A2F4C2CC";
paths = (
{
closed = 1;
nodes = (
"662 82 OFFCURVE",
"809 249 OFFCURVE",
"809 510 CURVE SMOOTH",
"809 600 OFFCURVE",
"794 678 OFFCURVE",
"764 745 CURVE",
"1032 745 LINE",
"1005 678 OFFCURVE",
"991 600 OFFCURVE",
"991 510 CURVE SMOOTH",
"991 226 OFFCURVE",
"1146 82 OFFCURVE",
"1395 82 CURVE SMOOTH",
"1652 82 OFFCURVE",
"1800 249 OFFCURVE",
"1800 510 CURVE SMOOTH",
"1800 603 OFFCURVE",
"1785 681 OFFCURVE",
"1755 745 CURVE",
"2226 745 LINE",
"2226 909 LINE",
"0 909 LINE",
"0 745 LINE",
"41 745 LINE",
"14 681 OFFCURVE",
"0 603 OFFCURVE",
"0 510 CURVE SMOOTH",
"0 226 OFFCURVE",
"155 82 OFFCURVE",
"403 82 CURVE SMOOTH"
);
},
{
closed = 1;
nodes = (
"242 252 OFFCURVE",
"162 339 OFFCURVE",
"162 514 CURVE SMOOTH",
"162 605 OFFCURVE",
"176 682 OFFCURVE",
"203 745 CURVE",
"606 745 LINE",
"633 682 OFFCURVE",
"647 605 OFFCURVE",
"647 514 CURVE SMOOTH",
"647 339 OFFCURVE",
"554 252 OFFCURVE",
"403 252 CURVE SMOOTH"
);
},
{
closed = 1;
nodes = (
"1234 252 OFFCURVE",
"1153 339 OFFCURVE",
"1153 514 CURVE SMOOTH",
"1153 605 OFFCURVE",
"1167 682 OFFCURVE",
"1194 745 CURVE",
"1597 745 LINE",
"1624 682 OFFCURVE",
"1638 605 OFFCURVE",
"1638 514 CURVE SMOOTH",
"1638 339 OFFCURVE",
"1544 252 OFFCURVE",
"1395 252 CURVE SMOOTH"
);
}
);
width = 2165;
}
);
note = u1842.med;
},
{
glyphname = u1841.fin;
lastChange = "2016-11-10 17:40:46 +0000";
layers = (
{
layerId = "ECD52525-6592-4E14-BB2F-A163A2F4C2CC";
paths = (
{
closed = 1;
nodes = (
"838 -117 LINE",
"685 167 OFFCURVE",
"609 440 OFFCURVE",
"604 745 CURVE",
"924 745 LINE",
"924 909 LINE",
"449 909 LINE",
"449 750 LINE SMOOTH",
"449 451 OFFCURVE",
"506 190 OFFCURVE",
"621 -35 CURVE",
"367 -147 LINE",
"211 145 OFFCURVE",
"154 404 OFFCURVE",
"154 745 CURVE SMOOTH",
"154 909 LINE",
"0 909 LINE",
"0 745 LINE SMOOTH",
"0 353 OFFCURVE",
"84 -1 OFFCURVE",
"287 -373 CURVE"
);
}
);
width = 1016;
}
);
note = u1841.fin;
},
{
glyphname = u182A.fin;
lastChange = "2016-11-10 17:40:46 +0000";
layers = (
{
layerId = "ECD52525-6592-4E14-BB2F-A163A2F4C2CC";
paths = (
{
closed = 1;
nodes = (
"981 -541 LINE",
"952 -488 OFFCURVE",
"938 -436 OFFCURVE",
"938 -383 CURVE SMOOTH",
"938 -251 OFFCURVE",
"971 -185 OFFCURVE",
"1098 -14 CURVE SMOOTH",
"1335 301 OFFCURVE",
"1438 524 OFFCURVE",
"1438 795 CURVE SMOOTH",
"1438 959 OFFCURVE",
"1410 1102 OFFCURVE",
"1353 1224 CURVE SMOOTH",
"1239 1467 OFFCURVE",
"1010 1602 OFFCURVE",
"705 1602 CURVE SMOOTH",
"268 1602 OFFCURVE",
"-2 1319 OFFCURVE",
"-2 836 CURVE SMOOTH",
"-2 335 OFFCURVE",
"145 82 OFFCURVE",
"461 82 CURVE SMOOTH",
"532 82 OFFCURVE",
"595 102 OFFCURVE",
"651 142 CURVE SMOOTH",
"763 222 OFFCURVE",
"829 375 OFFCURVE",
"829 563 CURVE SMOOTH",
"829 660 OFFCURVE",
"807 833 OFFCURVE",
"782 909 CURVE",
"160 909 LINE",
"167 1237 OFFCURVE",
"372 1432 OFFCURVE",
"705 1432 CURVE SMOOTH",
"826 1432 OFFCURVE",
"930 1407 OFFCURVE",
"1016 1356 CURVE SMOOTH",
"1187 1255 OFFCURVE",
"1276 1059 OFFCURVE",
"1276 795 CURVE SMOOTH",
"1276 555 OFFCURVE",
"1215 402 OFFCURVE",
"991 102 CURVE SMOOTH",
"834 -106 OFFCURVE",
"774 -224 OFFCURVE",
"774 -383 CURVE SMOOTH",
"774 -438 OFFCURVE",
"787 -490 OFFCURVE",
"813 -541 CURVE"
);
},
{
closed = 1;
nodes = (
"261 252 OFFCURVE",
"165 416 OFFCURVE",
"160 745 CURVE",
"647 745 LINE",
"661 703 OFFCURVE",
"668 642 OFFCURVE",
"668 563 CURVE SMOOTH",
"668 356 OFFCURVE",
"575 252 OFFCURVE",
"446 252 CURVE SMOOTH"
);
}
);
width = 1530;
}
);
note = u182A.fin;
},
{
glyphname = u182B.fin;
lastChange = "2016-11-10 17:40:46 +0000";
layers = (
{
layerId = "ECD52525-6592-4E14-BB2F-A163A2F4C2CC";
paths = (
{
closed = 1;
nodes = (
"915 -541 LINE",
"886 -488 OFFCURVE",
"872 -436 OFFCURVE",
"872 -383 CURVE SMOOTH",
"872 -255 OFFCURVE",
"909 -181 OFFCURVE",
"1032 -14 CURVE SMOOTH",
"1271 299 OFFCURVE",
"1372 524 OFFCURVE",
"1372 795 CURVE SMOOTH",
"1372 958 OFFCURVE",
"1344 1101 OFFCURVE",
"1289 1223 CURVE SMOOTH",
"1178 1466 OFFCURVE",
"959 1602 OFFCURVE",
"659 1602 CURVE SMOOTH",
"524 1602 OFFCURVE",
"407 1571 OFFCURVE",
"307 1510 CURVE SMOOTH",
"107 1387 OFFCURVE",
"0 1151 OFFCURVE",
"0 836 CURVE SMOOTH",
"0 745 LINE",
"582 745 LINE",
"595 705 OFFCURVE",
"602 644 OFFCURVE",
"602 563 CURVE SMOOTH",
"602 399 OFFCURVE",
"509 313 OFFCURVE",
"381 313 CURVE SMOOTH",
"197 313 OFFCURVE",
"110 299 OFFCURVE",
"33 250 CURVE",
"33 86 LINE",
"130 138 OFFCURVE",
"238 150 OFFCURVE",
"381 150 CURVE SMOOTH",
"605 150 OFFCURVE",
"764 311 OFFCURVE",
"764 563 CURVE SMOOTH",
"764 679 OFFCURVE",
"750 794 OFFCURVE",
"721 909 CURVE",
"162 909 LINE",
"169 1232 OFFCURVE",
"354 1432 OFFCURVE",
"659 1432 CURVE SMOOTH",
"1011 1432 OFFCURVE",
"1210 1202 OFFCURVE",
"1210 795 CURVE SMOOTH",
"1210 548 OFFCURVE",
"1142 391 OFFCURVE",
"926 102 CURVE SMOOTH",
"773 -98 OFFCURVE",
"709 -219 OFFCURVE",
"709 -383 CURVE SMOOTH",
"709 -445 OFFCURVE",
"722 -498 OFFCURVE",
"748 -541 CURVE"
);
}
);
width = 1464;
}
);
note = u182B.fin;
},
{
glyphname = u183A.fin;
lastChange = "2016-11-10 17:40:46 +0000";
layers = (
{
layerId = "ECD52525-6592-4E14-BB2F-A163A2F4C2CC";
paths = (
{
closed = 1;
nodes = (
"698 -541 LINE",
"669 -488 OFFCURVE",
"655 -436 OFFCURVE",
"655 -383 CURVE SMOOTH",
"655 -260 OFFCURVE",
"696 -175 OFFCURVE",
"825 -14 CURVE SMOOTH",
"912 95 OFFCURVE",
"981 193 OFFCURVE",
"1032 281 CURVE SMOOTH",
"1135 457 OFFCURVE",
"1178 603 OFFCURVE",
"1178 795 CURVE SMOOTH",
"1178 1227 OFFCURVE",
"951 1489 OFFCURVE",
"582 1489 CURVE SMOOTH",
"466 1489 OFFCURVE",
"364 1464 OFFCURVE",
"276 1414 CURVE SMOOTH",
"99 1314 OFFCURVE",
"0 1118 OFFCURVE",
"0 858 CURVE SMOOTH",
"0 197 LINE",
"135 197 LINE",
"152 440 LINE",
"193 350 OFFCURVE",
"256 253 OFFCURVE",
"340 150 CURVE",
"467 262 LINE",
"242 525 OFFCURVE",
"162 702 OFFCURVE",
"162 858 CURVE SMOOTH",
"162 1170 OFFCURVE",
"327 1319 OFFCURVE",
"582 1319 CURVE SMOOTH",
"847 1319 OFFCURVE",
"1018 1126 OFFCURVE",
"1018 795 CURVE SMOOTH",
"1018 707 OFFCURVE",
"1009 630 OFFCURVE",
"990 564 CURVE SMOOTH",
"953 432 OFFCURVE",
"874 299 OFFCURVE",
"717 102 CURVE SMOOTH",
"545 -109 OFFCURVE",
"492 -218 OFFCURVE",
"492 -383 CURVE SMOOTH",
"492 -439 OFFCURVE",
"505 -492 OFFCURVE",
"530 -541 CURVE"
);
}
);
width = 1270;
}
);
note = u183A.fin;
},
{
glyphname = u1843.med;
lastChange = "2016-11-10 17:37:31 +0000";
layers = (
{
layerId = "ECD52525-6592-4E14-BB2F-A163A2F4C2CC";
paths = (
{
closed = 1;
nodes = (
"227 745 LINE",
"227 909 LINE",
"133 909 LINE",
"180 1294 LINE",
"0 1294 LINE",
"45 909 LINE",
"0 909 LINE",
"0 745 LINE"
);
}
);
width = 166;
}
);
note = u1843.med;
},
{
glyphname = u1843.fin;
lastChange = "2016-11-10 17:40:46 +0000";
layers = (
{
layerId = "ECD52525-6592-4E14-BB2F-A163A2F4C2CC";
paths = (
{
closed = 1;
nodes = (
"348 -541 LINE",
"319 -488 OFFCURVE",
"305 -436 OFFCURVE",
"305 -383 CURVE SMOOTH",
"305 -340 OFFCURVE",
"309 -305 OFFCURVE",
"317 -278 CURVE SMOOTH",
"332 -224 OFFCURVE",
"369 -158 OFFCURVE",
"442 -63 CURVE SMOOTH",
"650 205 OFFCURVE",
"715 351 OFFCURVE",
"715 502 CURVE SMOOTH",
"715 763 OFFCURVE",
"555 909 OFFCURVE",
"242 909 CURVE SMOOTH",
"133 909 LINE",
"180 1294 LINE",
"0 1294 LINE",
"45 909 LINE",
"0 909 LINE",
"0 745 LINE",
"240 745 LINE SMOOTH",
"457 745 OFFCURVE",
"555 666 OFFCURVE",
"555 502 CURVE SMOOTH",
"555 457 OFFCURVE",
"549 417 OFFCURVE",
"537 381 CURVE SMOOTH",
"513 309 OFFCURVE",
"451 208 OFFCURVE",
"336 57 CURVE SMOOTH",
"193 -132 OFFCURVE",
"141 -252 OFFCURVE",
"141 -383 CURVE SMOOTH",
"141 -443 OFFCURVE",
"154 -496 OFFCURVE",
"180 -541 CURVE"
);
}
);
width = 817;
}
);
note = u1843.fin;
},
{
glyphname = u1845.med;
lastChange = "2016-11-10 17:40:46 +0000";
layers = (
{
layerId = "ECD52525-6592-4E14-BB2F-A163A2F4C2CC";
paths = (
{
closed = 1;
nodes = (
"864 188 LINE",
"827 221 OFFCURVE",
"750 244 OFFCURVE",
"649 244 CURVE SMOOTH",
"590 244 LINE",
"590 745 LINE",
"1176 745 LINE",
"1176 909 LINE",
"428 909 LINE",
"428 244 LINE",
"360 244 LINE SMOOTH",
"228 244 OFFCURVE",
"162 315 OFFCURVE",
"162 457 CURVE SMOOTH",
"162 909 LINE",
"0 909 LINE",
"0 457 LINE SMOOTH",
"0 202 OFFCURVE",
"120 74 OFFCURVE",
"360 74 CURVE SMOOTH",
"649 74 LINE SMOOTH",
"752 74 OFFCURVE",
"823 55 OFFCURVE",
"864 18 CURVE"
);
}
);
width = 1114;
}
);
note = u1845.med;
},
{
glyphname = u1866_1823;
lastChange = "2016-11-10 17:40:46 +0000";
layers = (
{
layerId = "ECD52525-6592-4E14-BB2F-A163A2F4C2CC";
paths = (
{
closed = 1;
nodes = (
"633 82 OFFCURVE",
"756 145 OFFCURVE",
"811 276 CURVE",
"868 145 OFFCURVE",
"971 82 OFFCURVE",
"1102 82 CURVE SMOOTH",
"1399 82 OFFCURVE",
"1540 300 OFFCURVE",
"1540 768 CURVE SMOOTH",
"1540 1236 OFFCURVE",
"1376 1501 OFFCURVE",
"1057 1501 CURVE SMOOTH",
"948 1501 OFFCURVE",
"882 1457 OFFCURVE",
"811 1372 CURVE",
"744 1458 OFFCURVE",
"659 1501 OFFCURVE",
"555 1501 CURVE SMOOTH",
"251 1501 OFFCURVE",
"92 1241 OFFCURVE",
"92 768 CURVE SMOOTH",
"92 317 OFFCURVE",
"219 82 OFFCURVE",
"510 82 CURVE SMOOTH"
);
},
{
closed = 1;
nodes = (
"447 252 OFFCURVE",
"398 268 OFFCURVE",
"362 300 CURVE SMOOTH",
"290 364 OFFCURVE",
"254 513 OFFCURVE",
"254 745 CURVE",
"735 745 LINE",
"735 586 LINE SMOOTH",
"735 362 OFFCURVE",
"641 252 OFFCURVE",
"510 252 CURVE SMOOTH"
);
},
{
closed = 1;
nodes = (
"965 252 OFFCURVE",
"897 363 OFFCURVE",
"897 586 CURVE SMOOTH",
"897 745 LINE",
"1378 745 LINE",
"1377 626 OFFCURVE",
"1367 531 OFFCURVE",
"1348 458 CURVE SMOOTH",
"1310 312 OFFCURVE",
"1239 252 OFFCURVE",
"1102 252 CURVE SMOOTH"
);
},
{
closed = 1;
nodes = (
"279 1198 OFFCURVE",
"375 1331 OFFCURVE",
"555 1331 CURVE SMOOTH",
"667 1331 OFFCURVE",
"743 1284 OFFCURVE",
"811 1169 CURVE",
"882 1284 OFFCURVE",
"948 1331 OFFCURVE",
"1057 1331 CURVE SMOOTH",
"1249 1331 OFFCURVE",
"1348 1197 OFFCURVE",
"1372 909 CURVE",
"258 909 LINE"
);
}
);
width = 1632;
}
);
note = u1866_1823;
},
{
glyphname = u1850;
lastChange = "2016-11-10 17:40:46 +0000";
layers = (
{
layerId = "ECD52525-6592-4E14-BB2F-A163A2F4C2CC";
paths = (
{
closed = 1;
nodes = (
"758 197 LINE",
"849 355 OFFCURVE",
"898 538 OFFCURVE",
"907 745 CURVE",
"1389 745 LINE",
"1389 909 LINE",
"907 909 LINE",
"899 1281 OFFCURVE",
"775 1456 OFFCURVE",
"518 1456 CURVE SMOOTH",
"435 1456 OFFCURVE",
"361 1432 OFFCURVE",
"296 1385 CURVE SMOOTH",
"166 1289 OFFCURVE",
"92 1105 OFFCURVE",
"92 860 CURVE SMOOTH",
"92 822 OFFCURVE",
"95 784 OFFCURVE",
"102 745 CURVE",
"297 614 OFFCURVE",
"454 431 OFFCURVE",
"575 197 CURVE"
);
},
{
closed = 1;
nodes = (
"552 568 OFFCURVE",
"397 734 OFFCURVE",
"258 829 CURVE",
"254 860 LINE",
"254 949 OFFCURVE",
"265 1026 OFFCURVE",
"288 1093 CURVE SMOOTH",
"332 1225 OFFCURVE",
"415 1296 OFFCURVE",
"518 1296 CURVE SMOOTH",
"598 1296 OFFCURVE",
"656 1263 OFFCURVE",
"692 1196 CURVE SMOOTH",
"727 1129 OFFCURVE",
"745 1010 OFFCURVE",
"745 838 CURVE SMOOTH",
"745 651 OFFCURVE",
"727 508 OFFCURVE",
"664 360 CURVE"
);
}
);
width = 1481;
}
);
note = u1850;
unicode = 1850;
},
{
glyphname = u1850.fin;
lastChange = "2016-11-10 17:40:46 +0000";
layers = (
{
layerId = "ECD52525-6592-4E14-BB2F-A163A2F4C2CC";
paths = (
{
closed = 1;
nodes = (
"655 197 LINE",
"746 354 OFFCURVE",
"796 536 OFFCURVE",
"805 745 CURVE",
"1237 745 LINE SMOOTH",
"1382 745 OFFCURVE",
"1438 683 OFFCURVE",
"1438 571 CURVE SMOOTH",
"1438 484 OFFCURVE",
"1423 404 OFFCURVE",
"1393 332 CURVE",
"1544 332 LINE",
"1578 404 OFFCURVE",
"1595 484 OFFCURVE",
"1595 571 CURVE SMOOTH",
"1595 796 OFFCURVE",
"1476 909 OFFCURVE",
"1237 909 CURVE SMOOTH",
"805 909 LINE",
"797 1281 OFFCURVE",
"672 1456 OFFCURVE",
"416 1456 CURVE SMOOTH",
"333 1456 OFFCURVE",
"259 1432 OFFCURVE",
"194 1384 CURVE SMOOTH",
"62 1288 OFFCURVE",
"-10 1107 OFFCURVE",
"-10 860 CURVE SMOOTH",
"-10 822 OFFCURVE",
"-7 784 OFFCURVE",
"0 745 CURVE",
"195 612 OFFCURVE",
"353 429 OFFCURVE",
"473 197 CURVE"
);
},
{
closed = 1;
nodes = (
"449 568 OFFCURVE",
"295 734 OFFCURVE",
"156 829 CURVE",
"152 860 LINE",
"152 1124 OFFCURVE",
"253 1296 OFFCURVE",
"416 1296 CURVE SMOOTH",
"497 1296 OFFCURVE",
"556 1262 OFFCURVE",
"591 1193 CURVE SMOOTH",
"626 1124 OFFCURVE",
"643 1005 OFFCURVE",
"643 838 CURVE SMOOTH",
"643 651 OFFCURVE",
"624 508 OFFCURVE",
"561 360 CURVE"
);
}
);
width = 1688;
}
);
note = u1850.fin;
},
{
glyphname = u184F;
lastChange = "2016-11-10 17:40:46 +0000";
layers = (
{
layerId = "ECD52525-6592-4E14-BB2F-A163A2F4C2CC";
paths = (
{
closed = 1;
nodes = (
"698 381 LINE SMOOTH",
"698 796 OFFCURVE",
"796 1102 OFFCURVE",
"1057 1470 CURVE",
"854 1470 LINE",
"806 1403 OFFCURVE",
"762 1332 OFFCURVE",
"723 1257 CURVE",
"668 1327 OFFCURVE",
"595 1362 OFFCURVE",
"504 1362 CURVE SMOOTH",
"427 1362 OFFCURVE",
"358 1341 OFFCURVE",
"295 1298 CURVE SMOOTH",
"169 1212 OFFCURVE",
"92 1047 OFFCURVE",
"92 838 CURVE SMOOTH",
"92 709 OFFCURVE",
"118 592 OFFCURVE",
"169 489 CURVE SMOOTH",
"272 281 OFFCURVE",
"466 159 OFFCURVE",
"698 152 CURVE"
);
},
{
closed = 1;
nodes = (
"342 446 OFFCURVE",
"244 619 OFFCURVE",
"244 838 CURVE SMOOTH",
"244 1081 OFFCURVE",
"356 1214 OFFCURVE",
"504 1214 CURVE SMOOTH",
"571 1214 OFFCURVE",
"624 1183 OFFCURVE",
"664 1122 CURVE",
"579 909 OFFCURVE",
"537 660 OFFCURVE",
"537 375 CURVE"
);
}
);
width = 1077;
}
);
note = u184F;
unicode = 184F;
},
{
glyphname = u1853.med;
lastChange = "2016-11-10 17:40:46 +0000";
layers = (
{
layerId = "ECD52525-6592-4E14-BB2F-A163A2F4C2CC";
paths = (
{
closed = 1;
nodes = (
"729 -182 LINE",
"645 -118 OFFCURVE",
"544 -102 OFFCURVE",
"360 -102 CURVE SMOOTH",
"317 -102 LINE SMOOTH",
"202 -102 OFFCURVE",
"145 -52 OFFCURVE",
"145 25 CURVE SMOOTH",
"145 112 OFFCURVE",
"197 166 OFFCURVE",
"369 166 CURVE SMOOTH",
"729 166 LINE",
"729 291 LINE",
"673 444 OFFCURVE",
"645 595 OFFCURVE",
"645 745 CURVE",
"1147 745 LINE",
"1147 909 LINE",
"0 909 LINE",
"0 745 LINE",
"494 745 LINE",
"494 592 OFFCURVE",
"513 453 OFFCURVE",
"551 330 CURVE",
"369 330 LINE SMOOTH",
"122 330 OFFCURVE",
"0 221 OFFCURVE",
"0 25 CURVE SMOOTH",
"0 -164 OFFCURVE",
"105 -266 OFFCURVE",
"317 -266 CURVE SMOOTH",
"360 -266 LINE SMOOTH",
"567 -266 OFFCURVE",
"642 -293 OFFCURVE",
"729 -360 CURVE"
);
}
);
width = 1085;
}
);
note = u1853.med;
},
{
glyphname = u1853;
lastChange = "2016-11-10 17:40:46 +0000";
layers = (
{
layerId = "ECD52525-6592-4E14-BB2F-A163A2F4C2CC";
paths = (
{
closed = 1;
nodes = (
"1061 -182 LINE",
"977 -118 OFFCURVE",
"876 -102 OFFCURVE",
"692 -102 CURVE SMOOTH",
"649 -102 LINE SMOOTH",
"534 -102 OFFCURVE",
"477 -52 OFFCURVE",
"477 25 CURVE SMOOTH",
"477 112 OFFCURVE",
"528 166 OFFCURVE",
"700 166 CURVE SMOOTH",
"1061 166 LINE",
"1061 291 LINE",
"1005 444 OFFCURVE",
"977 595 OFFCURVE",
"977 745 CURVE",
"1479 745 LINE",
"1479 909 LINE",
"129 909 LINE",
"92 745 LINE",
"825 745 LINE",
"825 592 OFFCURVE",
"844 454 OFFCURVE",
"883 330 CURVE",
"700 330 LINE SMOOTH",
"455 330 OFFCURVE",
"332 221 OFFCURVE",
"332 25 CURVE SMOOTH",
"332 -169 OFFCURVE",
"438 -266 OFFCURVE",
"649 -266 CURVE SMOOTH",
"692 -266 LINE SMOOTH",
"899 -266 OFFCURVE",
"974 -293 OFFCURVE",
"1061 -360 CURVE"
);
}
);
width = 1571;
}
);
note = u1853;
unicode = 1853;
},
{
glyphname = u1846.fin;
lastChange = "2016-11-10 17:40:46 +0000";
layers = (
{
layerId = "ECD52525-6592-4E14-BB2F-A163A2F4C2CC";
paths = (
{
closed = 1;
nodes = (
"774 909 LINE",
"0 909 LINE",
"0 547 LINE SMOOTH",
"0 315 OFFCURVE",
"117 151 OFFCURVE",
"360 96 CURVE SMOOTH",
"774 6 LINE"
);
},
{
closed = 1;
nodes = (
"406 260 LINE SMOOTH",
"242 299 OFFCURVE",
"162 402 OFFCURVE",
"162 547 CURVE SMOOTH",
"162 745 LINE",
"614 745 LINE",
"614 213 LINE"
);
}
);
width = 866;
}
);
note = u1846.fin;
},
{
glyphname = u1846.med;
lastChange = "2016-11-10 17:40:46 +0000";
layers = (
{
layerId = "ECD52525-6592-4E14-BB2F-A163A2F4C2CC";
paths = (
{
closed = 1;
nodes = (
"774 745 LINE",
"1208 745 LINE",
"1208 909 LINE",
"0 909 LINE",
"0 547 LINE SMOOTH",
"0 315 OFFCURVE",
"117 151 OFFCURVE",
"360 96 CURVE SMOOTH",
"774 6 LINE"
);
},
{
closed = 1;
nodes = (
"406 260 LINE SMOOTH",
"242 299 OFFCURVE",
"162 402 OFFCURVE",
"162 547 CURVE SMOOTH",
"162 745 LINE",
"614 745 LINE",
"614 213 LINE"
);
}
);
width = 1147;
}
);
note = u1846.med;
},
{
glyphname = u184C.ini;
lastChange = "2016-11-10 17:40:46 +0000";
layers = (
{
layerId = "ECD52525-6592-4E14-BB2F-A163A2F4C2CC";
paths = (
{
closed = 1;
nodes = (
"829 129 LINE",
"671 406 OFFCURVE",
"592 656 OFFCURVE",
"592 881 CURVE SMOOTH",
"592 1178 OFFCURVE",
"711 1319 OFFCURVE",
"899 1319 CURVE SMOOTH",
"1002 1319 OFFCURVE",
"1078 1278 OFFCURVE",
"1125 1196 CURVE SMOOTH",
"1172 1113 OFFCURVE",
"1202 963 OFFCURVE",
"1217 745 CURVE",
"1368 745 LINE",
"1348 1250 OFFCURVE",
"1203 1489 OFFCURVE",
"899 1489 CURVE SMOOTH",
"808 1489 OFFCURVE",
"727 1466 OFFCURVE",
"657 1420 CURVE SMOOTH",
"516 1327 OFFCURVE",
"433 1144 OFFCURVE",
"430 909 CURVE",
"238 909 LINE",
"238 1456 LINE",
"92 1456 LINE",
"92 129 LINE"
);
},
{
closed = 1;
nodes = (
"238 745 LINE",
"436 745 LINE",
"453 600 OFFCURVE",
"496 451 OFFCURVE",
"565 299 CURVE",
"238 299 LINE"
);
}
);
width = 1217;
}
);
note = u184C.ini;
},
{
glyphname = u1822;
lastChange = "2016-11-10 17:40:46 +0000";
layers = (
{
layerId = "ECD52525-6592-4E14-BB2F-A163A2F4C2CC";
paths = (
{
closed = 1;
nodes = (
"1415 174 LINE",
"1247 406 OFFCURVE",
"1165 609 OFFCURVE",
"1165 834 CURVE SMOOTH",
"1165 1114 OFFCURVE",
"1282 1247 OFFCURVE",
"1470 1247 CURVE SMOOTH",
"1651 1247 OFFCURVE",
"1755 1075 OFFCURVE",
"1778 770 CURVE",
"1942 791 LINE",
"1915 1194 OFFCURVE",
"1746 1417 OFFCURVE",
"1470 1417 CURVE SMOOTH",
"1206 1417 OFFCURVE",
"1030 1237 OFFCURVE",
"1006 909 CURVE",
"909 909 LINE SMOOTH",
"738 909 OFFCURVE",
"629 852 OFFCURVE",
"584 739 CURVE",
"575 739 LINE",
"569 911 LINE SMOOTH",
"560 1215 OFFCURVE",
"486 1337 OFFCURVE",
"285 1337 CURVE SMOOTH",
"204 1337 OFFCURVE",
"116 1317 OFFCURVE",
"20 1276 CURVE",
"20 1126 LINE",
"106 1161 OFFCURVE",
"180 1178 OFFCURVE",
"242 1178 CURVE SMOOTH",
"354 1178 OFFCURVE",
"395 1100 OFFCURVE",
"410 895 CURVE SMOOTH",
"463 152 LINE",
"598 152 LINE",
"618 449 LINE SMOOTH",
"624 532 OFFCURVE",
"636 593 OFFCURVE",
"655 634 CURVE SMOOTH",
"692 714 OFFCURVE",
"756 745 OFFCURVE",
"911 745 CURVE SMOOTH",
"1008 745 LINE",
"1027 532 OFFCURVE",
"1114 312 OFFCURVE",
"1268 86 CURVE"
);
}
);
width = 2034;
}
);
note = u1822;
unicode = 1822;
},
{
glyphname = u1826.isoV1;
lastChange = "2016-11-10 17:40:46 +0000";
layers = (
{
layerId = "ECD52525-6592-4E14-BB2F-A163A2F4C2CC";
paths = (
{
closed = 1;
nodes = (
"1539 82 OFFCURVE",
"1603 102 OFFCURVE",
"1660 143 CURVE SMOOTH",
"1772 223 OFFCURVE",
"1837 375 OFFCURVE",
"1837 563 CURVE SMOOTH",
"1837 655 OFFCURVE",
"1818 818 OFFCURVE",
"1790 909 CURVE",
"1167 909 LINE",
"1172 1226 OFFCURVE",
"1332 1432 OFFCURVE",
"1599 1432 CURVE SMOOTH",
"1856 1432 OFFCURVE",
"2023 1203 OFFCURVE",
"2050 838 CURVE",
"2214 858 LINE",
"2205 1002 OFFCURVE",
"2174 1131 OFFCURVE",
"2119 1246 CURVE SMOOTH",
"2009 1474 OFFCURVE",
"1823 1602 OFFCURVE",
"1599 1602 CURVE SMOOTH",
"1251 1602 OFFCURVE",
"1029 1342 OFFCURVE",
"1008 909 CURVE",
"909 909 LINE SMOOTH",
"738 909 OFFCURVE",
"629 852 OFFCURVE",
"584 739 CURVE",
"575 739 LINE",
"569 911 LINE SMOOTH",
"560 1215 OFFCURVE",
"486 1337 OFFCURVE",
"285 1337 CURVE SMOOTH",
"204 1337 OFFCURVE",
"116 1317 OFFCURVE",
"20 1276 CURVE",
"20 1126 LINE",
"106 1161 OFFCURVE",
"180 1178 OFFCURVE",
"242 1178 CURVE SMOOTH",
"354 1178 OFFCURVE",
"395 1100 OFFCURVE",
"410 895 CURVE SMOOTH",
"463 152 LINE",
"598 152 LINE",
"618 449 LINE SMOOTH",
"624 532 OFFCURVE",
"636 593 OFFCURVE",
"655 634 CURVE SMOOTH",
"692 714 OFFCURVE",
"756 745 OFFCURVE",
"911 745 CURVE SMOOTH",
"1006 745 LINE",
"1026 288 OFFCURVE",
"1181 82 OFFCURVE",
"1468 82 CURVE SMOOTH"
);
},
{
closed = 1;
nodes = (
"1269 252 OFFCURVE",
"1173 416 OFFCURVE",
"1167 745 CURVE",
"1655 745 LINE",
"1668 705 OFFCURVE",
"1675 644 OFFCURVE",
"1675 563 CURVE SMOOTH",
"1675 356 OFFCURVE",
"1582 252 OFFCURVE",
"1454 252 CURVE SMOOTH"
);
}
);
width = 2306;
}
);
note = u1826.isoV1;
},
{
glyphname = u186E;
lastChange = "2016-11-10 17:40:46 +0000";
layers = (
{
layerId = "ECD52525-6592-4E14-BB2F-A163A2F4C2CC";
paths = (
{
closed = 1;
nodes = (
"1063 150 LINE",
"1039 261 OFFCURVE",
"992 460 OFFCURVE",
"922 745 CURVE",
"1456 745 LINE",
"1456 909 LINE",
"877 909 LINE",
"830 1080 OFFCURVE",
"778 1250 OFFCURVE",
"721 1421 CURVE",
"1022 1421 LINE",
"1022 1548 LINE",
"684 1548 LINE",
"684 1819 LINE",
"555 1819 LINE",
"555 1548 LINE",
"233 1548 LINE",
"233 1421 LINE",
"528 1421 LINE",
"519 1376 OFFCURVE",
"497 1279 OFFCURVE",
"461 1130 CURVE SMOOTH",
"409 942 OFFCURVE",
"359 874 OFFCURVE",
"266 874 CURVE SMOOTH",
"213 874 OFFCURVE",
"155 887 OFFCURVE",
"92 913 CURVE",
"92 760 LINE",
"151 726 OFFCURVE",
"212 709 OFFCURVE",
"276 709 CURVE SMOOTH",
"348 709 OFFCURVE",
"405 726 OFFCURVE",
"448 760 CURVE SMOOTH",
"532 828 OFFCURVE",
"586 1023 OFFCURVE",
"623 1208 CURVE",
"631 1208 LINE",
"720 964 OFFCURVE",
"835 531 OFFCURVE",
"907 150 CURVE"
);
}
);
width = 1548;
}
);
note = u186E;
unicode = 186E;
},
{
glyphname = u1823;
lastChange = "2016-11-10 17:40:46 +0000";
layers = (
{
layerId = "ECD52525-6592-4E14-BB2F-A163A2F4C2CC";
paths = (
{
closed = 1;
nodes = (
"1670 82 OFFCURVE",
"1817 253 OFFCURVE",
"1817 510 CURVE SMOOTH",
"1817 645 OFFCURVE",
"1779 806 OFFCURVE",
"1720 909 CURVE",
"909 909 LINE SMOOTH",
"738 909 OFFCURVE",
"629 852 OFFCURVE",
"584 739 CURVE",
"575 739 LINE",
"569 911 LINE SMOOTH",
"560 1215 OFFCURVE",
"486 1337 OFFCURVE",
"285 1337 CURVE SMOOTH",
"204 1337 OFFCURVE",
"116 1317 OFFCURVE",
"20 1276 CURVE",
"20 1126 LINE",
"106 1161 OFFCURVE",
"180 1178 OFFCURVE",
"242 1178 CURVE SMOOTH",
"354 1178 OFFCURVE",
"395 1100 OFFCURVE",
"410 895 CURVE SMOOTH",
"463 152 LINE",
"598 152 LINE",
"618 449 LINE SMOOTH",
"624 532 OFFCURVE",
"636 593 OFFCURVE",
"655 634 CURVE SMOOTH",
"692 714 OFFCURVE",
"756 745 OFFCURVE",
"911 745 CURVE SMOOTH",
"1049 745 LINE",
"1022 681 OFFCURVE",
"1008 603 OFFCURVE",
"1008 510 CURVE SMOOTH",
"1008 226 OFFCURVE",
"1163 82 OFFCURVE",
"1411 82 CURVE SMOOTH"
);
},
{
closed = 1;
nodes = (
"1250 252 OFFCURVE",
"1169 339 OFFCURVE",
"1169 514 CURVE SMOOTH",
"1169 602 OFFCURVE",
"1183 679 OFFCURVE",
"1210 745 CURVE",
"1610 745 LINE",
"1640 673 OFFCURVE",
"1655 596 OFFCURVE",
"1655 514 CURVE SMOOTH",
"1655 339 OFFCURVE",
"1562 252 OFFCURVE",
"1411 252 CURVE SMOOTH"
);
}
);
width = 1909;
}
);
note = u1823;
unicode = 1823;
},
{
glyphname = u1825.ini;
lastChange = "2016-11-10 17:40:46 +0000";
layers = (
{
layerId = "ECD52525-6592-4E14-BB2F-A163A2F4C2CC";
paths = (
{
closed = 1;
nodes = (
"2550 -63 LINE",
"2400 204 OFFCURVE",
"2286 473 OFFCURVE",
"2208 745 CURVE",
"2847 745 LINE",
"2847 909 LINE",
"909 909 LINE SMOOTH",
"738 909 OFFCURVE",
"629 852 OFFCURVE",
"584 739 CURVE",
"575 739 LINE",
"569 911 LINE SMOOTH",
"560 1215 OFFCURVE",
"486 1337 OFFCURVE",
"285 1337 CURVE SMOOTH",
"204 1337 OFFCURVE",
"116 1317 OFFCURVE",
"20 1276 CURVE",
"20 1126 LINE",
"106 1161 OFFCURVE",
"180 1178 OFFCURVE",
"242 1178 CURVE SMOOTH",
"354 1178 OFFCURVE",
"395 1100 OFFCURVE",
"410 895 CURVE SMOOTH",
"463 152 LINE",
"598 152 LINE",
"618 449 LINE SMOOTH",
"624 532 OFFCURVE",
"636 593 OFFCURVE",
"655 634 CURVE SMOOTH",
"692 714 OFFCURVE",
"756 745 OFFCURVE",
"911 745 CURVE SMOOTH",
"1049 745 LINE",
"1022 681 OFFCURVE",
"1008 603 OFFCURVE",
"1008 510 CURVE SMOOTH",
"1008 226 OFFCURVE",
"1163 82 OFFCURVE",
"1411 82 CURVE SMOOTH",
"1670 82 OFFCURVE",
"1817 253 OFFCURVE",
"1817 510 CURVE SMOOTH",
"1817 600 OFFCURVE",
"1802 678 OFFCURVE",
"1772 745 CURVE",
"2046 745 LINE",
"2121 458 OFFCURVE",
"2239 164 OFFCURVE",
"2400 -137 CURVE"
);
},
{
closed = 1;
nodes = (
"1250 252 OFFCURVE",
"1169 339 OFFCURVE",
"1169 514 CURVE SMOOTH",
"1169 602 OFFCURVE",
"1183 679 OFFCURVE",
"1210 745 CURVE",
"1614 745 LINE",
"1641 679 OFFCURVE",
"1655 602 OFFCURVE",
"1655 514 CURVE SMOOTH",
"1655 339 OFFCURVE",
"1562 252 OFFCURVE",
"1411 252 CURVE SMOOTH"
);
}
);
width = 2785;
}
);
note = u1825.ini;
},
{
glyphname = u1825.medV2;
lastChange = "2016-11-10 17:40:46 +0000";
layers = (
{
layerId = "ECD52525-6592-4E14-BB2F-A163A2F4C2CC";
paths = (
{
closed = 1;
nodes = (
"2124 -63 LINE",
"1974 204 OFFCURVE",
"1860 473 OFFCURVE",
"1782 745 CURVE",
"2421 745 LINE",
"2421 909 LINE",
"0 909 LINE",
"0 745 LINE",
"39 197 LINE",
"174 197 LINE",
"213 745 LINE",
"623 745 LINE",
"596 681 OFFCURVE",
"582 603 OFFCURVE",
"582 510 CURVE SMOOTH",
"582 226 OFFCURVE",
"737 82 OFFCURVE",
"985 82 CURVE SMOOTH",
"1244 82 OFFCURVE",
"1391 253 OFFCURVE",
"1391 510 CURVE SMOOTH",
"1391 600 OFFCURVE",
"1376 678 OFFCURVE",
"1346 745 CURVE",
"1620 745 LINE",
"1695 458 OFFCURVE",
"1813 164 OFFCURVE",
"1974 -137 CURVE"
);
},
{
closed = 1;
nodes = (
"824 252 OFFCURVE",
"743 339 OFFCURVE",
"743 514 CURVE SMOOTH",
"743 602 OFFCURVE",
"757 679 OFFCURVE",
"784 745 CURVE",
"1188 745 LINE",
"1215 679 OFFCURVE",
"1229 602 OFFCURVE",
"1229 514 CURVE SMOOTH",
"1229 339 OFFCURVE",
"1136 252 OFFCURVE",
"985 252 CURVE SMOOTH"
);
}
);
width = 2359;
}
);
note = u1825.medV2;
},
{
glyphname = u183E.fin;
lastChange = "2016-11-10 17:40:46 +0000";
layers = (
{
layerId = "ECD52525-6592-4E14-BB2F-A163A2F4C2CC";
paths = (
{
closed = 1;
nodes = (
"838 -117 LINE",
"685 167 OFFCURVE",
"609 440 OFFCURVE",
"604 745 CURVE",
"1128 745 LINE SMOOTH",
"1273 745 OFFCURVE",
"1329 683 OFFCURVE",
"1329 571 CURVE SMOOTH",
"1329 481 OFFCURVE",
"1314 401 OFFCURVE",
"1284 332 CURVE",
"1436 332 LINE",
"1470 407 OFFCURVE",
"1487 487 OFFCURVE",
"1487 571 CURVE SMOOTH",
"1487 796 OFFCURVE",
"1367 909 OFFCURVE",
"1128 909 CURVE SMOOTH",
"449 909 LINE",
"449 750 LINE SMOOTH",
"449 451 OFFCURVE",
"506 190 OFFCURVE",
"621 -35 CURVE",
"367 -147 LINE",
"211 145 OFFCURVE",
"154 404 OFFCURVE",
"154 745 CURVE SMOOTH",
"154 909 LINE",
"0 909 LINE",
"0 745 LINE SMOOTH",
"0 353 OFFCURVE",
"84 -1 OFFCURVE",
"287 -373 CURVE"
);
}
);
width = 1579;
}
);
note = u183E.fin;
},
{
glyphname = u1834.fin;
lastChange = "2016-11-10 17:40:46 +0000";
layers = (
{
layerId = "ECD52525-6592-4E14-BB2F-A163A2F4C2CC";
paths = (
{
closed = 1;
nodes = (
"127 110 OFFCURVE",
"253 129 OFFCURVE",
"481 129 CURVE SMOOTH",
"729 129 LINE",
"729 264 LINE",
"674 428 OFFCURVE",
"645 573 OFFCURVE",
"645 745 CURVE",
"1147 745 LINE SMOOTH",
"1291 745 OFFCURVE",
"1348 683 OFFCURVE",
"1348 571 CURVE SMOOTH",
"1348 484 OFFCURVE",
"1333 404 OFFCURVE",
"1303 332 CURVE",
"1454 332 LINE",
"1488 404 OFFCURVE",
"1505 484 OFFCURVE",
"1505 571 CURVE SMOOTH",
"1505 796 OFFCURVE",
"1386 909 OFFCURVE",
"1147 909 CURVE SMOOTH",
"0 909 LINE",
"0 745 LINE",
"494 745 LINE",
"494 572 OFFCURVE",
"514 421 OFFCURVE",
"555 293 CURVE",
"481 293 LINE SMOOTH",
"200 293 OFFCURVE",
"97 270 OFFCURVE",
"0 207 CURVE",
"0 33 LINE"
);
}
);
width = 1597;
}
);
note = u1834.fin;
},
{
glyphname = u1823.ini;
lastChange = "2016-11-10 17:40:46 +0000";
layers = (
{
layerId = "ECD52525-6592-4E14-BB2F-A163A2F4C2CC";
paths = (
{
closed = 1;
nodes = (
"1670 82 OFFCURVE",
"1817 253 OFFCURVE",
"1817 510 CURVE SMOOTH",
"1817 600 OFFCURVE",
"1802 678 OFFCURVE",
"1772 745 CURVE",
"2243 745 LINE",
"2243 909 LINE",
"909 909 LINE SMOOTH",
"738 909 OFFCURVE",
"629 852 OFFCURVE",
"584 739 CURVE",
"575 739 LINE",
"569 911 LINE SMOOTH",
"560 1215 OFFCURVE",
"486 1337 OFFCURVE",
"285 1337 CURVE SMOOTH",
"204 1337 OFFCURVE",
"116 1317 OFFCURVE",
"20 1276 CURVE",
"20 1126 LINE",
"106 1161 OFFCURVE",
"180 1178 OFFCURVE",
"242 1178 CURVE SMOOTH",
"354 1178 OFFCURVE",
"395 1100 OFFCURVE",
"410 895 CURVE SMOOTH",
"463 152 LINE",
"598 152 LINE",
"618 449 LINE SMOOTH",
"624 532 OFFCURVE",
"636 593 OFFCURVE",
"655 634 CURVE SMOOTH",
"692 714 OFFCURVE",
"756 745 OFFCURVE",
"911 745 CURVE SMOOTH",
"1049 745 LINE",
"1022 681 OFFCURVE",
"1008 603 OFFCURVE",
"1008 510 CURVE SMOOTH",
"1008 226 OFFCURVE",
"1163 82 OFFCURVE",
"1411 82 CURVE SMOOTH"
);
},
{
closed = 1;
nodes = (
"1250 252 OFFCURVE",
"1169 339 OFFCURVE",
"1169 514 CURVE SMOOTH",
"1169 602 OFFCURVE",
"1183 679 OFFCURVE",
"1210 745 CURVE",
"1614 745 LINE",
"1641 679 OFFCURVE",
"1655 602 OFFCURVE",
"1655 514 CURVE SMOOTH",
"1655 339 OFFCURVE",
"1562 252 OFFCURVE",
"1411 252 CURVE SMOOTH"
);
}
);
width = 2181;
}
);
note = u1823.ini;
},
{
glyphname = u1823.medV1;
lastChange = "2016-11-10 17:40:46 +0000";
layers = (
{
layerId = "ECD52525-6592-4E14-BB2F-A163A2F4C2CC";
paths = (
{
closed = 1;
nodes = (
"1244 82 OFFCURVE",
"1391 253 OFFCURVE",
"1391 510 CURVE SMOOTH",
"1391 600 OFFCURVE",
"1376 678 OFFCURVE",
"1346 745 CURVE",
"1817 745 LINE",
"1817 909 LINE",
"0 909 LINE",
"0 745 LINE",
"39 197 LINE",
"174 197 LINE",
"213 745 LINE",
"623 745 LINE",
"596 681 OFFCURVE",
"582 603 OFFCURVE",
"582 510 CURVE SMOOTH",
"582 226 OFFCURVE",
"737 82 OFFCURVE",
"985 82 CURVE SMOOTH"
);
},
{
closed = 1;
nodes = (
"824 252 OFFCURVE",
"743 339 OFFCURVE",
"743 514 CURVE SMOOTH",
"743 602 OFFCURVE",
"757 679 OFFCURVE",
"784 745 CURVE",
"1188 745 LINE",
"1215 679 OFFCURVE",
"1229 602 OFFCURVE",
"1229 514 CURVE SMOOTH",
"1229 339 OFFCURVE",
"1136 252 OFFCURVE",
"985 252 CURVE SMOOTH"
);
}
);
width = 1755;
}
);
note = u1823.medV1;
},
{
glyphname = u1825;
lastChange = "2016-11-10 17:40:46 +0000";
layers = (
{
layerId = "ECD52525-6592-4E14-BB2F-A163A2F4C2CC";
paths = (
{
closed = 1;
nodes = (
"1670 82 OFFCURVE",
"1817 253 OFFCURVE",
"1817 510 CURVE SMOOTH",
"1817 600 OFFCURVE",
"1802 678 OFFCURVE",
"1772 745 CURVE",
"2079 745 LINE SMOOTH",
"2223 745 OFFCURVE",
"2279 683 OFFCURVE",
"2279 571 CURVE SMOOTH",
"2279 481 OFFCURVE",
"2264 401 OFFCURVE",
"2234 332 CURVE",
"2386 332 LINE",
"2420 407 OFFCURVE",
"2437 487 OFFCURVE",
"2437 571 CURVE SMOOTH",
"2437 796 OFFCURVE",
"2318 909 OFFCURVE",
"2079 909 CURVE SMOOTH",
"909 909 LINE SMOOTH",
"738 909 OFFCURVE",
"629 852 OFFCURVE",
"584 739 CURVE",
"575 739 LINE",
"569 911 LINE SMOOTH",
"560 1215 OFFCURVE",
"486 1337 OFFCURVE",
"285 1337 CURVE SMOOTH",
"204 1337 OFFCURVE",
"116 1317 OFFCURVE",
"20 1276 CURVE",
"20 1126 LINE",
"106 1161 OFFCURVE",
"180 1178 OFFCURVE",
"242 1178 CURVE SMOOTH",
"354 1178 OFFCURVE",
"395 1100 OFFCURVE",
"410 895 CURVE SMOOTH",
"463 152 LINE",
"598 152 LINE",
"618 449 LINE SMOOTH",
"624 532 OFFCURVE",
"636 593 OFFCURVE",
"655 634 CURVE SMOOTH",
"692 714 OFFCURVE",
"756 745 OFFCURVE",
"911 745 CURVE SMOOTH",
"1049 745 LINE",
"1022 681 OFFCURVE",
"1008 603 OFFCURVE",
"1008 510 CURVE SMOOTH",
"1008 226 OFFCURVE",
"1163 82 OFFCURVE",
"1411 82 CURVE SMOOTH"
);
},
{
closed = 1;
nodes = (
"1250 252 OFFCURVE",
"1169 339 OFFCURVE",
"1169 514 CURVE SMOOTH",
"1169 602 OFFCURVE",
"1183 679 OFFCURVE",
"1210 745 CURVE",
"1614 745 LINE",
"1641 679 OFFCURVE",
"1655 602 OFFCURVE",
"1655 514 CURVE SMOOTH",
"1655 339 OFFCURVE",
"1562 252 OFFCURVE",
"1411 252 CURVE SMOOTH"
);
}
);
width = 2529;
}
);
note = u1825;
unicode = 1825;
},
{
glyphname = u1825.finV1;
lastChange = "2016-11-10 17:40:46 +0000";
layers = (
{
layerId = "ECD52525-6592-4E14-BB2F-A163A2F4C2CC";
paths = (
{
closed = 1;
nodes = (
"662 82 OFFCURVE",
"809 249 OFFCURVE",
"809 510 CURVE SMOOTH",
"809 600 OFFCURVE",
"794 678 OFFCURVE",
"764 745 CURVE",
"1071 745 LINE SMOOTH",
"1216 745 OFFCURVE",
"1272 683 OFFCURVE",
"1272 571 CURVE SMOOTH",
"1272 484 OFFCURVE",
"1257 404 OFFCURVE",
"1227 332 CURVE",
"1378 332 LINE",
"1413 405 OFFCURVE",
"1430 485 OFFCURVE",
"1430 571 CURVE SMOOTH",
"1430 796 OFFCURVE",
"1310 909 OFFCURVE",
"1071 909 CURVE SMOOTH",
"0 909 LINE",
"0 745 LINE",
"41 745 LINE",
"14 681 OFFCURVE",
"0 603 OFFCURVE",
"0 510 CURVE SMOOTH",
"0 226 OFFCURVE",
"155 82 OFFCURVE",
"403 82 CURVE SMOOTH"
);
},
{
closed = 1;
nodes = (
"242 252 OFFCURVE",
"162 339 OFFCURVE",
"162 514 CURVE SMOOTH",
"162 605 OFFCURVE",
"176 682 OFFCURVE",
"203 745 CURVE",
"606 745 LINE",
"633 682 OFFCURVE",
"647 605 OFFCURVE",
"647 514 CURVE SMOOTH",
"647 339 OFFCURVE",
"554 252 OFFCURVE",
"403 252 CURVE SMOOTH"
);
}
);
width = 1522;
}
);
note = u1825.finV1;
},
{
glyphname = u1833.fin;
lastChange = "2016-11-10 17:40:46 +0000";
layers = (
{
layerId = "ECD52525-6592-4E14-BB2F-A163A2F4C2CC";
paths = (
{
closed = 1;
nodes = (
"662 82 OFFCURVE",
"809 249 OFFCURVE",
"809 510 CURVE SMOOTH",
"809 600 OFFCURVE",
"794 678 OFFCURVE",
"764 745 CURVE",
"1106 745 LINE",
"1106 635 OFFCURVE",
"1130 531 OFFCURVE",
"1177 432 CURVE SMOOTH",
"1272 235 OFFCURVE",
"1439 120 OFFCURVE",
"1640 109 CURVE",
"1640 319 LINE SMOOTH",
"1640 894 OFFCURVE",
"1777 1401 OFFCURVE",
"2028 1712 CURVE",
"1839 1712 LINE",
"1626 1435 OFFCURVE",
"1483 915 OFFCURVE",
"1483 319 CURVE",
"1322 412 OFFCURVE",
"1257 574 OFFCURVE",
"1257 909 CURVE",
"0 909 LINE",
"0 745 LINE",
"41 745 LINE",
"14 681 OFFCURVE",
"0 603 OFFCURVE",
"0 510 CURVE SMOOTH",
"0 226 OFFCURVE",
"155 82 OFFCURVE",
"403 82 CURVE SMOOTH"
);
},
{
closed = 1;
nodes = (
"242 252 OFFCURVE",
"162 339 OFFCURVE",
"162 514 CURVE SMOOTH",
"162 605 OFFCURVE",
"176 682 OFFCURVE",
"203 745 CURVE",
"606 745 LINE",
"633 682 OFFCURVE",
"647 605 OFFCURVE",
"647 514 CURVE SMOOTH",
"647 339 OFFCURVE",
"554 252 OFFCURVE",
"403 252 CURVE SMOOTH"
);
}
);
width = 2048;
}
);
note = u1833.fin;
},
{
glyphname = u182A_1825.V1;
lastChange = "2016-11-10 17:40:46 +0000";
layers = (
{
layerId = "ECD52525-6592-4E14-BB2F-A163A2F4C2CC";
paths = (
{
closed = 1;
nodes = (
"633 82 OFFCURVE",
"756 145 OFFCURVE",
"811 276 CURVE",
"868 145 OFFCURVE",
"971 82 OFFCURVE",
"1102 82 CURVE SMOOTH",
"1394 82 OFFCURVE",
"1535 298 OFFCURVE",
"1540 745 CURVE",
"1972 745 LINE SMOOTH",
"2117 745 OFFCURVE",
"2173 683 OFFCURVE",
"2173 571 CURVE SMOOTH",
"2173 484 OFFCURVE",
"2158 404 OFFCURVE",
"2128 332 CURVE",
"2279 332 LINE",
"2314 405 OFFCURVE",
"2331 485 OFFCURVE",
"2331 571 CURVE SMOOTH",
"2331 796 OFFCURVE",
"2211 909 OFFCURVE",
"1972 909 CURVE SMOOTH",
"1532 909 LINE",
"1516 1051 OFFCURVE",
"1478 1174 OFFCURVE",
"1417 1279 CURVE SMOOTH",
"1296 1488 OFFCURVE",
"1092 1602 OFFCURVE",
"829 1602 CURVE SMOOTH",
"678 1602 OFFCURVE",
"547 1567 OFFCURVE",
"436 1498 CURVE SMOOTH",
"213 1359 OFFCURVE",
"92 1097 OFFCURVE",
"92 768 CURVE SMOOTH",
"92 317 OFFCURVE",
"219 82 OFFCURVE",
"510 82 CURVE SMOOTH"
);
},
{
closed = 1;
nodes = (
"447 252 OFFCURVE",
"398 268 OFFCURVE",
"362 300 CURVE SMOOTH",
"290 364 OFFCURVE",
"254 513 OFFCURVE",
"254 745 CURVE",
"735 745 LINE",
"735 586 LINE SMOOTH",
"735 362 OFFCURVE",
"641 252 OFFCURVE",
"510 252 CURVE SMOOTH"
);
},
{
closed = 1;
nodes = (
"965 252 OFFCURVE",
"897 363 OFFCURVE",
"897 586 CURVE SMOOTH",
"897 745 LINE",
"1378 745 LINE",
"1377 626 OFFCURVE",
"1367 531 OFFCURVE",
"1348 458 CURVE SMOOTH",
"1310 312 OFFCURVE",
"1239 252 OFFCURVE",
"1102 252 CURVE SMOOTH"
);
},
{
closed = 1;
nodes = (
"299 1234 OFFCURVE",
"477 1432 OFFCURVE",
"829 1432 CURVE SMOOTH",
"1126 1432 OFFCURVE",
"1321 1237 OFFCURVE",
"1368 909 CURVE",
"260 909 LINE"
);
}
);
width = 2423;
}
);
note = u182A_1825.V1;
},
{
glyphname = u182C_1825;
lastChange = "2016-11-10 17:40:46 +0000";
layers = (
{
layerId = "ECD52525-6592-4E14-BB2F-A163A2F4C2CC";
paths = (
{
closed = 1;
nodes = (
"1116 82 OFFCURVE",
"1185 104 OFFCURVE",
"1247 148 CURVE SMOOTH",
"1370 236 OFFCURVE",
"1442 408 OFFCURVE",
"1442 621 CURVE SMOOTH",
"1442 664 OFFCURVE",
"1441 705 OFFCURVE",
"1438 745 CURVE",
"1874 745 LINE SMOOTH",
"2018 745 OFFCURVE",
"2075 683 OFFCURVE",
"2075 571 CURVE SMOOTH",
"2075 484 OFFCURVE",
"2060 404 OFFCURVE",
"2030 332 CURVE",
"2181 332 LINE",
"2215 404 OFFCURVE",
"2232 484 OFFCURVE",
"2232 571 CURVE SMOOTH",
"2232 796 OFFCURVE",
"2113 909 OFFCURVE",
"1874 909 CURVE SMOOTH",
"1419 909 LINE",
"1347 1330 OFFCURVE",
"1117 1556 OFFCURVE",
"748 1556 CURVE SMOOTH",
"619 1556 OFFCURVE",
"505 1526 OFFCURVE",
"406 1467 CURVE SMOOTH",
"206 1348 OFFCURVE",
"92 1121 OFFCURVE",
"92 836 CURVE SMOOTH",
"92 604 OFFCURVE",
"166 337 OFFCURVE",
"299 86 CURVE",
"449 150 LINE",
"312 406 OFFCURVE",
"254 641 OFFCURVE",
"254 829 CURVE SMOOTH",
"254 1174 OFFCURVE",
"444 1386 OFFCURVE",
"748 1386 CURVE SMOOTH",
"1030 1386 OFFCURVE",
"1200 1227 OFFCURVE",
"1257 909 CURVE",
"711 909 LINE",
"664 822 OFFCURVE",
"633 686 OFFCURVE",
"633 563 CURVE SMOOTH",
"633 244 OFFCURVE",
"792 82 OFFCURVE",
"1040 82 CURVE SMOOTH"
);
},
{
closed = 1;
nodes = (
"873 252 OFFCURVE",
"795 356 OFFCURVE",
"795 563 CURVE SMOOTH",
"795 637 OFFCURVE",
"806 698 OFFCURVE",
"827 745 CURVE",
"1276 745 LINE",
"1279 705 OFFCURVE",
"1280 664 OFFCURVE",
"1280 621 CURVE SMOOTH",
"1280 374 OFFCURVE",
"1176 252 OFFCURVE",
"1028 252 CURVE SMOOTH"
);
}
);
width = 2324;
}
);
note = u182C_1825;
},
{
glyphname = u1853.fin;
lastChange = "2016-11-10 17:40:46 +0000";
layers = (
{
layerId = "ECD52525-6592-4E14-BB2F-A163A2F4C2CC";
paths = (
{
closed = 1;
nodes = (
"729 -182 LINE",
"645 -118 OFFCURVE",
"544 -102 OFFCURVE",
"360 -102 CURVE SMOOTH",
"317 -102 LINE SMOOTH",
"202 -102 OFFCURVE",
"145 -52 OFFCURVE",
"145 25 CURVE SMOOTH",
"145 112 OFFCURVE",
"197 166 OFFCURVE",
"369 166 CURVE SMOOTH",
"729 166 LINE",
"729 291 LINE",
"673 444 OFFCURVE",
"645 595 OFFCURVE",
"645 745 CURVE",
"1147 745 LINE SMOOTH",
"1291 745 OFFCURVE",
"1348 683 OFFCURVE",
"1348 571 CURVE SMOOTH",
"1348 484 OFFCURVE",
"1333 404 OFFCURVE",
"1303 332 CURVE",
"1454 332 LINE",
"1488 404 OFFCURVE",
"1505 484 OFFCURVE",
"1505 571 CURVE SMOOTH",
"1505 796 OFFCURVE",
"1386 909 OFFCURVE",
"1147 909 CURVE SMOOTH",
"0 909 LINE",
"0 745 LINE",
"494 745 LINE",
"494 592 OFFCURVE",
"513 453 OFFCURVE",
"551 330 CURVE",
"369 330 LINE SMOOTH",
"122 330 OFFCURVE",
"0 221 OFFCURVE",
"0 25 CURVE SMOOTH",
"0 -164 OFFCURVE",
"105 -266 OFFCURVE",
"317 -266 CURVE SMOOTH",
"360 -266 LINE SMOOTH",
"567 -266 OFFCURVE",
"642 -293 OFFCURVE",
"729 -360 CURVE"
);
}
);
width = 1597;
}
);
note = u1853.fin;
},
{
glyphname = u182A_182F.ini;
lastChange = "2016-11-10 17:40:46 +0000";
layers = (
{
layerId = "ECD52525-6592-4E14-BB2F-A163A2F4C2CC";
paths = (
{
closed = 1;
nodes = (
"624 82 OFFCURVE",
"688 102 OFFCURVE",
"745 142 CURVE SMOOTH",
"857 221 OFFCURVE",
"924 376 OFFCURVE",
"924 563 CURVE SMOOTH",
"924 647 OFFCURVE",
"902 826 OFFCURVE",
"877 909 CURVE",
"254 909 LINE",
"259 1184 OFFCURVE",
"437 1350 OFFCURVE",
"713 1350 CURVE SMOOTH",
"997 1350 OFFCURVE",
"1155 1144 OFFCURVE",
"1186 745 CURVE SMOOTH",
"1225 197 LINE",
"1360 197 LINE",
"1399 745 LINE",
"1829 745 LINE",
"1829 909 LINE",
"1335 909 LINE",
"1311 1044 OFFCURVE",
"1271 1158 OFFCURVE",
"1214 1251 CURVE",
"1221 1423 OFFCURVE",
"1277 1570 OFFCURVE",
"1382 1737 CURVE",
"1382 1872 LINE",
"1137 1872 LINE SMOOTH",
"933 1872 OFFCURVE",
"849 1889 OFFCURVE",
"768 1946 CURVE",
"768 1786 LINE",
"801 1758 OFFCURVE",
"842 1738 OFFCURVE",
"891 1726 CURVE SMOOTH",
"940 1714 OFFCURVE",
"1022 1708 OFFCURVE",
"1137 1708 CURVE SMOOTH",
"1194 1708 LINE",
"1141 1611 OFFCURVE",
"1104 1508 OFFCURVE",
"1085 1399 CURVE",
"988 1480 OFFCURVE",
"864 1520 OFFCURVE",
"713 1520 CURVE SMOOTH",
"321 1520 OFFCURVE",
"92 1261 OFFCURVE",
"92 836 CURVE SMOOTH",
"92 329 OFFCURVE",
"244 82 OFFCURVE",
"553 82 CURVE SMOOTH"
);
},
{
closed = 1;
nodes = (
"355 252 OFFCURVE",
"259 416 OFFCURVE",
"254 745 CURVE",
"741 745 LINE",
"755 707 OFFCURVE",
"762 646 OFFCURVE",
"762 563 CURVE SMOOTH",
"762 356 OFFCURVE",
"669 252 OFFCURVE",
"541 252 CURVE SMOOTH"
);
}
);
width = 1767;
}
);
note = u182A_182F.ini;
},
{
glyphname = u182E.med;
lastChange = "2016-11-10 17:37:31 +0000";
layers = (
{
layerId = "ECD52525-6592-4E14-BB2F-A163A2F4C2CC";
paths = (
{
closed = 1;
nodes = (
"174 197 LINE",
"213 745 LINE",
"643 745 LINE",
"643 909 LINE",
"172 909 LINE",
"166 1062 OFFCURVE",
"146 1195 OFFCURVE",
"111 1309 CURVE",
"184 1309 LINE SMOOTH",
"407 1309 OFFCURVE",
"478 1326 OFFCURVE",
"551 1386 CURVE",
"551 1544 LINE",
"455 1485 OFFCURVE",
"373 1473 OFFCURVE",
"184 1473 CURVE SMOOTH",
"-63 1473 LINE",
"-63 1337 LINE",
"0 1190 OFFCURVE",
"24 1060 OFFCURVE",
"29 909 CURVE",
"0 909 LINE",
"0 745 LINE",
"39 197 LINE"
);
}
);
width = 582;
}
);
note = u182E.med;
},
{
glyphname = u182E_182E.med;
lastChange = "2016-11-10 17:37:31 +0000";
layers = (
{
layerId = "ECD52525-6592-4E14-BB2F-A163A2F4C2CC";
paths = (
{
closed = 1;
nodes = (
"174 197 LINE",
"213 745 LINE",
"582 745 LINE",
"621 197 LINE",
"756 197 LINE",
"795 745 LINE",
"1225 745 LINE",
"1225 909 LINE",
"754 909 LINE",
"751 1024 OFFCURVE",
"744 1123 OFFCURVE",
"735 1206 CURVE",
"766 1206 LINE SMOOTH",
"880 1206 OFFCURVE",
"961 1212 OFFCURVE",
"1009 1224 CURVE SMOOTH",
"1057 1235 OFFCURVE",
"1098 1255 OFFCURVE",
"1133 1284 CURVE",
"1133 1444 LINE",
"1045 1385 OFFCURVE",
"967 1370 OFFCURVE",
"766 1370 CURVE SMOOTH",
"571 1370 LINE",
"571 1235 LINE",
"594 1140 OFFCURVE",
"607 1032 OFFCURVE",
"610 909 CURVE",
"172 909 LINE",
"169 1080 OFFCURVE",
"149 1241 OFFCURVE",
"111 1391 CURVE",
"205 1391 LINE SMOOTH",
"328 1391 OFFCURVE",
"384 1403 OFFCURVE",
"428 1434 CURVE",
"428 1593 LINE",
"387 1567 OFFCURVE",
"312 1554 OFFCURVE",
"205 1554 CURVE SMOOTH",
"-63 1554 LINE",
"-63 1419 LINE",
"-7 1266 OFFCURVE",
"24 1096 OFFCURVE",
"29 909 CURVE",
"0 909 LINE",
"0 745 LINE",
"39 197 LINE"
);
}
);
width = 1163;
}
);
note = u182E_182E.med;
},
{
glyphname = u182E_182F.med;
lastChange = "2016-11-10 17:37:31 +0000";
layers = (
{
layerId = "ECD52525-6592-4E14-BB2F-A163A2F4C2CC";
paths = (
{
closed = 1;
nodes = (
"174 197 LINE",
"213 745 LINE",
"582 745 LINE",
"621 197 LINE",
"756 197 LINE",
"795 745 LINE",
"1225 745 LINE",
"1225 909 LINE",
"770 909 LINE",
"775 1089 OFFCURVE",
"825 1247 OFFCURVE",
"926 1419 CURVE",
"926 1554 LINE",
"700 1554 LINE SMOOTH",
"559 1554 OFFCURVE",
"504 1567 OFFCURVE",
"455 1599 CURVE",
"455 1440 LINE",
"500 1401 OFFCURVE",
"564 1391 OFFCURVE",
"700 1391 CURVE SMOOTH",
"750 1391 LINE",
"674 1250 OFFCURVE",
"633 1090 OFFCURVE",
"627 909 CURVE",
"172 909 LINE",
"166 1030 OFFCURVE",
"137 1136 OFFCURVE",
"84 1227 CURVE",
"129 1227 LINE SMOOTH",
"241 1227 OFFCURVE",
"293 1235 OFFCURVE",
"332 1260 CURVE",
"332 1419 LINE",
"291 1398 OFFCURVE",
"246 1391 OFFCURVE",
"129 1391 CURVE SMOOTH",
"-104 1391 LINE",
"-104 1255 LINE",
"-17 1132 OFFCURVE",
"22 1029 OFFCURVE",
"27 909 CURVE",
"0 909 LINE",
"0 745 LINE",
"39 197 LINE"
);
}
);
width = 1163;
}
);
note = u182E_182F.med;
},
{
glyphname = u1830.finV2;
lastChange = "2016-11-10 17:40:46 +0000";
layers = (
{
layerId = "ECD52525-6592-4E14-BB2F-A163A2F4C2CC";
paths = (
{
closed = 1;
nodes = (
"215 150 LINE",
"198 218 OFFCURVE",
"190 304 OFFCURVE",
"190 408 CURVE SMOOTH",
"190 725 OFFCURVE",
"250 976 OFFCURVE",
"403 1264 CURVE",
"412 1264 LINE",
"449 808 OFFCURVE",
"533 490 OFFCURVE",
"684 150 CURVE",
"858 150 LINE",
"763 344 OFFCURVE",
"691 542 OFFCURVE",
"641 745 CURVE",
"1251 745 LINE SMOOTH",
"1396 745 OFFCURVE",
"1452 683 OFFCURVE",
"1452 571 CURVE SMOOTH",
"1452 481 OFFCURVE",
"1437 401 OFFCURVE",
"1407 332 CURVE",
"1559 332 LINE",
"1593 407 OFFCURVE",
"1610 487 OFFCURVE",
"1610 571 CURVE SMOOTH",
"1610 796 OFFCURVE",
"1490 909 OFFCURVE",
"1251 909 CURVE SMOOTH",
"606 909 LINE",
"572 1104 OFFCURVE",
"555 1302 OFFCURVE",
"555 1503 CURVE",
"389 1503 LINE",
"256 1321 OFFCURVE",
"161 1123 OFFCURVE",
"102 909 CURVE",
"0 909 LINE",
"0 745 LINE SMOOTH",
"0 556 OFFCURVE",
"26 295 OFFCURVE",
"57 150 CURVE"
);
}
);
width = 1702;
}
);
note = u1830.finV2;
},
{
glyphname = u182F_182F.med;
lastChange = "2016-11-10 17:37:31 +0000";
layers = (
{
layerId = "ECD52525-6592-4E14-BB2F-A163A2F4C2CC";
paths = (
{
closed = 1;
nodes = (
"174 197 LINE",
"213 745 LINE",
"623 745 LINE",
"662 197 LINE",
"797 197 LINE",
"836 745 LINE",
"1266 745 LINE",
"1266 909 LINE",
"799 909 LINE",
"802 1080 OFFCURVE",
"836 1250 OFFCURVE",
"903 1419 CURVE",
"903 1554 LINE",
"692 1554 LINE SMOOTH",
"540 1554 OFFCURVE",
"480 1567 OFFCURVE",
"428 1608 CURVE",
"428 1448 LINE",
"480 1407 OFFCURVE",
"548 1391 OFFCURVE",
"692 1391 CURVE SMOOTH",
"729 1391 LINE",
"682 1244 OFFCURVE",
"658 1083 OFFCURVE",
"655 909 CURVE",
"176 909 LINE",
"178 1007 OFFCURVE",
"199 1116 OFFCURVE",
"240 1235 CURVE",
"240 1370 LINE",
"53 1370 LINE SMOOTH",
"-159 1370 OFFCURVE",
"-241 1392 OFFCURVE",
"-313 1444 CURVE",
"-313 1284 LINE",
"-280 1256 OFFCURVE",
"-240 1236 OFFCURVE",
"-191 1224 CURVE SMOOTH",
"-142 1212 OFFCURVE",
"-61 1206 OFFCURVE",
"53 1206 CURVE SMOOTH",
"66 1206 LINE",
"47 1118 OFFCURVE",
"36 1019 OFFCURVE",
"33 909 CURVE",
"0 909 LINE",
"0 745 LINE",
"39 197 LINE"
);
}
);
width = 1204;
}
);
note = u182F_182F.med;
},
{
glyphname = u1833.finV1;
lastChange = "2016-11-10 17:40:46 +0000";
layers = (
{
layerId = "ECD52525-6592-4E14-BB2F-A163A2F4C2CC";
paths = (
{
closed = 1;
nodes = (
"856 -322 OFFCURVE",
"1006 -172 OFFCURVE",
"1006 55 CURVE SMOOTH",
"1006 310 OFFCURVE",
"847 475 OFFCURVE",
"594 475 CURVE SMOOTH",
"466 475 OFFCURVE",
"356 411 OFFCURVE",
"291 315 CURVE",
"240 461 OFFCURVE",
"197 604 OFFCURVE",
"162 745 CURVE",
"1317 745 LINE SMOOTH",
"1461 745 OFFCURVE",
"1518 683 OFFCURVE",
"1518 571 CURVE SMOOTH",
"1518 484 OFFCURVE",
"1503 404 OFFCURVE",
"1473 332 CURVE",
"1624 332 LINE",
"1658 404 OFFCURVE",
"1675 484 OFFCURVE",
"1675 571 CURVE SMOOTH",
"1675 796 OFFCURVE",
"1556 909 OFFCURVE",
"1317 909 CURVE SMOOTH",
"0 909 LINE",
"0 745 LINE",
"47 545 OFFCURVE",
"105 357 OFFCURVE",
"174 181 CURVE SMOOTH",
"310 -172 OFFCURVE",
"445 -322 OFFCURVE",
"653 -322 CURVE SMOOTH"
);
},
{
closed = 1;
nodes = (
"538 -158 OFFCURVE",
"445 -68 OFFCURVE",
"352 156 CURVE",
"399 251 OFFCURVE",
"490 313 OFFCURVE",
"594 313 CURVE SMOOTH",
"763 313 OFFCURVE",
"846 211 OFFCURVE",
"846 55 CURVE SMOOTH",
"846 -78 OFFCURVE",
"768 -158 OFFCURVE",
"653 -158 CURVE SMOOTH"
);
}
);
width = 1767;
}
);
note = u1833.finV1;
},
{
glyphname = u182D_182F.med;
lastChange = "2016-11-10 17:40:46 +0000";
layers = (
{
layerId = "ECD52525-6592-4E14-BB2F-A163A2F4C2CC";
paths = (
{
closed = 1;
nodes = (
"403 174 LINE",
"226 437 OFFCURVE",
"156 618 OFFCURVE",
"156 854 CURVE SMOOTH",
"156 1169 OFFCURVE",
"275 1319 OFFCURVE",
"463 1319 CURVE SMOOTH",
"607 1319 OFFCURVE",
"685 1248 OFFCURVE",
"731 1090 CURVE SMOOTH",
"754 1011 OFFCURVE",
"771 896 OFFCURVE",
"782 745 CURVE SMOOTH",
"821 197 LINE",
"956 197 LINE",
"995 745 LINE",
"1425 745 LINE",
"1425 909 LINE",
"932 909 LINE",
"915 1039 OFFCURVE",
"887 1149 OFFCURVE",
"848 1239 CURVE",
"848 1416 OFFCURVE",
"904 1568 OFFCURVE",
"1016 1737 CURVE",
"1016 1872 LINE",
"770 1872 LINE SMOOTH",
"561 1872 OFFCURVE",
"480 1890 OFFCURVE",
"401 1946 CURVE",
"401 1786 LINE",
"433 1759 OFFCURVE",
"474 1739 OFFCURVE",
"523 1727 CURVE SMOOTH",
"572 1714 OFFCURVE",
"655 1708 OFFCURVE",
"770 1708 CURVE SMOOTH",
"827 1708 LINE",
"775 1619 OFFCURVE",
"739 1519 OFFCURVE",
"719 1409 CURVE",
"650 1462 OFFCURVE",
"565 1489 OFFCURVE",
"463 1489 CURVE SMOOTH",
"369 1489 OFFCURVE",
"286 1464 OFFCURVE",
"215 1413 CURVE SMOOTH",
"71 1311 OFFCURVE",
"-6 1111 OFFCURVE",
"-6 854 CURVE SMOOTH",
"-6 613 OFFCURVE",
"82 357 OFFCURVE",
"258 86 CURVE"
);
}
);
width = 1364;
}
);
note = u182D_182F.med;
},
{
glyphname = u182A_1822;
lastChange = "2016-11-10 17:40:46 +0000";
layers = (
{
layerId = "ECD52525-6592-4E14-BB2F-A163A2F4C2CC";
paths = (
{
closed = 1;
nodes = (
"1642 -63 LINE",
"1479 232 OFFCURVE",
"1368 488 OFFCURVE",
"1315 745 CURVE",
"1939 745 LINE SMOOTH",
"2084 745 OFFCURVE",
"2140 683 OFFCURVE",
"2140 571 CURVE SMOOTH",
"2140 481 OFFCURVE",
"2125 401 OFFCURVE",
"2095 332 CURVE",
"2247 332 LINE",
"2281 407 OFFCURVE",
"2298 487 OFFCURVE",
"2298 571 CURVE SMOOTH",
"2298 796 OFFCURVE",
"2178 909 OFFCURVE",
"1939 909 CURVE SMOOTH",
"1284 909 LINE",
"1195 1401 OFFCURVE",
"1008 1602 OFFCURVE",
"676 1602 CURVE SMOOTH",
"313 1602 OFFCURVE",
"92 1315 OFFCURVE",
"92 836 CURVE SMOOTH",
"92 329 OFFCURVE",
"244 82 OFFCURVE",
"553 82 CURVE SMOOTH",
"624 82 OFFCURVE",
"688 102 OFFCURVE",
"745 142 CURVE SMOOTH",
"857 221 OFFCURVE",
"924 376 OFFCURVE",
"924 563 CURVE SMOOTH",
"924 647 OFFCURVE",
"902 826 OFFCURVE",
"877 909 CURVE",
"254 909 LINE",
"259 1233 OFFCURVE",
"419 1432 OFFCURVE",
"676 1432 CURVE SMOOTH",
"929 1432 OFFCURVE",
"1061 1264 OFFCURVE",
"1130 856 CURVE SMOOTH",
"1189 513 OFFCURVE",
"1266 295 OFFCURVE",
"1493 -137 CURVE"
);
},
{
closed = 1;
nodes = (
"355 252 OFFCURVE",
"259 416 OFFCURVE",
"254 745 CURVE",
"741 745 LINE",
"755 707 OFFCURVE",
"762 646 OFFCURVE",
"762 563 CURVE SMOOTH",
"762 356 OFFCURVE",
"669 252 OFFCURVE",
"541 252 CURVE SMOOTH"
);
}
);
width = 2390;
}
);
note = u182A_1822;
},
{
glyphname = u1838.fin;
lastChange = "2016-11-10 17:40:46 +0000";
layers = (
{
layerId = "ECD52525-6592-4E14-BB2F-A163A2F4C2CC";
paths = (
{
closed = 1;
nodes = (
"709 -244 OFFCURVE",
"772 -218 OFFCURVE",
"803 -174 CURVE",
"803 12 LINE",
"763 -45 OFFCURVE",
"706 -74 OFFCURVE",
"633 -74 CURVE SMOOTH",
"580 -74 OFFCURVE",
"531 -46 OFFCURVE",
"485 9 CURVE SMOOTH",
"393 120 OFFCURVE",
"243 460 OFFCURVE",
"162 745 CURVE",
"999 745 LINE SMOOTH",
"1144 745 OFFCURVE",
"1200 683 OFFCURVE",
"1200 571 CURVE SMOOTH",
"1200 481 OFFCURVE",
"1185 401 OFFCURVE",
"1155 332 CURVE",
"1307 332 LINE",
"1341 407 OFFCURVE",
"1358 487 OFFCURVE",
"1358 571 CURVE SMOOTH",
"1358 796 OFFCURVE",
"1238 909 OFFCURVE",
"999 909 CURVE SMOOTH",
"0 909 LINE",
"0 745 LINE",
"80 449 OFFCURVE",
"195 163 OFFCURVE",
"288 -1 CURVE SMOOTH",
"380 -165 OFFCURVE",
"481 -244 OFFCURVE",
"633 -244 CURVE SMOOTH"
);
}
);
width = 1450;
}
);
note = u1838.fin;
},
{
glyphname = MongolianRing;
lastChange = "2016-11-10 17:40:46 +0000";
layers = (
{
layerId = "ECD52525-6592-4E14-BB2F-A163A2F4C2CC";
paths = (
{
closed = 1;
nodes = (
"457 -432 OFFCURVE",
"567 -323 OFFCURVE",
"567 -188 CURVE SMOOTH",
"567 -53 OFFCURVE",
"457 55 OFFCURVE",
"324 55 CURVE SMOOTH",
"188 55 OFFCURVE",
"80 -55 OFFCURVE",
"80 -188 CURVE SMOOTH",
"80 -323 OFFCURVE",
"189 -432 OFFCURVE",
"324 -432 CURVE SMOOTH"
);
},
{
closed = 1;
nodes = (
"244 -330 OFFCURVE",
"184 -268 OFFCURVE",
"184 -188 CURVE SMOOTH",
"184 -109 OFFCURVE",
"244 -49 OFFCURVE",
"324 -49 CURVE SMOOTH",
"403 -49 OFFCURVE",
"465 -109 OFFCURVE",
"465 -188 CURVE SMOOTH",
"465 -268 OFFCURVE",
"403 -330 OFFCURVE",
"324 -330 CURVE SMOOTH"
);
}
);
width = 649;
}
);
note = MongolianRing;
},
{
glyphname = u182A.ini;
lastChange = "2016-11-10 17:40:46 +0000";
layers = (
{
layerId = "ECD52525-6592-4E14-BB2F-A163A2F4C2CC";
paths = (
{
closed = 1;
nodes = (
"625 82 OFFCURVE",
"688 102 OFFCURVE",
"745 142 CURVE SMOOTH",
"857 221 OFFCURVE",
"924 376 OFFCURVE",
"924 563 CURVE SMOOTH",
"924 647 OFFCURVE",
"902 826 OFFCURVE",
"877 909 CURVE",
"254 909 LINE",
"259 1230 OFFCURVE",
"422 1432 OFFCURVE",
"686 1432 CURVE SMOOTH",
"775 1432 OFFCURVE",
"854 1405 OFFCURVE",
"922 1351 CURVE SMOOTH",
"1057 1243 OFFCURVE",
"1134 1034 OFFCURVE",
"1141 745 CURVE",
"1292 745 LINE",
"1292 916 OFFCURVE",
"1267 1067 OFFCURVE",
"1216 1198 CURVE SMOOTH",
"1114 1459 OFFCURVE",
"921 1602 OFFCURVE",
"686 1602 CURVE SMOOTH",
"317 1602 OFFCURVE",
"92 1312 OFFCURVE",
"92 836 CURVE SMOOTH",
"92 332 OFFCURVE",
"242 82 OFFCURVE",
"555 82 CURVE SMOOTH"
);
},
{
closed = 1;
nodes = (
"355 252 OFFCURVE",
"259 416 OFFCURVE",
"254 745 CURVE",
"741 745 LINE",
"755 707 OFFCURVE",
"762 646 OFFCURVE",
"762 563 CURVE SMOOTH",
"762 356 OFFCURVE",
"669 252 OFFCURVE",
"541 252 CURVE SMOOTH"
);
}
);
width = 1141;
}
);
note = u182A.ini;
},
{
glyphname = u1844.med;
lastChange = "2016-11-10 17:40:46 +0000";
layers = (
{
layerId = "ECD52525-6592-4E14-BB2F-A163A2F4C2CC";
paths = (
{
closed = 1;
nodes = (
"741 188 LINE",
"704 221 OFFCURVE",
"627 244 OFFCURVE",
"526 244 CURVE SMOOTH",
"442 244 LINE SMOOTH",
"255 244 OFFCURVE",
"162 342 OFFCURVE",
"162 539 CURVE SMOOTH",
"162 745 LINE",
"1053 745 LINE",
"1053 909 LINE",
"0 909 LINE",
"0 539 LINE SMOOTH",
"0 224 OFFCURVE",
"158 74 OFFCURVE",
"442 74 CURVE SMOOTH",
"526 74 LINE SMOOTH",
"629 74 OFFCURVE",
"700 55 OFFCURVE",
"741 18 CURVE"
);
}
);
width = 991;
}
);
note = u1844.med;
},
{
glyphname = u1845.medV1;
lastChange = "2016-11-10 17:40:46 +0000";
layers = (
{
layerId = "ECD52525-6592-4E14-BB2F-A163A2F4C2CC";
paths = (
{
closed = 1;
nodes = (
"1446 188 LINE",
"1403 225 OFFCURVE",
"1331 244 OFFCURVE",
"1231 244 CURVE SMOOTH",
"1171 244 LINE",
"1171 745 LINE",
"1757 745 LINE",
"1757 909 LINE",
"1010 909 LINE",
"1010 244 LINE",
"942 244 LINE SMOOTH",
"809 244 OFFCURVE",
"743 315 OFFCURVE",
"743 457 CURVE SMOOTH",
"743 909 LINE",
"0 909 LINE",
"0 745 LINE",
"39 197 LINE",
"174 197 LINE",
"213 745 LINE",
"582 745 LINE",
"582 457 LINE SMOOTH",
"582 202 OFFCURVE",
"702 74 OFFCURVE",
"942 74 CURVE SMOOTH",
"1231 74 LINE SMOOTH",
"1333 74 OFFCURVE",
"1405 55 OFFCURVE",
"1446 18 CURVE"
);
}
);
width = 1696;
}
);
note = u1845.medV1;
},
{
glyphname = u1845.fin;
lastChange = "2016-11-10 17:40:46 +0000";
layers = (
{
layerId = "ECD52525-6592-4E14-BB2F-A163A2F4C2CC";
paths = (
{
closed = 1;
nodes = (
"698 345 OFFCURVE",
"756 527 OFFCURVE",
"756 764 CURVE SMOOTH",
"756 903 OFFCURVE",
"726 1026 OFFCURVE",
"667 1132 CURVE SMOOTH",
"547 1343 OFFCURVE",
"309 1462 OFFCURVE",
"0 1462 CURVE",
"0 197 LINE",
"162 197 LINE",
"162 1288 LINE",
"443 1239 OFFCURVE",
"594 1056 OFFCURVE",
"594 764 CURVE SMOOTH",
"594 564 OFFCURVE",
"543 415 OFFCURVE",
"428 272 CURVE",
"569 178 LINE"
);
}
);
width = 848;
}
);
note = u1845.fin;
},
{
glyphname = u1845;
lastChange = "2016-11-10 17:40:46 +0000";
layers = (
{
layerId = "ECD52525-6592-4E14-BB2F-A163A2F4C2CC";
paths = (
{
closed = 1;
nodes = (
"598 152 LINE",
"618 449 LINE SMOOTH",
"624 532 OFFCURVE",
"636 593 OFFCURVE",
"655 634 CURVE SMOOTH",
"692 714 OFFCURVE",
"756 745 OFFCURVE",
"911 745 CURVE SMOOTH",
"1008 745 LINE",
"1008 197 LINE",
"1169 197 LINE",
"1169 1288 LINE",
"1454 1237 OFFCURVE",
"1602 1052 OFFCURVE",
"1602 764 CURVE SMOOTH",
"1602 564 OFFCURVE",
"1551 415 OFFCURVE",
"1436 272 CURVE",
"1577 178 LINE",
"1705 345 OFFCURVE",
"1763 527 OFFCURVE",
"1763 764 CURVE SMOOTH",
"1763 903 OFFCURVE",
"1733 1026 OFFCURVE",
"1674 1132 CURVE SMOOTH",
"1554 1343 OFFCURVE",
"1317 1462 OFFCURVE",
"1008 1462 CURVE",
"1008 909 LINE",
"909 909 LINE SMOOTH",
"738 909 OFFCURVE",
"629 852 OFFCURVE",
"584 739 CURVE",
"575 739 LINE",
"569 911 LINE SMOOTH",
"560 1215 OFFCURVE",
"486 1337 OFFCURVE",
"285 1337 CURVE SMOOTH",
"204 1337 OFFCURVE",
"116 1317 OFFCURVE",
"20 1276 CURVE",
"20 1126 LINE",
"106 1161 OFFCURVE",
"180 1178 OFFCURVE",
"242 1178 CURVE SMOOTH",
"354 1178 OFFCURVE",
"395 1100 OFFCURVE",
"410 895 CURVE SMOOTH",
"463 152 LINE"
);
}
);
width = 1855;
}
);
note = u1845;
unicode = 1845;
},
{
glyphname = u1844.fin;
lastChange = "2016-11-10 17:40:46 +0000";
layers = (
{
layerId = "ECD52525-6592-4E14-BB2F-A163A2F4C2CC";
paths = (
{
closed = 1;
nodes = (
"741 188 LINE",
"704 221 OFFCURVE",
"627 244 OFFCURVE",
"526 244 CURVE SMOOTH",
"442 244 LINE SMOOTH",
"255 244 OFFCURVE",
"162 342 OFFCURVE",
"162 539 CURVE SMOOTH",
"162 745 LINE",
"741 745 LINE",
"741 909 LINE",
"0 909 LINE",
"0 539 LINE SMOOTH",
"0 224 OFFCURVE",
"158 74 OFFCURVE",
"442 74 CURVE SMOOTH",
"526 74 LINE SMOOTH",
"629 74 OFFCURVE",
"700 55 OFFCURVE",
"741 18 CURVE"
);
}
);
width = 834;
}
);
note = u1844.fin;
},
{
glyphname = u1844.medV1;
lastChange = "2016-11-10 17:40:46 +0000";
layers = (
{
layerId = "ECD52525-6592-4E14-BB2F-A163A2F4C2CC";
paths = (
{
closed = 1;
nodes = (
"1323 188 LINE",
"1280 225 OFFCURVE",
"1208 244 OFFCURVE",
"1108 244 CURVE SMOOTH",
"1024 244 LINE SMOOTH",
"837 244 OFFCURVE",
"743 342 OFFCURVE",
"743 539 CURVE SMOOTH",
"743 745 LINE",
"1634 745 LINE",
"1634 909 LINE",
"0 909 LINE",
"0 745 LINE",
"39 197 LINE",
"174 197 LINE",
"213 745 LINE",
"582 745 LINE",
"582 539 LINE SMOOTH",
"582 224 OFFCURVE",
"740 74 OFFCURVE",
"1024 74 CURVE SMOOTH",
"1108 74 LINE SMOOTH",
"1211 74 OFFCURVE",
"1282 55 OFFCURVE",
"1323 18 CURVE"
);
}
);
width = 1573;
}
);
note = u1844.medV1;
},
{
glyphname = u1845.ini;
lastChange = "2016-11-10 17:40:46 +0000";
layers = (
{
layerId = "ECD52525-6592-4E14-BB2F-A163A2F4C2CC";
paths = (
{
closed = 1;
nodes = (
"1872 188 LINE",
"1829 225 OFFCURVE",
"1757 244 OFFCURVE",
"1657 244 CURVE SMOOTH",
"1597 244 LINE",
"1597 745 LINE",
"2183 745 LINE",
"2183 909 LINE",
"1436 909 LINE",
"1436 244 LINE",
"1368 244 LINE SMOOTH",
"1235 244 OFFCURVE",
"1169 315 OFFCURVE",
"1169 457 CURVE SMOOTH",
"1169 909 LINE",
"909 909 LINE SMOOTH",
"738 909 OFFCURVE",
"629 852 OFFCURVE",
"584 739 CURVE",
"575 739 LINE",
"569 911 LINE SMOOTH",
"560 1215 OFFCURVE",
"486 1337 OFFCURVE",
"285 1337 CURVE SMOOTH",
"204 1337 OFFCURVE",
"116 1317 OFFCURVE",
"20 1276 CURVE",
"20 1126 LINE",
"106 1161 OFFCURVE",
"180 1178 OFFCURVE",
"242 1178 CURVE SMOOTH",
"354 1178 OFFCURVE",
"395 1100 OFFCURVE",
"410 895 CURVE SMOOTH",
"463 152 LINE",
"598 152 LINE",
"618 449 LINE SMOOTH",
"624 532 OFFCURVE",
"636 593 OFFCURVE",
"655 634 CURVE SMOOTH",
"692 714 OFFCURVE",
"756 745 OFFCURVE",
"911 745 CURVE SMOOTH",
"1008 745 LINE",
"1008 457 LINE SMOOTH",
"1008 202 OFFCURVE",
"1128 74 OFFCURVE",
"1368 74 CURVE SMOOTH",
"1657 74 LINE SMOOTH",
"1759 74 OFFCURVE",
"1831 55 OFFCURVE",
"1872 18 CURVE"
);
}
);
width = 2122;
}
);
note = u1845.ini;
},
{
glyphname = u1844.ini;
lastChange = "2016-11-10 17:40:46 +0000";
layers = (
{
layerId = "ECD52525-6592-4E14-BB2F-A163A2F4C2CC";
paths = (
{
closed = 1;
nodes = (
"1749 188 LINE",
"1706 225 OFFCURVE",
"1634 244 OFFCURVE",
"1534 244 CURVE SMOOTH",
"1450 244 LINE SMOOTH",
"1263 244 OFFCURVE",
"1169 342 OFFCURVE",
"1169 539 CURVE SMOOTH",
"1169 745 LINE",
"2060 745 LINE",
"2060 909 LINE",
"909 909 LINE SMOOTH",
"738 909 OFFCURVE",
"629 852 OFFCURVE",
"584 739 CURVE",
"575 739 LINE",
"569 911 LINE SMOOTH",
"560 1215 OFFCURVE",
"486 1337 OFFCURVE",
"285 1337 CURVE SMOOTH",
"204 1337 OFFCURVE",
"116 1317 OFFCURVE",
"20 1276 CURVE",
"20 1126 LINE",
"106 1161 OFFCURVE",
"180 1178 OFFCURVE",
"242 1178 CURVE SMOOTH",
"354 1178 OFFCURVE",
"395 1100 OFFCURVE",
"410 895 CURVE SMOOTH",
"463 152 LINE",
"598 152 LINE",
"618 449 LINE SMOOTH",
"624 532 OFFCURVE",
"636 593 OFFCURVE",
"655 634 CURVE SMOOTH",
"692 714 OFFCURVE",
"756 745 OFFCURVE",
"911 745 CURVE SMOOTH",
"1008 745 LINE",
"1008 539 LINE SMOOTH",
"1008 224 OFFCURVE",
"1166 74 OFFCURVE",
"1450 74 CURVE SMOOTH",
"1534 74 LINE SMOOTH",
"1637 74 OFFCURVE",
"1708 55 OFFCURVE",
"1749 18 CURVE"
);
}
);
width = 1999;
}
);
note = u1844.ini;
},
{
glyphname = u1844;
lastChange = "2016-11-10 17:40:46 +0000";
layers = (
{
layerId = "ECD52525-6592-4E14-BB2F-A163A2F4C2CC";
paths = (
{
closed = 1;
nodes = (
"1749 188 LINE",
"1706 225 OFFCURVE",
"1634 244 OFFCURVE",
"1534 244 CURVE SMOOTH",
"1450 244 LINE SMOOTH",
"1263 244 OFFCURVE",
"1169 342 OFFCURVE",
"1169 539 CURVE SMOOTH",
"1169 745 LINE",
"1749 745 LINE",
"1749 909 LINE",
"909 909 LINE SMOOTH",
"738 909 OFFCURVE",
"629 852 OFFCURVE",
"584 739 CURVE",
"575 739 LINE",
"569 911 LINE SMOOTH",
"560 1215 OFFCURVE",
"486 1337 OFFCURVE",
"285 1337 CURVE SMOOTH",
"204 1337 OFFCURVE",
"116 1317 OFFCURVE",
"20 1276 CURVE",
"20 1126 LINE",
"106 1161 OFFCURVE",
"180 1178 OFFCURVE",
"242 1178 CURVE SMOOTH",
"354 1178 OFFCURVE",
"395 1100 OFFCURVE",
"410 895 CURVE SMOOTH",
"463 152 LINE",
"598 152 LINE",
"618 449 LINE SMOOTH",
"624 532 OFFCURVE",
"636 593 OFFCURVE",
"655 634 CURVE SMOOTH",
"692 714 OFFCURVE",
"756 745 OFFCURVE",
"911 745 CURVE SMOOTH",
"1008 745 LINE",
"1008 539 LINE SMOOTH",
"1008 224 OFFCURVE",
"1166 74 OFFCURVE",
"1450 74 CURVE SMOOTH",
"1534 74 LINE SMOOTH",
"1637 74 OFFCURVE",
"1708 55 OFFCURVE",
"1749 18 CURVE"
);
}
);
width = 1841;
}
);
note = u1844;
unicode = 1844;
},
{
glyphname = u1846.ini;
lastChange = "2016-11-10 17:40:46 +0000";
layers = (
{
layerId = "ECD52525-6592-4E14-BB2F-A163A2F4C2CC";
paths = (
{
closed = 1;
nodes = (
"1782 745 LINE",
"2216 745 LINE",
"2216 909 LINE",
"909 909 LINE SMOOTH",
"738 909 OFFCURVE",
"629 852 OFFCURVE",
"584 739 CURVE",
"575 739 LINE",
"569 911 LINE SMOOTH",
"560 1215 OFFCURVE",
"486 1337 OFFCURVE",
"285 1337 CURVE SMOOTH",
"204 1337 OFFCURVE",
"116 1317 OFFCURVE",
"20 1276 CURVE",
"20 1126 LINE",
"106 1161 OFFCURVE",
"180 1178 OFFCURVE",
"242 1178 CURVE SMOOTH",
"354 1178 OFFCURVE",
"395 1100 OFFCURVE",
"410 895 CURVE SMOOTH",
"463 152 LINE",
"598 152 LINE",
"618 449 LINE SMOOTH",
"624 532 OFFCURVE",
"636 593 OFFCURVE",
"655 634 CURVE SMOOTH",
"692 714 OFFCURVE",
"756 745 OFFCURVE",
"911 745 CURVE SMOOTH",
"1008 745 LINE",
"1008 547 LINE SMOOTH",
"1008 315 OFFCURVE",
"1125 151 OFFCURVE",
"1368 96 CURVE SMOOTH",
"1782 6 LINE"
);
},
{
closed = 1;
nodes = (
"1413 260 LINE SMOOTH",
"1249 299 OFFCURVE",
"1169 402 OFFCURVE",
"1169 547 CURVE SMOOTH",
"1169 745 LINE",
"1622 745 LINE",
"1622 213 LINE"
);
}
);
width = 2154;
}
);
note = u1846.ini;
},
{
glyphname = u1846;
lastChange = "2016-11-10 17:40:46 +0000";
layers = (
{
layerId = "ECD52525-6592-4E14-BB2F-A163A2F4C2CC";
paths = (
{
closed = 1;
nodes = (
"1782 909 LINE",
"909 909 LINE SMOOTH",
"738 909 OFFCURVE",
"629 852 OFFCURVE",
"584 739 CURVE",
"575 739 LINE",
"569 911 LINE SMOOTH",
"560 1215 OFFCURVE",
"486 1337 OFFCURVE",
"285 1337 CURVE SMOOTH",
"204 1337 OFFCURVE",
"116 1317 OFFCURVE",
"20 1276 CURVE",
"20 1126 LINE",
"106 1161 OFFCURVE",
"180 1178 OFFCURVE",
"242 1178 CURVE SMOOTH",
"354 1178 OFFCURVE",
"395 1100 OFFCURVE",
"410 895 CURVE SMOOTH",
"463 152 LINE",
"598 152 LINE",
"618 449 LINE SMOOTH",
"624 532 OFFCURVE",
"636 593 OFFCURVE",
"655 634 CURVE SMOOTH",
"692 714 OFFCURVE",
"756 745 OFFCURVE",
"911 745 CURVE SMOOTH",
"1008 745 LINE",
"1008 547 LINE SMOOTH",
"1008 315 OFFCURVE",
"1125 151 OFFCURVE",
"1368 96 CURVE SMOOTH",
"1782 6 LINE"
);
},
{
closed = 1;
nodes = (
"1413 260 LINE SMOOTH",
"1249 299 OFFCURVE",
"1169 402 OFFCURVE",
"1169 547 CURVE SMOOTH",
"1169 745 LINE",
"1622 745 LINE",
"1622 213 LINE"
);
}
);
width = 1874;
}
);
note = u1846;
unicode = 1846;
},
{
glyphname = u1847;
lastChange = "2016-11-10 17:40:46 +0000";
layers = (
{
layerId = "ECD52525-6592-4E14-BB2F-A163A2F4C2CC";
paths = (
{
closed = 1;
nodes = (
"1767 -166 LINE",
"1718 -80 OFFCURVE",
"1669 15 OFFCURVE",
"1622 119 CURVE",
"1750 187 OFFCURVE",
"1837 342 OFFCURVE",
"1837 563 CURVE SMOOTH",
"1837 655 OFFCURVE",
"1818 818 OFFCURVE",
"1790 909 CURVE",
"1167 909 LINE",
"1172 1226 OFFCURVE",
"1332 1432 OFFCURVE",
"1599 1432 CURVE SMOOTH",
"1856 1432 OFFCURVE",
"2023 1203 OFFCURVE",
"2050 838 CURVE",
"2214 858 LINE",
"2205 1002 OFFCURVE",
"2174 1131 OFFCURVE",
"2119 1246 CURVE SMOOTH",
"2009 1474 OFFCURVE",
"1823 1602 OFFCURVE",
"1599 1602 CURVE SMOOTH",
"1251 1602 OFFCURVE",
"1029 1342 OFFCURVE",
"1008 909 CURVE",
"909 909 LINE SMOOTH",
"738 909 OFFCURVE",
"629 852 OFFCURVE",
"584 739 CURVE",
"575 739 LINE",
"569 911 LINE SMOOTH",
"560 1215 OFFCURVE",
"486 1337 OFFCURVE",
"285 1337 CURVE SMOOTH",
"204 1337 OFFCURVE",
"116 1317 OFFCURVE",
"20 1276 CURVE",
"20 1126 LINE",
"106 1161 OFFCURVE",
"180 1178 OFFCURVE",
"242 1178 CURVE SMOOTH",
"354 1178 OFFCURVE",
"395 1100 OFFCURVE",
"410 895 CURVE SMOOTH",
"463 152 LINE",
"598 152 LINE",
"618 449 LINE SMOOTH",
"624 532 OFFCURVE",
"636 593 OFFCURVE",
"655 634 CURVE SMOOTH",
"692 714 OFFCURVE",
"756 745 OFFCURVE",
"911 745 CURVE SMOOTH",
"1006 745 LINE",
"1026 294 OFFCURVE",
"1174 89 OFFCURVE",
"1458 82 CURVE",
"1503 -21 OFFCURVE",
"1558 -131 OFFCURVE",
"1622 -248 CURVE"
);
},
{
closed = 1;
nodes = (
"1269 252 OFFCURVE",
"1173 416 OFFCURVE",
"1167 745 CURVE",
"1655 745 LINE",
"1668 705 OFFCURVE",
"1675 644 OFFCURVE",
"1675 563 CURVE SMOOTH",
"1675 356 OFFCURVE",
"1582 252 OFFCURVE",
"1454 252 CURVE SMOOTH"
);
}
);
width = 2306;
}
);
note = u1847;
unicode = 1847;
},
{
glyphname = u1847.V1;
lastChange = "2016-11-10 17:40:46 +0000";
layers = (
{
layerId = "ECD52525-6592-4E14-BB2F-A163A2F4C2CC";
paths = (
{
closed = 1;
nodes = (
"1718 -166 LINE",
"1666 -75 OFFCURVE",
"1619 18 OFFCURVE",
"1577 111 CURVE",
"1725 166 OFFCURVE",
"1817 297 OFFCURVE",
"1817 510 CURVE SMOOTH",
"1817 645 OFFCURVE",
"1779 806 OFFCURVE",
"1720 909 CURVE",
"909 909 LINE SMOOTH",
"738 909 OFFCURVE",
"629 852 OFFCURVE",
"584 739 CURVE",
"575 739 LINE",
"569 911 LINE SMOOTH",
"560 1215 OFFCURVE",
"486 1337 OFFCURVE",
"285 1337 CURVE SMOOTH",
"204 1337 OFFCURVE",
"116 1317 OFFCURVE",
"20 1276 CURVE",
"20 1126 LINE",
"106 1161 OFFCURVE",
"180 1178 OFFCURVE",
"242 1178 CURVE SMOOTH",
"354 1178 OFFCURVE",
"395 1100 OFFCURVE",
"410 895 CURVE SMOOTH",
"463 152 LINE",
"598 152 LINE",
"618 449 LINE SMOOTH",
"624 532 OFFCURVE",
"636 593 OFFCURVE",
"655 634 CURVE SMOOTH",
"692 714 OFFCURVE",
"756 745 OFFCURVE",
"911 745 CURVE SMOOTH",
"1049 745 LINE",
"1022 681 OFFCURVE",
"1008 603 OFFCURVE",
"1008 510 CURVE SMOOTH",
"1008 226 OFFCURVE",
"1164 82 OFFCURVE",
"1409 82 CURVE",
"1454 -21 OFFCURVE",
"1509 -131 OFFCURVE",
"1573 -248 CURVE"
);
},
{
closed = 1;
nodes = (
"1250 252 OFFCURVE",
"1169 339 OFFCURVE",
"1169 514 CURVE SMOOTH",
"1169 602 OFFCURVE",
"1183 679 OFFCURVE",
"1210 745 CURVE",
"1610 745 LINE",
"1640 673 OFFCURVE",
"1655 596 OFFCURVE",
"1655 514 CURVE SMOOTH",
"1655 339 OFFCURVE",
"1562 252 OFFCURVE",
"1411 252 CURVE SMOOTH"
);
}
);
width = 1909;
}
);
note = u1847.V1;
},
{
glyphname = u1847.ini;
lastChange = "2016-11-10 17:40:46 +0000";
layers = (
{
layerId = "ECD52525-6592-4E14-BB2F-A163A2F4C2CC";
paths = (
{
closed = 1;
nodes = (
"1718 -166 LINE",
"1666 -75 OFFCURVE",
"1619 18 OFFCURVE",
"1577 111 CURVE",
"1725 166 OFFCURVE",
"1817 297 OFFCURVE",
"1817 510 CURVE SMOOTH",
"1817 600 OFFCURVE",
"1802 678 OFFCURVE",
"1772 745 CURVE",
"2243 745 LINE",
"2243 909 LINE",
"909 909 LINE SMOOTH",
"738 909 OFFCURVE",
"629 852 OFFCURVE",
"584 739 CURVE",
"575 739 LINE",
"569 911 LINE SMOOTH",
"560 1215 OFFCURVE",
"486 1337 OFFCURVE",
"285 1337 CURVE SMOOTH",
"204 1337 OFFCURVE",
"116 1317 OFFCURVE",
"20 1276 CURVE",
"20 1126 LINE",
"106 1161 OFFCURVE",
"180 1178 OFFCURVE",
"242 1178 CURVE SMOOTH",
"354 1178 OFFCURVE",
"395 1100 OFFCURVE",
"410 895 CURVE SMOOTH",
"463 152 LINE",
"598 152 LINE",
"618 449 LINE SMOOTH",
"624 532 OFFCURVE",
"636 593 OFFCURVE",
"655 634 CURVE SMOOTH",
"692 714 OFFCURVE",
"756 745 OFFCURVE",
"911 745 CURVE SMOOTH",
"1049 745 LINE",
"1022 681 OFFCURVE",
"1008 603 OFFCURVE",
"1008 510 CURVE SMOOTH",
"1008 226 OFFCURVE",
"1164 82 OFFCURVE",
"1409 82 CURVE",
"1454 -21 OFFCURVE",
"1509 -131 OFFCURVE",
"1573 -248 CURVE"
);
},
{
closed = 1;
nodes = (
"1250 252 OFFCURVE",
"1169 339 OFFCURVE",
"1169 514 CURVE SMOOTH",
"1169 602 OFFCURVE",
"1183 679 OFFCURVE",
"1210 745 CURVE",
"1614 745 LINE",
"1641 679 OFFCURVE",
"1655 602 OFFCURVE",
"1655 514 CURVE SMOOTH",
"1655 339 OFFCURVE",
"1562 252 OFFCURVE",
"1411 252 CURVE SMOOTH"
);
}
);
width = 2181;
}
);
note = u1847.ini;
},
{
glyphname = u1847.med;
lastChange = "2016-11-10 17:40:46 +0000";
layers = (
{
layerId = "ECD52525-6592-4E14-BB2F-A163A2F4C2CC";
paths = (
{
closed = 1;
nodes = (
"711 -166 LINE",
"654 -63 OFFCURVE",
"607 28 OFFCURVE",
"570 109 CURVE",
"719 164 OFFCURVE",
"809 310 OFFCURVE",
"809 510 CURVE SMOOTH",
"809 600 OFFCURVE",
"794 678 OFFCURVE",
"764 745 CURVE",
"1235 745 LINE",
"1235 909 LINE",
"0 909 LINE",
"0 745 LINE",
"41 745 LINE",
"14 681 OFFCURVE",
"0 603 OFFCURVE",
"0 510 CURVE SMOOTH",
"0 229 OFFCURVE",
"151 82 OFFCURVE",
"402 82 CURVE",
"450 -26 OFFCURVE",
"504 -136 OFFCURVE",
"565 -248 CURVE"
);
},
{
closed = 1;
nodes = (
"242 252 OFFCURVE",
"162 339 OFFCURVE",
"162 514 CURVE SMOOTH",
"162 605 OFFCURVE",
"176 682 OFFCURVE",
"203 745 CURVE",
"606 745 LINE",
"633 682 OFFCURVE",
"647 605 OFFCURVE",
"647 514 CURVE SMOOTH",
"647 339 OFFCURVE",
"554 252 OFFCURVE",
"403 252 CURVE SMOOTH"
);
}
);
width = 1174;
}
);
note = u1847.med;
},
{
glyphname = u1847.medV1;
lastChange = "2016-11-10 17:40:46 +0000";
layers = (
{
layerId = "ECD52525-6592-4E14-BB2F-A163A2F4C2CC";
paths = (
{
closed = 1;
nodes = (
"1292 -166 LINE",
"1240 -75 OFFCURVE",
"1193 18 OFFCURVE",
"1151 111 CURVE",
"1299 166 OFFCURVE",
"1391 297 OFFCURVE",
"1391 510 CURVE SMOOTH",
"1391 600 OFFCURVE",
"1376 678 OFFCURVE",
"1346 745 CURVE",
"1817 745 LINE",
"1817 909 LINE",
"0 909 LINE",
"0 745 LINE",
"39 197 LINE",
"174 197 LINE",
"213 745 LINE",
"623 745 LINE",
"596 681 OFFCURVE",
"582 603 OFFCURVE",
"582 510 CURVE SMOOTH",
"582 226 OFFCURVE",
"738 82 OFFCURVE",
"983 82 CURVE",
"1028 -21 OFFCURVE",
"1083 -131 OFFCURVE",
"1147 -248 CURVE"
);
},
{
closed = 1;
nodes = (
"824 252 OFFCURVE",
"743 339 OFFCURVE",
"743 514 CURVE SMOOTH",
"743 602 OFFCURVE",
"757 679 OFFCURVE",
"784 745 CURVE",
"1188 745 LINE",
"1215 679 OFFCURVE",
"1229 602 OFFCURVE",
"1229 514 CURVE SMOOTH",
"1229 339 OFFCURVE",
"1136 252 OFFCURVE",
"985 252 CURVE SMOOTH"
);
}
);
width = 1755;
}
);
note = u1847.medV1;
},
{
glyphname = u1847.fin;
lastChange = "2016-11-10 17:40:46 +0000";
layers = (
{
layerId = "ECD52525-6592-4E14-BB2F-A163A2F4C2CC";
paths = (
{
closed = 1;
nodes = (
"760 -166 LINE",
"707 -74 OFFCURVE",
"659 21 OFFCURVE",
"614 119 CURVE",
"743 187 OFFCURVE",
"829 342 OFFCURVE",
"829 563 CURVE SMOOTH",
"829 660 OFFCURVE",
"807 833 OFFCURVE",
"782 909 CURVE",
"160 909 LINE",
"165 1230 OFFCURVE",
"328 1432 OFFCURVE",
"592 1432 CURVE SMOOTH",
"848 1432 OFFCURVE",
"1015 1207 OFFCURVE",
"1042 838 CURVE",
"1206 858 LINE",
"1197 1002 OFFCURVE",
"1166 1131 OFFCURVE",
"1112 1245 CURVE SMOOTH",
"1003 1472 OFFCURVE",
"816 1602 OFFCURVE",
"592 1602 CURVE SMOOTH",
"223 1602 OFFCURVE",
"-2 1312 OFFCURVE",
"-2 836 CURVE SMOOTH",
"-2 345 OFFCURVE",
"139 89 OFFCURVE",
"451 82 CURVE",
"493 -16 OFFCURVE",
"547 -126 OFFCURVE",
"614 -248 CURVE"
);
},
{
closed = 1;
nodes = (
"261 252 OFFCURVE",
"165 416 OFFCURVE",
"160 745 CURVE",
"647 745 LINE",
"661 703 OFFCURVE",
"668 642 OFFCURVE",
"668 563 CURVE SMOOTH",
"668 356 OFFCURVE",
"575 252 OFFCURVE",
"446 252 CURVE SMOOTH"
);
}
);
width = 1298;
}
);
note = u1847.fin;
},
{
glyphname = u1848;
lastChange = "2016-11-10 17:40:46 +0000";
layers = (
{
layerId = "ECD52525-6592-4E14-BB2F-A163A2F4C2CC";
paths = (
{
closed = 1;
nodes = (
"1782 909 LINE",
"1292 909 LINE",
"1231 1060 OFFCURVE",
"1161 1208 OFFCURVE",
"1081 1354 CURVE",
"936 1272 LINE",
"1003 1145 OFFCURVE",
"1063 1024 OFFCURVE",
"1116 909 CURVE",
"909 909 LINE SMOOTH",
"738 909 OFFCURVE",
"629 852 OFFCURVE",
"584 739 CURVE",
"575 739 LINE",
"569 911 LINE SMOOTH",
"560 1215 OFFCURVE",
"486 1337 OFFCURVE",
"285 1337 CURVE SMOOTH",
"204 1337 OFFCURVE",
"116 1317 OFFCURVE",
"20 1276 CURVE",
"20 1126 LINE",
"106 1161 OFFCURVE",
"180 1178 OFFCURVE",
"242 1178 CURVE SMOOTH",
"354 1178 OFFCURVE",
"395 1100 OFFCURVE",
"410 895 CURVE SMOOTH",
"463 152 LINE",
"598 152 LINE",
"618 449 LINE SMOOTH",
"624 532 OFFCURVE",
"636 593 OFFCURVE",
"655 634 CURVE SMOOTH",
"692 714 OFFCURVE",
"756 745 OFFCURVE",
"911 745 CURVE SMOOTH",
"1008 745 LINE",
"1008 547 LINE SMOOTH",
"1008 315 OFFCURVE",
"1125 151 OFFCURVE",
"1368 96 CURVE SMOOTH",
"1782 6 LINE"
);
},
{
closed = 1;
nodes = (
"1413 260 LINE SMOOTH",
"1249 299 OFFCURVE",
"1169 402 OFFCURVE",
"1169 547 CURVE SMOOTH",
"1169 745 LINE",
"1622 745 LINE",
"1622 213 LINE"
);
}
);
width = 1874;
}
);
note = u1848;
unicode = 1848;
},
{
glyphname = u1848.ini;
lastChange = "2016-11-10 17:40:46 +0000";
layers = (
{
layerId = "ECD52525-6592-4E14-BB2F-A163A2F4C2CC";
paths = (
{
closed = 1;
nodes = (
"1782 745 LINE",
"2216 745 LINE",
"2216 909 LINE",
"1292 909 LINE",
"1231 1060 OFFCURVE",
"1161 1208 OFFCURVE",
"1081 1354 CURVE",
"936 1272 LINE",
"1003 1145 OFFCURVE",
"1063 1024 OFFCURVE",
"1116 909 CURVE",
"909 909 LINE SMOOTH",
"738 909 OFFCURVE",
"629 852 OFFCURVE",
"584 739 CURVE",
"575 739 LINE",
"569 911 LINE SMOOTH",
"560 1215 OFFCURVE",
"486 1337 OFFCURVE",
"285 1337 CURVE SMOOTH",
"204 1337 OFFCURVE",
"116 1317 OFFCURVE",
"20 1276 CURVE",
"20 1126 LINE",
"106 1161 OFFCURVE",
"180 1178 OFFCURVE",
"242 1178 CURVE SMOOTH",
"354 1178 OFFCURVE",
"395 1100 OFFCURVE",
"410 895 CURVE SMOOTH",
"463 152 LINE",
"598 152 LINE",
"618 449 LINE SMOOTH",
"624 532 OFFCURVE",
"636 593 OFFCURVE",
"655 634 CURVE SMOOTH",
"692 714 OFFCURVE",
"756 745 OFFCURVE",
"911 745 CURVE SMOOTH",
"1008 745 LINE",
"1008 547 LINE SMOOTH",
"1008 315 OFFCURVE",
"1125 151 OFFCURVE",
"1368 96 CURVE SMOOTH",
"1782 6 LINE"
);
},
{
closed = 1;
nodes = (
"1413 260 LINE SMOOTH",
"1249 299 OFFCURVE",
"1169 402 OFFCURVE",
"1169 547 CURVE SMOOTH",
"1169 745 LINE",
"1622 745 LINE",
"1622 213 LINE"
);
}
);
width = 2154;
}
);
note = u1848.ini;
},
{
glyphname = u1848.med;
lastChange = "2016-11-10 17:40:46 +0000";
layers = (
{
layerId = "ECD52525-6592-4E14-BB2F-A163A2F4C2CC";
paths = (
{
closed = 1;
nodes = (
"774 745 LINE",
"1208 745 LINE",
"1208 909 LINE",
"285 909 LINE",
"228 1050 OFFCURVE",
"158 1199 OFFCURVE",
"74 1354 CURVE",
"-72 1272 LINE",
"-18 1177 OFFCURVE",
"42 1056 OFFCURVE",
"109 909 CURVE",
"0 909 LINE",
"0 547 LINE SMOOTH",
"0 315 OFFCURVE",
"117 151 OFFCURVE",
"360 96 CURVE SMOOTH",
"774 6 LINE"
);
},
{
closed = 1;
nodes = (
"406 260 LINE SMOOTH",
"242 299 OFFCURVE",
"162 402 OFFCURVE",
"162 547 CURVE SMOOTH",
"162 745 LINE",
"614 745 LINE",
"614 213 LINE"
);
}
);
width = 1147;
}
);
note = u1848.med;
},
{
glyphname = u1848.medV1;
lastChange = "2016-11-10 17:40:46 +0000";
layers = (
{
layerId = "ECD52525-6592-4E14-BB2F-A163A2F4C2CC";
paths = (
{
closed = 1;
nodes = (
"1356 745 LINE",
"1790 745 LINE",
"1790 909 LINE",
"866 909 LINE",
"805 1060 OFFCURVE",
"735 1208 OFFCURVE",
"655 1354 CURVE",
"510 1272 LINE",
"565 1173 OFFCURVE",
"625 1052 OFFCURVE",
"690 909 CURVE",
"0 909 LINE",
"0 745 LINE",
"39 197 LINE",
"174 197 LINE",
"213 745 LINE",
"582 745 LINE",
"582 547 LINE SMOOTH",
"582 315 OFFCURVE",
"699 151 OFFCURVE",
"942 96 CURVE SMOOTH",
"1356 6 LINE"
);
},
{
closed = 1;
nodes = (
"987 260 LINE SMOOTH",
"823 299 OFFCURVE",
"743 402 OFFCURVE",
"743 547 CURVE SMOOTH",
"743 745 LINE",
"1196 745 LINE",
"1196 213 LINE"
);
}
);
width = 1729;
}
);
note = u1848.medV1;
},
{
glyphname = u1848.fin;
lastChange = "2016-11-10 17:40:46 +0000";
layers = (
{
layerId = "ECD52525-6592-4E14-BB2F-A163A2F4C2CC";
paths = (
{
closed = 1;
nodes = (
"774 909 LINE",
"285 909 LINE",
"228 1050 OFFCURVE",
"158 1199 OFFCURVE",
"74 1354 CURVE",
"-72 1272 LINE",
"-9 1160 OFFCURVE",
"51 1039 OFFCURVE",
"108 909 CURVE",
"0 909 LINE",
"0 547 LINE SMOOTH",
"0 315 OFFCURVE",
"117 151 OFFCURVE",
"360 96 CURVE SMOOTH",
"774 6 LINE"
);
},
{
closed = 1;
nodes = (
"406 260 LINE SMOOTH",
"242 299 OFFCURVE",
"162 402 OFFCURVE",
"162 547 CURVE SMOOTH",
"162 745 LINE",
"614 745 LINE",
"614 213 LINE"
);
}
);
width = 866;
}
);
note = u1848.fin;
},
{
glyphname = u184A;
lastChange = "2016-11-10 17:40:46 +0000";
layers = (
{
layerId = "ECD52525-6592-4E14-BB2F-A163A2F4C2CC";
paths = (
{
closed = 1;
nodes = (
"1731 -541 LINE",
"1702 -491 OFFCURVE",
"1688 -438 OFFCURVE",
"1688 -383 CURVE SMOOTH",
"1688 -340 OFFCURVE",
"1692 -305 OFFCURVE",
"1700 -278 CURVE SMOOTH",
"1715 -224 OFFCURVE",
"1752 -158 OFFCURVE",
"1825 -63 CURVE SMOOTH",
"2024 193 OFFCURVE",
"2097 347 OFFCURVE",
"2097 502 CURVE SMOOTH",
"2097 763 OFFCURVE",
"1939 909 OFFCURVE",
"1624 909 CURVE SMOOTH",
"92 909 LINE",
"92 745 LINE",
"131 197 LINE",
"266 197 LINE",
"305 745 LINE",
"674 745 LINE",
"674 539 LINE SMOOTH",
"674 224 OFFCURVE",
"832 74 OFFCURVE",
"1116 74 CURVE SMOOTH",
"1200 74 LINE SMOOTH",
"1303 74 OFFCURVE",
"1374 55 OFFCURVE",
"1415 18 CURVE",
"1415 188 LINE",
"1372 225 OFFCURVE",
"1300 244 OFFCURVE",
"1200 244 CURVE SMOOTH",
"1116 244 LINE SMOOTH",
"929 244 OFFCURVE",
"836 342 OFFCURVE",
"836 539 CURVE SMOOTH",
"836 745 LINE",
"1622 745 LINE SMOOTH",
"1841 745 OFFCURVE",
"1937 666 OFFCURVE",
"1937 502 CURVE SMOOTH",
"1937 457 OFFCURVE",
"1931 417 OFFCURVE",
"1919 380 CURVE SMOOTH",
"1894 306 OFFCURVE",
"1833 205 OFFCURVE",
"1718 57 CURVE SMOOTH",
"1578 -128 OFFCURVE",
"1524 -248 OFFCURVE",
"1524 -383 CURVE SMOOTH",
"1524 -445 OFFCURVE",
"1537 -498 OFFCURVE",
"1563 -541 CURVE"
);
}
);
width = 2189;
}
);
note = u184A;
unicode = 184A;
},
{
glyphname = u184B;
lastChange = "2016-11-10 17:40:46 +0000";
layers = (
{
layerId = "ECD52525-6592-4E14-BB2F-A163A2F4C2CC";
paths = (
{
closed = 1;
nodes = (
"1436 -541 LINE",
"1407 -491 OFFCURVE",
"1393 -438 OFFCURVE",
"1393 -383 CURVE SMOOTH",
"1393 -340 OFFCURVE",
"1397 -305 OFFCURVE",
"1405 -278 CURVE SMOOTH",
"1420 -224 OFFCURVE",
"1457 -158 OFFCURVE",
"1530 -63 CURVE SMOOTH",
"1725 186 OFFCURVE",
"1802 341 OFFCURVE",
"1802 502 CURVE SMOOTH",
"1802 763 OFFCURVE",
"1644 909 OFFCURVE",
"1329 909 CURVE SMOOTH",
"184 909 LINE",
"121 802 OFFCURVE",
"92 688 OFFCURVE",
"92 532 CURVE SMOOTH",
"92 232 OFFCURVE",
"247 82 OFFCURVE",
"496 82 CURVE SMOOTH",
"753 82 OFFCURVE",
"901 249 OFFCURVE",
"901 510 CURVE SMOOTH",
"901 603 OFFCURVE",
"887 681 OFFCURVE",
"860 745 CURVE",
"1327 745 LINE SMOOTH",
"1546 745 OFFCURVE",
"1642 666 OFFCURVE",
"1642 502 CURVE SMOOTH",
"1642 457 OFFCURVE",
"1636 417 OFFCURVE",
"1624 380 CURVE SMOOTH",
"1599 306 OFFCURVE",
"1538 205 OFFCURVE",
"1423 57 CURVE SMOOTH",
"1283 -128 OFFCURVE",
"1229 -248 OFFCURVE",
"1229 -383 CURVE SMOOTH",
"1229 -445 OFFCURVE",
"1242 -498 OFFCURVE",
"1268 -541 CURVE"
);
},
{
closed = 1;
nodes = (
"335 252 OFFCURVE",
"254 347 OFFCURVE",
"254 537 CURVE SMOOTH",
"254 620 OFFCURVE",
"268 689 OFFCURVE",
"295 745 CURVE",
"698 745 LINE",
"725 682 OFFCURVE",
"739 605 OFFCURVE",
"739 514 CURVE SMOOTH",
"739 339 OFFCURVE",
"645 252 OFFCURVE",
"496 252 CURVE SMOOTH"
);
}
);
width = 1894;
}
);
note = u184B;
unicode = 184B;
},
{
glyphname = u184B.fin;
lastChange = "2016-11-10 17:40:46 +0000";
layers = (
{
layerId = "ECD52525-6592-4E14-BB2F-A163A2F4C2CC";
paths = (
{
closed = 1;
nodes = (
"1343 -541 LINE",
"1314 -488 OFFCURVE",
"1300 -436 OFFCURVE",
"1300 -383 CURVE SMOOTH",
"1300 -267 OFFCURVE",
"1330 -203 OFFCURVE",
"1438 -63 CURVE SMOOTH",
"1650 216 OFFCURVE",
"1710 354 OFFCURVE",
"1710 502 CURVE SMOOTH",
"1710 763 OFFCURVE",
"1552 909 OFFCURVE",
"1237 909 CURVE SMOOTH",
"0 909 LINE",
"0 745 LINE",
"41 745 LINE",
"14 681 OFFCURVE",
"0 603 OFFCURVE",
"0 510 CURVE SMOOTH",
"0 226 OFFCURVE",
"155 82 OFFCURVE",
"403 82 CURVE SMOOTH",
"662 82 OFFCURVE",
"809 249 OFFCURVE",
"809 510 CURVE SMOOTH",
"809 600 OFFCURVE",
"794 678 OFFCURVE",
"764 745 CURVE",
"1235 745 LINE SMOOTH",
"1454 745 OFFCURVE",
"1550 666 OFFCURVE",
"1550 502 CURVE SMOOTH",
"1550 457 OFFCURVE",
"1544 417 OFFCURVE",
"1532 380 CURVE SMOOTH",
"1507 306 OFFCURVE",
"1446 205 OFFCURVE",
"1331 57 CURVE SMOOTH",
"1191 -128 OFFCURVE",
"1137 -248 OFFCURVE",
"1137 -383 CURVE SMOOTH",
"1137 -445 OFFCURVE",
"1150 -498 OFFCURVE",
"1176 -541 CURVE"
);
},
{
closed = 1;
nodes = (
"242 252 OFFCURVE",
"162 339 OFFCURVE",
"162 514 CURVE SMOOTH",
"162 605 OFFCURVE",
"176 682 OFFCURVE",
"203 745 CURVE",
"606 745 LINE",
"633 682 OFFCURVE",
"647 605 OFFCURVE",
"647 514 CURVE SMOOTH",
"647 339 OFFCURVE",
"554 252 OFFCURVE",
"403 252 CURVE SMOOTH"
);
}
);
width = 1802;
}
);
note = u184B.fin;
},
{
glyphname = u184B_1848;
lastChange = "2016-11-10 17:40:46 +0000";
layers = (
{
layerId = "ECD52525-6592-4E14-BB2F-A163A2F4C2CC";
paths = (
{
closed = 1;
nodes = (
"633 82 OFFCURVE",
"756 145 OFFCURVE",
"811 276 CURVE",
"868 145 OFFCURVE",
"971 82 OFFCURVE",
"1102 82 CURVE SMOOTH",
"1399 82 OFFCURVE",
"1540 300 OFFCURVE",
"1540 768 CURVE SMOOTH",
"1540 1235 OFFCURVE",
"1309 1545 OFFCURVE",
"944 1593 CURVE",
"901 1694 OFFCURVE",
"843 1814 OFFCURVE",
"770 1952 CURVE",
"625 1870 LINE",
"686 1755 OFFCURVE",
"731 1664 OFFCURVE",
"762 1597 CURVE",
"625 1587 OFFCURVE",
"506 1547 OFFCURVE",
"405 1476 CURVE SMOOTH",
"203 1335 OFFCURVE",
"92 1080 OFFCURVE",
"92 768 CURVE SMOOTH",
"92 317 OFFCURVE",
"219 82 OFFCURVE",
"510 82 CURVE SMOOTH"
);
},
{
closed = 1;
nodes = (
"447 252 OFFCURVE",
"398 268 OFFCURVE",
"362 300 CURVE SMOOTH",
"290 364 OFFCURVE",
"254 513 OFFCURVE",
"254 745 CURVE",
"735 745 LINE",
"735 586 LINE SMOOTH",
"735 362 OFFCURVE",
"641 252 OFFCURVE",
"510 252 CURVE SMOOTH"
);
},
{
closed = 1;
nodes = (
"965 252 OFFCURVE",
"897 363 OFFCURVE",
"897 586 CURVE SMOOTH",
"897 745 LINE",
"1378 745 LINE",
"1377 626 OFFCURVE",
"1367 531 OFFCURVE",
"1348 458 CURVE SMOOTH",
"1310 312 OFFCURVE",
"1239 252 OFFCURVE",
"1102 252 CURVE SMOOTH"
);
},
{
closed = 1;
nodes = (
"299 1234 OFFCURVE",
"477 1432 OFFCURVE",
"829 1432 CURVE SMOOTH",
"1126 1432 OFFCURVE",
"1321 1237 OFFCURVE",
"1368 909 CURVE",
"260 909 LINE"
);
}
);
width = 1632;
}
);
note = u184B_1848;
},
{
glyphname = u184B_1848.ini;
lastChange = "2016-11-10 17:40:46 +0000";
layers = (
{
layerId = "ECD52525-6592-4E14-BB2F-A163A2F4C2CC";
paths = (
{
closed = 1;
nodes = (
"633 82 OFFCURVE",
"756 145 OFFCURVE",
"811 276 CURVE",
"868 145 OFFCURVE",
"971 82 OFFCURVE",
"1102 82 CURVE SMOOTH",
"1394 82 OFFCURVE",
"1535 298 OFFCURVE",
"1540 745 CURVE",
"1972 745 LINE",
"1972 909 LINE",
"1532 909 LINE",
"1489 1300 OFFCURVE",
"1265 1550 OFFCURVE",
"944 1593 CURVE",
"901 1694 OFFCURVE",
"843 1814 OFFCURVE",
"770 1952 CURVE",
"625 1870 LINE",
"686 1755 OFFCURVE",
"731 1664 OFFCURVE",
"762 1597 CURVE",
"625 1587 OFFCURVE",
"506 1547 OFFCURVE",
"405 1476 CURVE SMOOTH",
"203 1335 OFFCURVE",
"92 1080 OFFCURVE",
"92 768 CURVE SMOOTH",
"92 317 OFFCURVE",
"219 82 OFFCURVE",
"510 82 CURVE SMOOTH"
);
},
{
closed = 1;
nodes = (
"447 252 OFFCURVE",
"398 268 OFFCURVE",
"362 300 CURVE SMOOTH",
"290 364 OFFCURVE",
"254 513 OFFCURVE",
"254 745 CURVE",
"735 745 LINE",
"735 586 LINE SMOOTH",
"735 362 OFFCURVE",
"641 252 OFFCURVE",
"510 252 CURVE SMOOTH"
);
},
{
closed = 1;
nodes = (
"965 252 OFFCURVE",
"897 363 OFFCURVE",
"897 586 CURVE SMOOTH",
"897 745 LINE",
"1378 745 LINE",
"1377 626 OFFCURVE",
"1367 531 OFFCURVE",
"1348 458 CURVE SMOOTH",
"1310 312 OFFCURVE",
"1239 252 OFFCURVE",
"1102 252 CURVE SMOOTH"
);
},
{
closed = 1;
nodes = (
"299 1234 OFFCURVE",
"477 1432 OFFCURVE",
"829 1432 CURVE SMOOTH",
"1126 1432 OFFCURVE",
"1321 1237 OFFCURVE",
"1368 909 CURVE",
"260 909 LINE"
);
}
);
width = 1911;
}
);
note = u184B_1848.ini;
},
{
glyphname = u184C;
lastChange = "2016-11-10 17:40:46 +0000";
layers = (
{
layerId = "ECD52525-6592-4E14-BB2F-A163A2F4C2CC";
paths = (
{
closed = 1;
nodes = (
"829 129 LINE",
"671 406 OFFCURVE",
"592 656 OFFCURVE",
"592 881 CURVE SMOOTH",
"592 1178 OFFCURVE",
"711 1319 OFFCURVE",
"899 1319 CURVE SMOOTH",
"1082 1319 OFFCURVE",
"1188 1174 OFFCURVE",
"1212 838 CURVE",
"1374 858 LINE",
"1345 1259 OFFCURVE",
"1180 1489 OFFCURVE",
"899 1489 CURVE SMOOTH",
"808 1489 OFFCURVE",
"727 1466 OFFCURVE",
"657 1420 CURVE SMOOTH",
"516 1327 OFFCURVE",
"433 1144 OFFCURVE",
"430 909 CURVE",
"238 909 LINE",
"238 1456 LINE",
"92 1456 LINE",
"92 129 LINE"
);
},
{
closed = 1;
nodes = (
"238 745 LINE",
"436 745 LINE",
"453 600 OFFCURVE",
"496 451 OFFCURVE",
"565 299 CURVE",
"238 299 LINE"
);
}
);
width = 1466;
}
);
note = u184C;
unicode = 184C;
},
{
glyphname = u184C.fin;
lastChange = "2016-11-10 17:40:46 +0000";
layers = (
{
layerId = "ECD52525-6592-4E14-BB2F-A163A2F4C2CC";
paths = (
{
closed = 1;
nodes = (
"1036 -541 LINE",
"1007 -488 OFFCURVE",
"993 -436 OFFCURVE",
"993 -383 CURVE SMOOTH",
"993 -266 OFFCURVE",
"1024 -186 OFFCURVE",
"1163 -14 CURVE SMOOTH",
"1250 95 OFFCURVE",
"1319 193 OFFCURVE",
"1370 281 CURVE SMOOTH",
"1473 457 OFFCURVE",
"1516 603 OFFCURVE",
"1516 795 CURVE SMOOTH",
"1516 1227 OFFCURVE",
"1289 1489 OFFCURVE",
"920 1489 CURVE SMOOTH",
"583 1489 OFFCURVE",
"358 1272 OFFCURVE",
"338 909 CURVE",
"145 909 LINE",
"145 1456 LINE",
"0 1456 LINE",
"0 129 LINE",
"737 129 LINE",
"579 396 OFFCURVE",
"500 639 OFFCURVE",
"500 858 CURVE SMOOTH",
"500 1170 OFFCURVE",
"665 1319 OFFCURVE",
"920 1319 CURVE SMOOTH",
"1185 1319 OFFCURVE",
"1356 1126 OFFCURVE",
"1356 795 CURVE SMOOTH",
"1356 707 OFFCURVE",
"1347 630 OFFCURVE",
"1328 564 CURVE SMOOTH",
"1291 432 OFFCURVE",
"1212 299 OFFCURVE",
"1055 102 CURVE SMOOTH",
"880 -114 OFFCURVE",
"829 -223 OFFCURVE",
"829 -383 CURVE SMOOTH",
"829 -438 OFFCURVE",
"842 -490 OFFCURVE",
"868 -541 CURVE"
);
},
{
closed = 1;
nodes = (
"145 745 LINE",
"342 745 LINE",
"355 602 OFFCURVE",
"398 453 OFFCURVE",
"471 299 CURVE",
"145 299 LINE"
);
}
);
width = 1608;
}
);
note = u184C.fin;
},
{
glyphname = u184C_1823;
lastChange = "2016-11-10 17:40:46 +0000";
layers = (
{
layerId = "ECD52525-6592-4E14-BB2F-A163A2F4C2CC";
paths = (
{
closed = 1;
nodes = (
"1454 82 OFFCURVE",
"1523 104 OFFCURVE",
"1585 148 CURVE SMOOTH",
"1708 236 OFFCURVE",
"1780 408 OFFCURVE",
"1780 621 CURVE SMOOTH",
"1780 1212 OFFCURVE",
"1538 1556 OFFCURVE",
"1085 1556 CURVE SMOOTH",
"965 1556 OFFCURVE",
"857 1530 OFFCURVE",
"762 1478 CURVE SMOOTH",
"571 1374 OFFCURVE",
"452 1169 OFFCURVE",
"432 909 CURVE",
"238 909 LINE",
"238 1456 LINE",
"92 1456 LINE",
"92 129 LINE",
"829 129 LINE",
"671 385 OFFCURVE",
"592 618 OFFCURVE",
"592 829 CURVE SMOOTH",
"592 1176 OFFCURVE",
"784 1386 OFFCURVE",
"1085 1386 CURVE SMOOTH",
"1368 1386 OFFCURVE",
"1538 1227 OFFCURVE",
"1595 909 CURVE",
"1049 909 LINE",
"1002 822 OFFCURVE",
"971 686 OFFCURVE",
"971 563 CURVE SMOOTH",
"971 244 OFFCURVE",
"1130 82 OFFCURVE",
"1378 82 CURVE SMOOTH"
);
},
{
closed = 1;
nodes = (
"238 745 LINE",
"432 745 LINE",
"445 598 OFFCURVE",
"487 449 OFFCURVE",
"559 299 CURVE",
"238 299 LINE"
);
},
{
closed = 1;
nodes = (
"1211 252 OFFCURVE",
"1133 356 OFFCURVE",
"1133 563 CURVE SMOOTH",
"1133 637 OFFCURVE",
"1144 698 OFFCURVE",
"1165 745 CURVE",
"1614 745 LINE",
"1617 705 OFFCURVE",
"1618 664 OFFCURVE",
"1618 621 CURVE SMOOTH",
"1618 374 OFFCURVE",
"1514 252 OFFCURVE",
"1366 252 CURVE SMOOTH"
);
}
);
width = 1872;
}
);
note = u184C_1823;
},
{
glyphname = u184C_1823.ini;
lastChange = "2016-11-10 17:40:46 +0000";
layers = (
{
layerId = "ECD52525-6592-4E14-BB2F-A163A2F4C2CC";
paths = (
{
closed = 1;
nodes = (
"1454 82 OFFCURVE",
"1523 104 OFFCURVE",
"1585 148 CURVE SMOOTH",
"1708 236 OFFCURVE",
"1780 408 OFFCURVE",
"1780 621 CURVE SMOOTH",
"1780 664 OFFCURVE",
"1779 705 OFFCURVE",
"1776 745 CURVE",
"2212 745 LINE",
"2212 909 LINE",
"1757 909 LINE",
"1686 1329 OFFCURVE",
"1456 1556 OFFCURVE",
"1085 1556 CURVE SMOOTH",
"965 1556 OFFCURVE",
"857 1530 OFFCURVE",
"762 1478 CURVE SMOOTH",
"571 1374 OFFCURVE",
"452 1169 OFFCURVE",
"432 909 CURVE",
"238 909 LINE",
"238 1456 LINE",
"92 1456 LINE",
"92 129 LINE",
"829 129 LINE",
"671 385 OFFCURVE",
"592 618 OFFCURVE",
"592 829 CURVE SMOOTH",
"592 1176 OFFCURVE",
"784 1386 OFFCURVE",
"1085 1386 CURVE SMOOTH",
"1368 1386 OFFCURVE",
"1538 1227 OFFCURVE",
"1595 909 CURVE",
"1049 909 LINE",
"1002 822 OFFCURVE",
"971 686 OFFCURVE",
"971 563 CURVE SMOOTH",
"971 244 OFFCURVE",
"1130 82 OFFCURVE",
"1378 82 CURVE SMOOTH"
);
},
{
closed = 1;
nodes = (
"238 745 LINE",
"432 745 LINE",
"445 598 OFFCURVE",
"487 449 OFFCURVE",
"559 299 CURVE",
"238 299 LINE"
);
},
{
closed = 1;
nodes = (
"1211 252 OFFCURVE",
"1133 356 OFFCURVE",
"1133 563 CURVE SMOOTH",
"1133 637 OFFCURVE",
"1144 698 OFFCURVE",
"1165 745 CURVE",
"1614 745 LINE",
"1617 705 OFFCURVE",
"1618 664 OFFCURVE",
"1618 621 CURVE SMOOTH",
"1618 374 OFFCURVE",
"1514 252 OFFCURVE",
"1366 252 CURVE SMOOTH"
);
}
);
width = 2150;
}
);
note = u184C_1823.ini;
},
{
glyphname = u184C_1844;
lastChange = "2016-11-10 17:40:46 +0000";
layers = (
{
layerId = "ECD52525-6592-4E14-BB2F-A163A2F4C2CC";
paths = (
{
closed = 1;
nodes = (
"1958 188 LINE",
"1915 225 OFFCURVE",
"1843 244 OFFCURVE",
"1743 244 CURVE SMOOTH",
"1659 244 LINE SMOOTH",
"1472 244 OFFCURVE",
"1378 342 OFFCURVE",
"1378 539 CURVE SMOOTH",
"1378 745 LINE",
"1958 745 LINE",
"1958 909 LINE",
"1372 909 LINE",
"1337 1273 OFFCURVE",
"1170 1489 OFFCURVE",
"899 1489 CURVE SMOOTH",
"808 1489 OFFCURVE",
"727 1466 OFFCURVE",
"657 1420 CURVE SMOOTH",
"516 1327 OFFCURVE",
"433 1144 OFFCURVE",
"430 909 CURVE",
"238 909 LINE",
"238 1456 LINE",
"92 1456 LINE",
"92 129 LINE",
"829 129 LINE",
"671 406 OFFCURVE",
"592 656 OFFCURVE",
"592 881 CURVE SMOOTH",
"592 1178 OFFCURVE",
"711 1319 OFFCURVE",
"899 1319 CURVE SMOOTH",
"1111 1319 OFFCURVE",
"1217 1135 OFFCURVE",
"1217 766 CURVE SMOOTH",
"1217 539 LINE SMOOTH",
"1217 224 OFFCURVE",
"1375 74 OFFCURVE",
"1659 74 CURVE SMOOTH",
"1743 74 LINE SMOOTH",
"1845 74 OFFCURVE",
"1917 55 OFFCURVE",
"1958 18 CURVE"
);
},
{
closed = 1;
nodes = (
"238 745 LINE",
"436 745 LINE",
"453 600 OFFCURVE",
"496 451 OFFCURVE",
"565 299 CURVE",
"238 299 LINE"
);
}
);
width = 2050;
}
);
note = u184C_1844;
},
{
glyphname = u184C_1844.ini;
lastChange = "2016-11-10 17:40:46 +0000";
layers = (
{
layerId = "ECD52525-6592-4E14-BB2F-A163A2F4C2CC";
paths = (
{
closed = 1;
nodes = (
"1958 188 LINE",
"1915 225 OFFCURVE",
"1843 244 OFFCURVE",
"1743 244 CURVE SMOOTH",
"1659 244 LINE SMOOTH",
"1472 244 OFFCURVE",
"1378 342 OFFCURVE",
"1378 539 CURVE SMOOTH",
"1378 745 LINE",
"2269 745 LINE",
"2269 909 LINE",
"1372 909 LINE",
"1337 1273 OFFCURVE",
"1170 1489 OFFCURVE",
"899 1489 CURVE SMOOTH",
"808 1489 OFFCURVE",
"727 1466 OFFCURVE",
"657 1420 CURVE SMOOTH",
"516 1327 OFFCURVE",
"433 1144 OFFCURVE",
"430 909 CURVE",
"238 909 LINE",
"238 1456 LINE",
"92 1456 LINE",
"92 129 LINE",
"829 129 LINE",
"671 406 OFFCURVE",
"592 656 OFFCURVE",
"592 881 CURVE SMOOTH",
"592 1178 OFFCURVE",
"711 1319 OFFCURVE",
"899 1319 CURVE SMOOTH",
"1111 1319 OFFCURVE",
"1217 1135 OFFCURVE",
"1217 766 CURVE SMOOTH",
"1217 539 LINE SMOOTH",
"1217 224 OFFCURVE",
"1375 74 OFFCURVE",
"1659 74 CURVE SMOOTH",
"1743 74 LINE SMOOTH",
"1845 74 OFFCURVE",
"1917 55 OFFCURVE",
"1958 18 CURVE"
);
},
{
closed = 1;
nodes = (
"238 745 LINE",
"436 745 LINE",
"453 600 OFFCURVE",
"496 451 OFFCURVE",
"565 299 CURVE",
"238 299 LINE"
);
}
);
width = 2208;
}
);
note = u184C_1844.ini;
},
{
glyphname = u184C_1845;
lastChange = "2016-11-10 17:40:46 +0000";
layers = (
{
layerId = "ECD52525-6592-4E14-BB2F-A163A2F4C2CC";
paths = (
{
closed = 1;
nodes = (
"2081 188 LINE",
"2038 225 OFFCURVE",
"1966 244 OFFCURVE",
"1866 244 CURVE SMOOTH",
"1806 244 LINE",
"1806 745 LINE",
"2392 745 LINE SMOOTH",
"2537 745 OFFCURVE",
"2593 683 OFFCURVE",
"2593 571 CURVE SMOOTH",
"2593 484 OFFCURVE",
"2578 404 OFFCURVE",
"2548 332 CURVE",
"2699 332 LINE",
"2733 404 OFFCURVE",
"2750 484 OFFCURVE",
"2750 571 CURVE SMOOTH",
"2750 796 OFFCURVE",
"2631 909 OFFCURVE",
"2392 909 CURVE SMOOTH",
"1645 909 LINE",
"1645 244 LINE",
"1577 244 LINE SMOOTH",
"1444 244 OFFCURVE",
"1378 315 OFFCURVE",
"1378 457 CURVE SMOOTH",
"1378 766 LINE SMOOTH",
"1378 1226 OFFCURVE",
"1199 1489 OFFCURVE",
"899 1489 CURVE SMOOTH",
"808 1489 OFFCURVE",
"727 1466 OFFCURVE",
"657 1420 CURVE SMOOTH",
"516 1327 OFFCURVE",
"433 1144 OFFCURVE",
"430 909 CURVE",
"238 909 LINE",
"238 1456 LINE",
"92 1456 LINE",
"92 129 LINE",
"829 129 LINE",
"671 406 OFFCURVE",
"592 656 OFFCURVE",
"592 881 CURVE SMOOTH",
"592 1178 OFFCURVE",
"711 1319 OFFCURVE",
"899 1319 CURVE SMOOTH",
"1111 1319 OFFCURVE",
"1217 1135 OFFCURVE",
"1217 766 CURVE SMOOTH",
"1217 457 LINE SMOOTH",
"1217 202 OFFCURVE",
"1337 74 OFFCURVE",
"1577 74 CURVE SMOOTH",
"1866 74 LINE SMOOTH",
"1968 74 OFFCURVE",
"2040 55 OFFCURVE",
"2081 18 CURVE"
);
},
{
closed = 1;
nodes = (
"238 745 LINE",
"436 745 LINE",
"453 600 OFFCURVE",
"496 451 OFFCURVE",
"565 299 CURVE",
"238 299 LINE"
);
}
);
width = 2843;
}
);
note = u184C_1845;
},
{
glyphname = u184C_1845.ini;
lastChange = "2016-11-10 17:40:46 +0000";
layers = (
{
layerId = "ECD52525-6592-4E14-BB2F-A163A2F4C2CC";
paths = (
{
closed = 1;
nodes = (
"2081 188 LINE",
"2038 225 OFFCURVE",
"1966 244 OFFCURVE",
"1866 244 CURVE SMOOTH",
"1806 244 LINE",
"1806 745 LINE",
"2392 745 LINE",
"2392 909 LINE",
"1645 909 LINE",
"1645 244 LINE",
"1577 244 LINE SMOOTH",
"1444 244 OFFCURVE",
"1378 315 OFFCURVE",
"1378 457 CURVE SMOOTH",
"1378 766 LINE SMOOTH",
"1378 1226 OFFCURVE",
"1199 1489 OFFCURVE",
"899 1489 CURVE SMOOTH",
"808 1489 OFFCURVE",
"727 1466 OFFCURVE",
"657 1420 CURVE SMOOTH",
"516 1327 OFFCURVE",
"433 1144 OFFCURVE",
"430 909 CURVE",
"238 909 LINE",
"238 1456 LINE",
"92 1456 LINE",
"92 129 LINE",
"829 129 LINE",
"671 406 OFFCURVE",
"592 656 OFFCURVE",
"592 881 CURVE SMOOTH",
"592 1178 OFFCURVE",
"711 1319 OFFCURVE",
"899 1319 CURVE SMOOTH",
"1111 1319 OFFCURVE",
"1217 1135 OFFCURVE",
"1217 766 CURVE SMOOTH",
"1217 457 LINE SMOOTH",
"1217 202 OFFCURVE",
"1337 74 OFFCURVE",
"1577 74 CURVE SMOOTH",
"1866 74 LINE SMOOTH",
"1968 74 OFFCURVE",
"2040 55 OFFCURVE",
"2081 18 CURVE"
);
},
{
closed = 1;
nodes = (
"238 745 LINE",
"436 745 LINE",
"453 600 OFFCURVE",
"496 451 OFFCURVE",
"565 299 CURVE",
"238 299 LINE"
);
}
);
width = 2331;
}
);
note = u184C_1845.ini;
},
{
glyphname = u184C_1820.ini;
lastChange = "2016-11-10 17:40:46 +0000";
layers = (
{
layerId = "ECD52525-6592-4E14-BB2F-A163A2F4C2CC";
paths = (
{
closed = 1;
nodes = (
"829 129 LINE",
"671 406 OFFCURVE",
"592 656 OFFCURVE",
"592 881 CURVE SMOOTH",
"592 1178 OFFCURVE",
"711 1319 OFFCURVE",
"899 1319 CURVE SMOOTH",
"1040 1319 OFFCURVE",
"1118 1250 OFFCURVE",
"1165 1094 CURVE SMOOTH",
"1188 1016 OFFCURVE",
"1206 900 OFFCURVE",
"1219 745 CURVE SMOOTH",
"1257 197 LINE",
"1393 197 LINE",
"1432 745 LINE",
"1862 745 LINE",
"1862 909 LINE",
"1368 909 LINE",
"1319 1305 OFFCURVE",
"1178 1489 OFFCURVE",
"899 1489 CURVE SMOOTH",
"808 1489 OFFCURVE",
"727 1466 OFFCURVE",
"657 1420 CURVE SMOOTH",
"516 1327 OFFCURVE",
"433 1144 OFFCURVE",
"430 909 CURVE",
"238 909 LINE",
"238 1456 LINE",
"92 1456 LINE",
"92 129 LINE"
);
},
{
closed = 1;
nodes = (
"238 745 LINE",
"436 745 LINE",
"453 600 OFFCURVE",
"496 451 OFFCURVE",
"565 299 CURVE",
"238 299 LINE"
);
}
);
width = 1800;
}
);
note = u184C_1820.ini;
},
{
glyphname = u184C_1820;
lastChange = "2016-11-10 17:40:46 +0000";
layers = (
{
layerId = "ECD52525-6592-4E14-BB2F-A163A2F4C2CC";
paths = (
{
closed = 1;
nodes = (
"1970 -541 LINE",
"1941 -488 OFFCURVE",
"1927 -436 OFFCURVE",
"1927 -383 CURVE SMOOTH",
"1927 -340 OFFCURVE",
"1931 -305 OFFCURVE",
"1939 -278 CURVE SMOOTH",
"1954 -224 OFFCURVE",
"1991 -158 OFFCURVE",
"2064 -63 CURVE SMOOTH",
"2272 205 OFFCURVE",
"2337 351 OFFCURVE",
"2337 502 CURVE SMOOTH",
"2337 763 OFFCURVE",
"2177 909 OFFCURVE",
"1864 909 CURVE SMOOTH",
"1368 909 LINE",
"1319 1305 OFFCURVE",
"1178 1489 OFFCURVE",
"899 1489 CURVE SMOOTH",
"808 1489 OFFCURVE",
"727 1466 OFFCURVE",
"657 1420 CURVE SMOOTH",
"516 1327 OFFCURVE",
"433 1144 OFFCURVE",
"430 909 CURVE",
"238 909 LINE",
"238 1456 LINE",
"92 1456 LINE",
"92 129 LINE",
"829 129 LINE",
"671 406 OFFCURVE",
"592 656 OFFCURVE",
"592 881 CURVE SMOOTH",
"592 1178 OFFCURVE",
"711 1319 OFFCURVE",
"899 1319 CURVE SMOOTH",
"1040 1319 OFFCURVE",
"1118 1250 OFFCURVE",
"1165 1094 CURVE SMOOTH",
"1188 1016 OFFCURVE",
"1206 900 OFFCURVE",
"1219 745 CURVE SMOOTH",
"1257 197 LINE",
"1393 197 LINE",
"1432 745 LINE",
"1862 745 LINE SMOOTH",
"2079 745 OFFCURVE",
"2177 666 OFFCURVE",
"2177 502 CURVE SMOOTH",
"2177 457 OFFCURVE",
"2171 417 OFFCURVE",
"2159 381 CURVE SMOOTH",
"2135 309 OFFCURVE",
"2073 208 OFFCURVE",
"1958 57 CURVE SMOOTH",
"1815 -132 OFFCURVE",
"1763 -252 OFFCURVE",
"1763 -383 CURVE SMOOTH",
"1763 -443 OFFCURVE",
"1776 -496 OFFCURVE",
"1802 -541 CURVE"
);
},
{
closed = 1;
nodes = (
"238 745 LINE",
"436 745 LINE",
"453 600 OFFCURVE",
"496 451 OFFCURVE",
"565 299 CURVE",
"238 299 LINE"
);
}
);
width = 2429;
}
);
note = u184C_1820;
},
{
glyphname = u184C_1847;
lastChange = "2016-11-10 17:40:46 +0000";
layers = (
{
layerId = "ECD52525-6592-4E14-BB2F-A163A2F4C2CC";
paths = (
{
closed = 1;
nodes = (
"1686 -166 LINE",
"1637 -79 OFFCURVE",
"1588 16 OFFCURVE",
"1540 121 CURVE",
"1683 194 OFFCURVE",
"1780 369 OFFCURVE",
"1780 621 CURVE SMOOTH",
"1780 1212 OFFCURVE",
"1538 1556 OFFCURVE",
"1085 1556 CURVE SMOOTH",
"965 1556 OFFCURVE",
"857 1530 OFFCURVE",
"762 1478 CURVE SMOOTH",
"571 1374 OFFCURVE",
"452 1169 OFFCURVE",
"432 909 CURVE",
"238 909 LINE",
"238 1456 LINE",
"92 1456 LINE",
"92 129 LINE",
"829 129 LINE",
"671 385 OFFCURVE",
"592 618 OFFCURVE",
"592 829 CURVE SMOOTH",
"592 1176 OFFCURVE",
"784 1386 OFFCURVE",
"1085 1386 CURVE SMOOTH",
"1368 1386 OFFCURVE",
"1538 1227 OFFCURVE",
"1595 909 CURVE",
"1049 909 LINE",
"1002 822 OFFCURVE",
"971 686 OFFCURVE",
"971 563 CURVE SMOOTH",
"971 247 OFFCURVE",
"1131 82 OFFCURVE",
"1376 82 CURVE",
"1421 -21 OFFCURVE",
"1476 -131 OFFCURVE",
"1540 -248 CURVE"
);
},
{
closed = 1;
nodes = (
"238 745 LINE",
"432 745 LINE",
"445 598 OFFCURVE",
"487 449 OFFCURVE",
"559 299 CURVE",
"238 299 LINE"
);
},
{
closed = 1;
nodes = (
"1211 252 OFFCURVE",
"1133 356 OFFCURVE",
"1133 563 CURVE SMOOTH",
"1133 637 OFFCURVE",
"1144 698 OFFCURVE",
"1165 745 CURVE",
"1614 745 LINE",
"1617 705 OFFCURVE",
"1618 664 OFFCURVE",
"1618 621 CURVE SMOOTH",
"1618 374 OFFCURVE",
"1514 252 OFFCURVE",
"1366 252 CURVE SMOOTH"
);
}
);
width = 1872;
}
);
note = u184C_1847;
},
{
glyphname = u184C_1847.ini;
lastChange = "2016-11-10 17:40:46 +0000";
layers = (
{
layerId = "ECD52525-6592-4E14-BB2F-A163A2F4C2CC";
paths = (
{
closed = 1;
nodes = (
"1686 -166 LINE",
"1637 -79 OFFCURVE",
"1588 16 OFFCURVE",
"1540 121 CURVE",
"1683 194 OFFCURVE",
"1780 369 OFFCURVE",
"1780 621 CURVE SMOOTH",
"1780 664 OFFCURVE",
"1779 705 OFFCURVE",
"1776 745 CURVE",
"2212 745 LINE",
"2212 909 LINE",
"1757 909 LINE",
"1686 1329 OFFCURVE",
"1456 1556 OFFCURVE",
"1085 1556 CURVE SMOOTH",
"965 1556 OFFCURVE",
"857 1530 OFFCURVE",
"762 1478 CURVE SMOOTH",
"571 1374 OFFCURVE",
"452 1169 OFFCURVE",
"432 909 CURVE",
"238 909 LINE",
"238 1456 LINE",
"92 1456 LINE",
"92 129 LINE",
"829 129 LINE",
"671 385 OFFCURVE",
"592 618 OFFCURVE",
"592 829 CURVE SMOOTH",
"592 1176 OFFCURVE",
"784 1386 OFFCURVE",
"1085 1386 CURVE SMOOTH",
"1368 1386 OFFCURVE",
"1538 1227 OFFCURVE",
"1595 909 CURVE",
"1049 909 LINE",
"1002 822 OFFCURVE",
"971 686 OFFCURVE",
"971 563 CURVE SMOOTH",
"971 247 OFFCURVE",
"1131 82 OFFCURVE",
"1376 82 CURVE",
"1421 -21 OFFCURVE",
"1476 -131 OFFCURVE",
"1540 -248 CURVE"
);
},
{
closed = 1;
nodes = (
"238 745 LINE",
"432 745 LINE",
"445 598 OFFCURVE",
"487 449 OFFCURVE",
"559 299 CURVE",
"238 299 LINE"
);
},
{
closed = 1;
nodes = (
"1211 252 OFFCURVE",
"1133 356 OFFCURVE",
"1133 563 CURVE SMOOTH",
"1133 637 OFFCURVE",
"1144 698 OFFCURVE",
"1165 745 CURVE",
"1614 745 LINE",
"1617 705 OFFCURVE",
"1618 664 OFFCURVE",
"1618 621 CURVE SMOOTH",
"1618 374 OFFCURVE",
"1514 252 OFFCURVE",
"1366 252 CURVE SMOOTH"
);
}
);
width = 2150;
}
);
note = u184C_1847.ini;
},
{
glyphname = u184C_1848;
lastChange = "2016-11-10 17:40:46 +0000";
layers = (
{
layerId = "ECD52525-6592-4E14-BB2F-A163A2F4C2CC";
paths = (
{
closed = 1;
nodes = (
"1454 82 OFFCURVE",
"1523 104 OFFCURVE",
"1585 148 CURVE SMOOTH",
"1708 236 OFFCURVE",
"1780 408 OFFCURVE",
"1780 621 CURVE SMOOTH",
"1780 1154 OFFCURVE",
"1580 1481 OFFCURVE",
"1221 1544 CURVE",
"1167 1677 OFFCURVE",
"1102 1813 OFFCURVE",
"1026 1952 CURVE",
"881 1870 LINE",
"949 1743 OFFCURVE",
"1001 1638 OFFCURVE",
"1038 1554 CURVE",
"705 1538 OFFCURVE",
"463 1290 OFFCURVE",
"432 909 CURVE",
"238 909 LINE",
"238 1456 LINE",
"92 1456 LINE",
"92 129 LINE",
"829 129 LINE",
"671 385 OFFCURVE",
"592 618 OFFCURVE",
"592 829 CURVE SMOOTH",
"592 1176 OFFCURVE",
"784 1386 OFFCURVE",
"1085 1386 CURVE SMOOTH",
"1368 1386 OFFCURVE",
"1538 1227 OFFCURVE",
"1595 909 CURVE",
"1049 909 LINE",
"1002 822 OFFCURVE",
"971 686 OFFCURVE",
"971 563 CURVE SMOOTH",
"971 244 OFFCURVE",
"1130 82 OFFCURVE",
"1378 82 CURVE SMOOTH"
);
},
{
closed = 1;
nodes = (
"238 745 LINE",
"432 745 LINE",
"445 598 OFFCURVE",
"487 449 OFFCURVE",
"559 299 CURVE",
"238 299 LINE"
);
},
{
closed = 1;
nodes = (
"1211 252 OFFCURVE",
"1133 356 OFFCURVE",
"1133 563 CURVE SMOOTH",
"1133 637 OFFCURVE",
"1144 698 OFFCURVE",
"1165 745 CURVE",
"1614 745 LINE",
"1617 705 OFFCURVE",
"1618 664 OFFCURVE",
"1618 621 CURVE SMOOTH",
"1618 374 OFFCURVE",
"1514 252 OFFCURVE",
"1366 252 CURVE SMOOTH"
);
}
);
width = 1872;
}
);
note = u184C_1848;
},
{
glyphname = u184C_1848.ini;
lastChange = "2016-11-10 17:40:46 +0000";
layers = (
{
layerId = "ECD52525-6592-4E14-BB2F-A163A2F4C2CC";
paths = (
{
closed = 1;
nodes = (
"1454 82 OFFCURVE",
"1523 104 OFFCURVE",
"1585 148 CURVE SMOOTH",
"1708 236 OFFCURVE",
"1780 408 OFFCURVE",
"1780 621 CURVE SMOOTH",
"1780 664 OFFCURVE",
"1779 705 OFFCURVE",
"1776 745 CURVE",
"2212 745 LINE",
"2212 909 LINE",
"1757 909 LINE",
"1694 1289 OFFCURVE",
"1496 1495 OFFCURVE",
"1221 1544 CURVE",
"1167 1677 OFFCURVE",
"1102 1813 OFFCURVE",
"1026 1952 CURVE",
"881 1870 LINE",
"949 1743 OFFCURVE",
"1001 1638 OFFCURVE",
"1038 1554 CURVE",
"705 1538 OFFCURVE",
"463 1290 OFFCURVE",
"432 909 CURVE",
"238 909 LINE",
"238 1456 LINE",
"92 1456 LINE",
"92 129 LINE",
"829 129 LINE",
"671 385 OFFCURVE",
"592 618 OFFCURVE",
"592 829 CURVE SMOOTH",
"592 1176 OFFCURVE",
"784 1386 OFFCURVE",
"1085 1386 CURVE SMOOTH",
"1368 1386 OFFCURVE",
"1538 1227 OFFCURVE",
"1595 909 CURVE",
"1049 909 LINE",
"1002 822 OFFCURVE",
"971 686 OFFCURVE",
"971 563 CURVE SMOOTH",
"971 244 OFFCURVE",
"1130 82 OFFCURVE",
"1378 82 CURVE SMOOTH"
);
},
{
closed = 1;
nodes = (
"238 745 LINE",
"432 745 LINE",
"445 598 OFFCURVE",
"487 449 OFFCURVE",
"559 299 CURVE",
"238 299 LINE"
);
},
{
closed = 1;
nodes = (
"1211 252 OFFCURVE",
"1133 356 OFFCURVE",
"1133 563 CURVE SMOOTH",
"1133 637 OFFCURVE",
"1144 698 OFFCURVE",
"1165 745 CURVE",
"1614 745 LINE",
"1617 705 OFFCURVE",
"1618 664 OFFCURVE",
"1618 621 CURVE SMOOTH",
"1618 374 OFFCURVE",
"1514 252 OFFCURVE",
"1366 252 CURVE SMOOTH"
);
}
);
width = 2150;
}
);
note = u184C_1848.ini;
},
{
glyphname = u183B.ini;
lastChange = "2016-11-10 17:40:46 +0000";
layers = (
{
layerId = "ECD52525-6592-4E14-BB2F-A163A2F4C2CC";
paths = (
{
closed = 1;
nodes = (
"502 174 LINE",
"359 371 OFFCURVE",
"276 550 OFFCURVE",
"257 745 CURVE",
"584 745 LINE",
"584 909 LINE",
"256 909 LINE",
"272 1180 OFFCURVE",
"384 1319 OFFCURVE",
"559 1319 CURVE SMOOTH",
"664 1319 OFFCURVE",
"739 1278 OFFCURVE",
"786 1195 CURVE SMOOTH",
"832 1112 OFFCURVE",
"862 962 OFFCURVE",
"877 745 CURVE",
"1028 745 LINE",
"1008 1250 OFFCURVE",
"863 1489 OFFCURVE",
"559 1489 CURVE SMOOTH",
"465 1489 OFFCURVE",
"383 1463 OFFCURVE",
"312 1410 CURVE SMOOTH",
"171 1304 OFFCURVE",
"92 1098 OFFCURVE",
"92 834 CURVE SMOOTH",
"92 599 OFFCURVE",
"180 349 OFFCURVE",
"356 86 CURVE"
);
}
);
width = 877;
}
);
note = u183B.ini;
},
{
glyphname = u183B.fin;
lastChange = "2016-11-10 17:40:46 +0000";
layers = (
{
layerId = "ECD52525-6592-4E14-BB2F-A163A2F4C2CC";
paths = (
{
closed = 1;
nodes = (
"698 -541 LINE",
"669 -488 OFFCURVE",
"655 -436 OFFCURVE",
"655 -383 CURVE SMOOTH",
"655 -260 OFFCURVE",
"696 -175 OFFCURVE",
"825 -14 CURVE SMOOTH",
"912 95 OFFCURVE",
"981 193 OFFCURVE",
"1032 281 CURVE SMOOTH",
"1135 457 OFFCURVE",
"1178 603 OFFCURVE",
"1178 795 CURVE SMOOTH",
"1178 1227 OFFCURVE",
"951 1489 OFFCURVE",
"582 1489 CURVE SMOOTH",
"219 1489 OFFCURVE",
"-4 1238 OFFCURVE",
"-4 834 CURVE SMOOTH",
"-4 599 OFFCURVE",
"84 349 OFFCURVE",
"260 86 CURVE",
"406 174 LINE",
"258 379 OFFCURVE",
"179 553 OFFCURVE",
"162 745 CURVE",
"487 745 LINE",
"487 909 LINE",
"160 909 LINE",
"184 1185 OFFCURVE",
"341 1319 OFFCURVE",
"582 1319 CURVE SMOOTH",
"847 1319 OFFCURVE",
"1018 1126 OFFCURVE",
"1018 795 CURVE SMOOTH",
"1018 707 OFFCURVE",
"1009 630 OFFCURVE",
"990 564 CURVE SMOOTH",
"953 432 OFFCURVE",
"874 299 OFFCURVE",
"717 102 CURVE SMOOTH",
"545 -109 OFFCURVE",
"492 -218 OFFCURVE",
"492 -383 CURVE SMOOTH",
"492 -439 OFFCURVE",
"505 -492 OFFCURVE",
"530 -541 CURVE"
);
}
);
width = 1270;
}
);
note = u183B.fin;
},
{
glyphname = u1854.fin;
lastChange = "2016-11-10 17:37:31 +0000";
layers = (
{
layerId = "ECD52525-6592-4E14-BB2F-A163A2F4C2CC";
paths = (
{
closed = 1;
nodes = (
"89 91 OFFCURVE",
"183 158 OFFCURVE",
"281 211 CURVE SMOOTH",
"502 330 LINE SMOOTH",
"654 409 OFFCURVE",
"719 536 OFFCURVE",
"719 745 CURVE",
"1147 745 LINE SMOOTH",
"1291 745 OFFCURVE",
"1348 683 OFFCURVE",
"1348 571 CURVE SMOOTH",
"1348 484 OFFCURVE",
"1333 404 OFFCURVE",
"1303 332 CURVE",
"1454 332 LINE",
"1488 404 OFFCURVE",
"1505 484 OFFCURVE",
"1505 571 CURVE SMOOTH",
"1505 796 OFFCURVE",
"1386 909 OFFCURVE",
"1147 909 CURVE SMOOTH",
"0 909 LINE",
"0 745 LINE",
"561 745 LINE",
"561 609 OFFCURVE",
"530 523 OFFCURVE",
"401 455 CURVE SMOOTH",
"233 365 LINE SMOOTH",
"123 304 OFFCURVE",
"45 250 OFFCURVE",
"0 205 CURVE",
"0 10 LINE"
);
}
);
width = 1597;
}
);
note = u1854.fin;
},
{
glyphname = u185C;
lastChange = "2016-11-10 17:40:46 +0000";
layers = (
{
layerId = "ECD52525-6592-4E14-BB2F-A163A2F4C2CC";
paths = (
{
closed = 1;
nodes = (
"437 -267 OFFCURVE",
"527 -242 OFFCURVE",
"735 -242 CURVE SMOOTH",
"983 -242 LINE",
"983 -106 LINE",
"938 26 OFFCURVE",
"915 164 OFFCURVE",
"915 309 CURVE SMOOTH",
"915 454 OFFCURVE",
"936 600 OFFCURVE",
"977 745 CURVE",
"1397 745 LINE",
"1397 909 LINE",
"129 909 LINE",
"92 745 LINE",
"825 745 LINE",
"788 619 OFFCURVE",
"769 487 OFFCURVE",
"766 348 CURVE",
"690 348 LINE SMOOTH",
"411 348 OFFCURVE",
"308 326 OFFCURVE",
"209 262 CURVE",
"209 88 LINE",
"332 167 OFFCURVE",
"463 184 OFFCURVE",
"690 184 CURVE SMOOTH",
"770 184 LINE",
"775 100 OFFCURVE",
"788 13 OFFCURVE",
"809 -78 CURVE",
"735 -78 LINE SMOOTH",
"510 -78 OFFCURVE",
"424 -100 OFFCURVE",
"344 -164 CURVE",
"344 -336 LINE"
);
}
);
width = 1489;
}
);
note = u185C;
unicode = 185C;
},
{
glyphname = u185C.med;
lastChange = "2016-11-10 17:40:46 +0000";
layers = (
{
layerId = "ECD52525-6592-4E14-BB2F-A163A2F4C2CC";
paths = (
{
closed = 1;
nodes = (
"227 -268 OFFCURVE",
"315 -242 OFFCURVE",
"526 -242 CURVE SMOOTH",
"774 -242 LINE",
"774 -106 LINE",
"729 25 OFFCURVE",
"707 163 OFFCURVE",
"707 309 CURVE SMOOTH",
"707 457 OFFCURVE",
"727 602 OFFCURVE",
"768 745 CURVE",
"1188 745 LINE",
"1188 909 LINE",
"0 909 LINE",
"0 745 LINE",
"616 745 LINE",
"579 619 OFFCURVE",
"560 487 OFFCURVE",
"557 348 CURVE",
"481 348 LINE SMOOTH",
"202 348 OFFCURVE",
"99 326 OFFCURVE",
"0 262 CURVE",
"0 88 LINE",
"123 167 OFFCURVE",
"254 184 OFFCURVE",
"481 184 CURVE SMOOTH",
"561 184 LINE",
"566 100 OFFCURVE",
"579 13 OFFCURVE",
"600 -78 CURVE",
"526 -78 LINE SMOOTH",
"306 -78 OFFCURVE",
"215 -100 OFFCURVE",
"135 -164 CURVE",
"135 -336 LINE"
);
}
);
width = 1126;
}
);
note = u185C.med;
},
{
glyphname = u185C.fin;
lastChange = "2016-11-10 17:40:46 +0000";
layers = (
{
layerId = "ECD52525-6592-4E14-BB2F-A163A2F4C2CC";
paths = (
{
closed = 1;
nodes = (
"227 -268 OFFCURVE",
"315 -242 OFFCURVE",
"526 -242 CURVE SMOOTH",
"774 -242 LINE",
"774 -106 LINE",
"729 25 OFFCURVE",
"707 163 OFFCURVE",
"707 309 CURVE SMOOTH",
"707 457 OFFCURVE",
"727 602 OFFCURVE",
"768 745 CURVE",
"1188 745 LINE SMOOTH",
"1332 745 OFFCURVE",
"1389 683 OFFCURVE",
"1389 571 CURVE SMOOTH",
"1389 482 OFFCURVE",
"1374 403 OFFCURVE",
"1343 332 CURVE",
"1495 332 LINE",
"1529 404 OFFCURVE",
"1546 484 OFFCURVE",
"1546 571 CURVE SMOOTH",
"1546 796 OFFCURVE",
"1427 909 OFFCURVE",
"1188 909 CURVE SMOOTH",
"0 909 LINE",
"0 745 LINE",
"616 745 LINE",
"579 619 OFFCURVE",
"560 487 OFFCURVE",
"557 348 CURVE",
"481 348 LINE SMOOTH",
"202 348 OFFCURVE",
"99 326 OFFCURVE",
"0 262 CURVE",
"0 88 LINE",
"123 167 OFFCURVE",
"254 184 OFFCURVE",
"481 184 CURVE SMOOTH",
"561 184 LINE",
"566 100 OFFCURVE",
"579 13 OFFCURVE",
"600 -78 CURVE",
"526 -78 LINE SMOOTH",
"306 -78 OFFCURVE",
"215 -100 OFFCURVE",
"135 -164 CURVE",
"135 -336 LINE"
);
}
);
width = 1638;
}
);
note = u185C.fin;
},
{
glyphname = u1861;
lastChange = "2016-11-10 17:40:46 +0000";
layers = (
{
layerId = "ECD52525-6592-4E14-BB2F-A163A2F4C2CC";
paths = (
{
closed = 1;
nodes = (
"1634 -63 LINE",
"1485 204 OFFCURVE",
"1371 473 OFFCURVE",
"1292 745 CURVE",
"1726 745 LINE",
"1726 909 LINE",
"184 909 LINE",
"121 802 OFFCURVE",
"92 688 OFFCURVE",
"92 532 CURVE SMOOTH",
"92 232 OFFCURVE",
"247 82 OFFCURVE",
"496 82 CURVE SMOOTH",
"753 82 OFFCURVE",
"901 249 OFFCURVE",
"901 510 CURVE SMOOTH",
"901 603 OFFCURVE",
"887 681 OFFCURVE",
"860 745 CURVE",
"1130 745 LINE",
"1208 451 OFFCURVE",
"1326 157 OFFCURVE",
"1485 -137 CURVE"
);
},
{
closed = 1;
nodes = (
"335 252 OFFCURVE",
"254 347 OFFCURVE",
"254 537 CURVE SMOOTH",
"254 620 OFFCURVE",
"268 689 OFFCURVE",
"295 745 CURVE",
"698 745 LINE",
"725 682 OFFCURVE",
"739 605 OFFCURVE",
"739 514 CURVE SMOOTH",
"739 339 OFFCURVE",
"645 252 OFFCURVE",
"496 252 CURVE SMOOTH"
);
}
);
width = 1819;
}
);
note = u1861;
unicode = 1861;
},
{
glyphname = u1827;
lastChange = "2016-11-10 17:40:46 +0000";
layers = (
{
layerId = "ECD52525-6592-4E14-BB2F-A163A2F4C2CC";
paths = (
{
closed = 1;
nodes = (
"1717 -244 OFFCURVE",
"1781 -218 OFFCURVE",
"1810 -174 CURVE",
"1810 12 LINE",
"1771 -45 OFFCURVE",
"1714 -74 OFFCURVE",
"1640 -74 CURVE SMOOTH",
"1587 -74 OFFCURVE",
"1537 -46 OFFCURVE",
"1492 11 CURVE SMOOTH",
"1400 123 OFFCURVE",
"1252 461 OFFCURVE",
"1169 745 CURVE",
"2007 745 LINE SMOOTH",
"2152 745 OFFCURVE",
"2208 683 OFFCURVE",
"2208 571 CURVE SMOOTH",
"2208 484 OFFCURVE",
"2193 404 OFFCURVE",
"2163 332 CURVE",
"2314 332 LINE",
"2348 404 OFFCURVE",
"2365 484 OFFCURVE",
"2365 571 CURVE SMOOTH",
"2365 796 OFFCURVE",
"2246 909 OFFCURVE",
"2007 909 CURVE SMOOTH",
"909 909 LINE SMOOTH",
"738 909 OFFCURVE",
"629 852 OFFCURVE",
"584 739 CURVE",
"575 739 LINE",
"569 911 LINE SMOOTH",
"560 1215 OFFCURVE",
"486 1337 OFFCURVE",
"285 1337 CURVE SMOOTH",
"204 1337 OFFCURVE",
"116 1317 OFFCURVE",
"20 1276 CURVE",
"20 1126 LINE",
"106 1161 OFFCURVE",
"180 1178 OFFCURVE",
"242 1178 CURVE SMOOTH",
"354 1178 OFFCURVE",
"395 1100 OFFCURVE",
"410 895 CURVE SMOOTH",
"463 152 LINE",
"598 152 LINE",
"618 449 LINE SMOOTH",
"624 532 OFFCURVE",
"636 593 OFFCURVE",
"655 634 CURVE SMOOTH",
"692 714 OFFCURVE",
"756 745 OFFCURVE",
"911 745 CURVE SMOOTH",
"1008 745 LINE",
"1101 402 OFFCURVE",
"1236 85 OFFCURVE",
"1323 -48 CURVE SMOOTH",
"1410 -181 OFFCURVE",
"1503 -244 OFFCURVE",
"1640 -244 CURVE SMOOTH"
);
}
);
width = 2458;
}
);
note = u1827;
unicode = 1827;
},
{
glyphname = u1827.ini;
lastChange = "2016-11-10 17:40:46 +0000";
layers = (
{
layerId = "ECD52525-6592-4E14-BB2F-A163A2F4C2CC";
paths = (
{
closed = 1;
nodes = (
"1717 -244 OFFCURVE",
"1781 -218 OFFCURVE",
"1810 -174 CURVE",
"1810 12 LINE",
"1771 -45 OFFCURVE",
"1714 -74 OFFCURVE",
"1640 -74 CURVE SMOOTH",
"1587 -74 OFFCURVE",
"1537 -46 OFFCURVE",
"1492 11 CURVE SMOOTH",
"1400 123 OFFCURVE",
"1252 461 OFFCURVE",
"1169 745 CURVE",
"2007 745 LINE",
"2007 909 LINE",
"909 909 LINE SMOOTH",
"738 909 OFFCURVE",
"629 852 OFFCURVE",
"584 739 CURVE",
"575 739 LINE",
"569 911 LINE SMOOTH",
"560 1215 OFFCURVE",
"486 1337 OFFCURVE",
"285 1337 CURVE SMOOTH",
"204 1337 OFFCURVE",
"116 1317 OFFCURVE",
"20 1276 CURVE",
"20 1126 LINE",
"106 1161 OFFCURVE",
"180 1178 OFFCURVE",
"242 1178 CURVE SMOOTH",
"354 1178 OFFCURVE",
"395 1100 OFFCURVE",
"410 895 CURVE SMOOTH",
"463 152 LINE",
"598 152 LINE",
"618 449 LINE SMOOTH",
"624 532 OFFCURVE",
"636 593 OFFCURVE",
"655 634 CURVE SMOOTH",
"692 714 OFFCURVE",
"756 745 OFFCURVE",
"911 745 CURVE SMOOTH",
"1008 745 LINE",
"1101 402 OFFCURVE",
"1236 85 OFFCURVE",
"1323 -48 CURVE SMOOTH",
"1410 -181 OFFCURVE",
"1503 -244 OFFCURVE",
"1640 -244 CURVE SMOOTH"
);
}
);
width = 1946;
}
);
note = u1827.ini;
},
{
glyphname = u1827.fin;
lastChange = "2016-11-10 17:40:46 +0000";
layers = (
{
layerId = "ECD52525-6592-4E14-BB2F-A163A2F4C2CC";
paths = (
{
closed = 1;
nodes = (
"709 -244 OFFCURVE",
"772 -218 OFFCURVE",
"803 -174 CURVE",
"803 12 LINE",
"763 -45 OFFCURVE",
"706 -74 OFFCURVE",
"633 -74 CURVE SMOOTH",
"580 -74 OFFCURVE",
"531 -46 OFFCURVE",
"485 9 CURVE SMOOTH",
"393 120 OFFCURVE",
"243 460 OFFCURVE",
"162 745 CURVE",
"999 745 LINE SMOOTH",
"1144 745 OFFCURVE",
"1200 683 OFFCURVE",
"1200 571 CURVE SMOOTH",
"1200 481 OFFCURVE",
"1185 401 OFFCURVE",
"1155 332 CURVE",
"1307 332 LINE",
"1341 407 OFFCURVE",
"1358 487 OFFCURVE",
"1358 571 CURVE SMOOTH",
"1358 796 OFFCURVE",
"1238 909 OFFCURVE",
"999 909 CURVE SMOOTH",
"0 909 LINE",
"0 745 LINE",
"80 449 OFFCURVE",
"195 163 OFFCURVE",
"288 -1 CURVE SMOOTH",
"380 -165 OFFCURVE",
"481 -244 OFFCURVE",
"633 -244 CURVE SMOOTH"
);
}
);
width = 1450;
}
);
note = u1827.fin;
},
{
glyphname = u1828.medV3;
lastChange = "2016-11-10 17:40:46 +0000";
layers = (
{
layerId = "ECD52525-6592-4E14-BB2F-A163A2F4C2CC";
paths = (
{
closed = 1;
nodes = (
"518 197 LINE",
"557 745 LINE",
"987 745 LINE",
"987 909 LINE",
"0 909 LINE",
"0 745 LINE",
"344 745 LINE",
"383 197 LINE"
);
},
{
closed = 1;
nodes = (
"503 -263 OFFCURVE",
"598 -184 OFFCURVE",
"721 -96 CURVE",
"596 45 LINE",
"515 -35 OFFCURVE",
"432 -135 OFFCURVE",
"348 -254 CURVE",
"436 -334 LINE"
);
}
);
width = 926;
}
);
note = u1828.medV3;
},
{
glyphname = u182A.finV1;
lastChange = "2016-11-10 17:40:46 +0000";
layers = (
{
layerId = "ECD52525-6592-4E14-BB2F-A163A2F4C2CC";
paths = (
{
closed = 1;
nodes = (
"1221 -541 LINE",
"1192 -491 OFFCURVE",
"1178 -438 OFFCURVE",
"1178 -383 CURVE SMOOTH",
"1178 -340 OFFCURVE",
"1182 -305 OFFCURVE",
"1190 -278 CURVE SMOOTH",
"1205 -224 OFFCURVE",
"1242 -158 OFFCURVE",
"1315 -63 CURVE SMOOTH",
"1510 186 OFFCURVE",
"1587 341 OFFCURVE",
"1587 502 CURVE SMOOTH",
"1587 763 OFFCURVE",
"1429 909 OFFCURVE",
"1114 909 CURVE SMOOTH",
"0 909 LINE",
"0 745 LINE",
"41 745 LINE",
"14 681 OFFCURVE",
"0 603 OFFCURVE",
"0 510 CURVE SMOOTH",
"0 226 OFFCURVE",
"155 82 OFFCURVE",
"403 82 CURVE SMOOTH",
"662 82 OFFCURVE",
"809 249 OFFCURVE",
"809 510 CURVE SMOOTH",
"809 600 OFFCURVE",
"794 678 OFFCURVE",
"764 745 CURVE",
"1112 745 LINE SMOOTH",
"1331 745 OFFCURVE",
"1427 666 OFFCURVE",
"1427 502 CURVE SMOOTH",
"1427 457 OFFCURVE",
"1421 417 OFFCURVE",
"1409 380 CURVE SMOOTH",
"1384 306 OFFCURVE",
"1323 205 OFFCURVE",
"1208 57 CURVE SMOOTH",
"1068 -128 OFFCURVE",
"1014 -248 OFFCURVE",
"1014 -383 CURVE SMOOTH",
"1014 -445 OFFCURVE",
"1027 -498 OFFCURVE",
"1053 -541 CURVE"
);
},
{
closed = 1;
nodes = (
"242 252 OFFCURVE",
"162 339 OFFCURVE",
"162 514 CURVE SMOOTH",
"162 605 OFFCURVE",
"176 682 OFFCURVE",
"203 745 CURVE",
"606 745 LINE",
"633 682 OFFCURVE",
"647 605 OFFCURVE",
"647 514 CURVE SMOOTH",
"647 339 OFFCURVE",
"554 252 OFFCURVE",
"403 252 CURVE SMOOTH"
);
}
);
width = 1679;
}
);
note = u182A.finV1;
},
{
glyphname = u182A_1820;
lastChange = "2016-11-10 17:40:46 +0000";
layers = (
{
layerId = "ECD52525-6592-4E14-BB2F-A163A2F4C2CC";
paths = (
{
closed = 1;
nodes = (
"1937 -541 LINE",
"1908 -488 OFFCURVE",
"1894 -436 OFFCURVE",
"1894 -383 CURVE SMOOTH",
"1894 -267 OFFCURVE",
"1924 -203 OFFCURVE",
"2032 -63 CURVE SMOOTH",
"2244 216 OFFCURVE",
"2304 354 OFFCURVE",
"2304 502 CURVE SMOOTH",
"2304 763 OFFCURVE",
"2144 909 OFFCURVE",
"1831 909 CURVE SMOOTH",
"1335 909 LINE",
"1275 1354 OFFCURVE",
"1061 1602 OFFCURVE",
"721 1602 CURVE SMOOTH",
"330 1602 OFFCURVE",
"92 1316 OFFCURVE",
"92 836 CURVE SMOOTH",
"92 329 OFFCURVE",
"244 82 OFFCURVE",
"553 82 CURVE SMOOTH",
"624 82 OFFCURVE",
"688 102 OFFCURVE",
"745 142 CURVE SMOOTH",
"857 221 OFFCURVE",
"924 376 OFFCURVE",
"924 563 CURVE SMOOTH",
"924 647 OFFCURVE",
"902 826 OFFCURVE",
"877 909 CURVE",
"254 909 LINE",
"259 1229 OFFCURVE",
"433 1432 OFFCURVE",
"721 1432 CURVE SMOOTH",
"1010 1432 OFFCURVE",
"1153 1201 OFFCURVE",
"1186 745 CURVE SMOOTH",
"1225 197 LINE",
"1360 197 LINE",
"1399 745 LINE",
"1829 745 LINE SMOOTH",
"2048 745 OFFCURVE",
"2144 666 OFFCURVE",
"2144 502 CURVE SMOOTH",
"2144 457 OFFCURVE",
"2138 417 OFFCURVE",
"2126 380 CURVE SMOOTH",
"2101 306 OFFCURVE",
"2040 205 OFFCURVE",
"1925 57 CURVE SMOOTH",
"1785 -128 OFFCURVE",
"1731 -248 OFFCURVE",
"1731 -383 CURVE SMOOTH",
"1731 -444 OFFCURVE",
"1744 -496 OFFCURVE",
"1769 -541 CURVE"
);
},
{
closed = 1;
nodes = (
"355 252 OFFCURVE",
"259 416 OFFCURVE",
"254 745 CURVE",
"741 745 LINE",
"755 707 OFFCURVE",
"762 646 OFFCURVE",
"762 563 CURVE SMOOTH",
"762 356 OFFCURVE",
"669 252 OFFCURVE",
"541 252 CURVE SMOOTH"
);
}
);
width = 2396;
}
);
note = u182A_1820;
},
{
glyphname = u182A_1827;
lastChange = "2016-11-10 17:40:46 +0000";
layers = (
{
layerId = "ECD52525-6592-4E14-BB2F-A163A2F4C2CC";
paths = (
{
closed = 1;
nodes = (
"1834 -244 OFFCURVE",
"1896 -218 OFFCURVE",
"1925 -174 CURVE",
"1925 12 LINE",
"1887 -45 OFFCURVE",
"1831 -74 OFFCURVE",
"1757 -74 CURVE SMOOTH",
"1657 -74 OFFCURVE",
"1574 26 OFFCURVE",
"1486 217 CURVE SMOOTH",
"1397 408 OFFCURVE",
"1342 588 OFFCURVE",
"1313 745 CURVE",
"2122 745 LINE SMOOTH",
"2266 745 OFFCURVE",
"2322 683 OFFCURVE",
"2322 571 CURVE SMOOTH",
"2322 481 OFFCURVE",
"2307 401 OFFCURVE",
"2277 332 CURVE",
"2429 332 LINE",
"2463 404 OFFCURVE",
"2480 484 OFFCURVE",
"2480 571 CURVE SMOOTH",
"2480 796 OFFCURVE",
"2361 909 OFFCURVE",
"2122 909 CURVE SMOOTH",
"1282 909 LINE",
"1201 1370 OFFCURVE",
"1023 1602 OFFCURVE",
"676 1602 CURVE SMOOTH",
"313 1602 OFFCURVE",
"92 1315 OFFCURVE",
"92 836 CURVE SMOOTH",
"92 329 OFFCURVE",
"244 82 OFFCURVE",
"553 82 CURVE SMOOTH",
"624 82 OFFCURVE",
"688 102 OFFCURVE",
"745 142 CURVE SMOOTH",
"857 221 OFFCURVE",
"924 376 OFFCURVE",
"924 563 CURVE SMOOTH",
"924 647 OFFCURVE",
"902 826 OFFCURVE",
"877 909 CURVE",
"254 909 LINE",
"259 1233 OFFCURVE",
"419 1432 OFFCURVE",
"676 1432 CURVE SMOOTH",
"929 1432 OFFCURVE",
"1061 1264 OFFCURVE",
"1130 856 CURVE SMOOTH",
"1179 571 OFFCURVE",
"1257 314 OFFCURVE",
"1366 84 CURVE SMOOTH",
"1471 -141 OFFCURVE",
"1584 -244 OFFCURVE",
"1757 -244 CURVE SMOOTH"
);
},
{
closed = 1;
nodes = (
"355 252 OFFCURVE",
"259 416 OFFCURVE",
"254 745 CURVE",
"741 745 LINE",
"755 707 OFFCURVE",
"762 646 OFFCURVE",
"762 563 CURVE SMOOTH",
"762 356 OFFCURVE",
"669 252 OFFCURVE",
"541 252 CURVE SMOOTH"
);
}
);
width = 2572;
}
);
note = u182A_1827;
},
{
glyphname = u182B;
lastChange = "2016-11-10 17:40:46 +0000";
layers = (
{
layerId = "ECD52525-6592-4E14-BB2F-A163A2F4C2CC";
paths = (
{
closed = 1;
nodes = (
"224 139 OFFCURVE",
"332 150 OFFCURVE",
"473 150 CURVE SMOOTH",
"697 150 OFFCURVE",
"856 311 OFFCURVE",
"856 563 CURVE SMOOTH",
"856 679 OFFCURVE",
"842 794 OFFCURVE",
"813 909 CURVE",
"254 909 LINE",
"259 1233 OFFCURVE",
"419 1432 OFFCURVE",
"676 1432 CURVE SMOOTH",
"935 1432 OFFCURVE",
"1099 1202 OFFCURVE",
"1126 838 CURVE",
"1290 858 LINE",
"1281 1002 OFFCURVE",
"1250 1131 OFFCURVE",
"1196 1245 CURVE SMOOTH",
"1087 1472 OFFCURVE",
"900 1602 OFFCURVE",
"676 1602 CURVE SMOOTH",
"313 1602 OFFCURVE",
"92 1315 OFFCURVE",
"92 836 CURVE SMOOTH",
"92 745 LINE",
"674 745 LINE",
"687 705 OFFCURVE",
"694 644 OFFCURVE",
"694 563 CURVE SMOOTH",
"694 399 OFFCURVE",
"601 313 OFFCURVE",
"473 313 CURVE SMOOTH",
"290 313 OFFCURVE",
"202 299 OFFCURVE",
"127 250 CURVE",
"127 86 LINE"
);
}
);
width = 1382;
}
);
note = u182B;
unicode = 182B;
},
{
glyphname = u182B.ini;
lastChange = "2016-11-10 17:40:46 +0000";
layers = (
{
layerId = "ECD52525-6592-4E14-BB2F-A163A2F4C2CC";
paths = (
{
closed = 1;
nodes = (
"224 139 OFFCURVE",
"332 150 OFFCURVE",
"473 150 CURVE SMOOTH",
"697 150 OFFCURVE",
"856 311 OFFCURVE",
"856 563 CURVE SMOOTH",
"856 679 OFFCURVE",
"842 794 OFFCURVE",
"813 909 CURVE",
"254 909 LINE",
"259 1233 OFFCURVE",
"419 1432 OFFCURVE",
"676 1432 CURVE SMOOTH",
"765 1432 OFFCURVE",
"844 1405 OFFCURVE",
"912 1352 CURVE SMOOTH",
"1047 1244 OFFCURVE",
"1123 1037 OFFCURVE",
"1130 745 CURVE",
"1282 745 LINE",
"1282 916 OFFCURVE",
"1257 1067 OFFCURVE",
"1206 1198 CURVE SMOOTH",
"1104 1459 OFFCURVE",
"911 1602 OFFCURVE",
"676 1602 CURVE SMOOTH",
"313 1602 OFFCURVE",
"92 1315 OFFCURVE",
"92 836 CURVE SMOOTH",
"92 745 LINE",
"674 745 LINE",
"687 705 OFFCURVE",
"694 644 OFFCURVE",
"694 563 CURVE SMOOTH",
"694 399 OFFCURVE",
"601 313 OFFCURVE",
"473 313 CURVE SMOOTH",
"290 313 OFFCURVE",
"202 299 OFFCURVE",
"127 250 CURVE",
"127 86 LINE"
);
}
);
width = 1130;
}
);
note = u182B.ini;
},
{
glyphname = u182B_1820;
lastChange = "2016-11-10 17:40:46 +0000";
layers = (
{
layerId = "ECD52525-6592-4E14-BB2F-A163A2F4C2CC";
paths = (
{
closed = 1;
nodes = (
"1870 -541 LINE",
"1841 -491 OFFCURVE",
"1827 -438 OFFCURVE",
"1827 -383 CURVE SMOOTH",
"1827 -340 OFFCURVE",
"1831 -305 OFFCURVE",
"1839 -278 CURVE SMOOTH",
"1854 -224 OFFCURVE",
"1891 -158 OFFCURVE",
"1964 -63 CURVE SMOOTH",
"2159 186 OFFCURVE",
"2236 341 OFFCURVE",
"2236 502 CURVE SMOOTH",
"2236 763 OFFCURVE",
"2078 909 OFFCURVE",
"1763 909 CURVE SMOOTH",
"1266 909 LINE",
"1201 1362 OFFCURVE",
"999 1602 OFFCURVE",
"676 1602 CURVE SMOOTH",
"313 1602 OFFCURVE",
"92 1315 OFFCURVE",
"92 836 CURVE SMOOTH",
"92 745 LINE",
"674 745 LINE",
"687 705 OFFCURVE",
"694 644 OFFCURVE",
"694 563 CURVE SMOOTH",
"694 399 OFFCURVE",
"601 313 OFFCURVE",
"473 313 CURVE SMOOTH",
"290 313 OFFCURVE",
"202 299 OFFCURVE",
"127 250 CURVE",
"127 86 LINE",
"224 139 OFFCURVE",
"332 150 OFFCURVE",
"473 150 CURVE SMOOTH",
"697 150 OFFCURVE",
"856 311 OFFCURVE",
"856 563 CURVE SMOOTH",
"856 679 OFFCURVE",
"842 794 OFFCURVE",
"813 909 CURVE",
"254 909 LINE",
"259 1233 OFFCURVE",
"419 1432 OFFCURVE",
"676 1432 CURVE SMOOTH",
"944 1432 OFFCURVE",
"1086 1201 OFFCURVE",
"1118 745 CURVE SMOOTH",
"1157 197 LINE",
"1292 197 LINE",
"1331 745 LINE",
"1761 745 LINE SMOOTH",
"1980 745 OFFCURVE",
"2077 666 OFFCURVE",
"2077 502 CURVE SMOOTH",
"2077 374 OFFCURVE",
"2019 270 OFFCURVE",
"1858 57 CURVE SMOOTH",
"1726 -116 OFFCURVE",
"1663 -243 OFFCURVE",
"1663 -383 CURVE SMOOTH",
"1663 -445 OFFCURVE",
"1676 -498 OFFCURVE",
"1702 -541 CURVE"
);
}
);
width = 2329;
}
);
note = u182B_1820;
},
{
glyphname = u182B_1822;
lastChange = "2016-11-10 17:40:46 +0000";
layers = (
{
layerId = "ECD52525-6592-4E14-BB2F-A163A2F4C2CC";
paths = (
{
closed = 1;
nodes = (
"1597 -63 LINE",
"1420 260 OFFCURVE",
"1321 498 OFFCURVE",
"1270 745 CURVE",
"1894 745 LINE SMOOTH",
"2039 745 OFFCURVE",
"2095 683 OFFCURVE",
"2095 571 CURVE SMOOTH",
"2095 481 OFFCURVE",
"2080 401 OFFCURVE",
"2050 332 CURVE",
"2202 332 LINE",
"2236 407 OFFCURVE",
"2253 487 OFFCURVE",
"2253 571 CURVE SMOOTH",
"2253 796 OFFCURVE",
"2133 909 OFFCURVE",
"1894 909 CURVE SMOOTH",
"1239 909 LINE",
"1160 1368 OFFCURVE",
"992 1602 OFFCURVE",
"653 1602 CURVE SMOOTH",
"308 1602 OFFCURVE",
"92 1319 OFFCURVE",
"92 836 CURVE SMOOTH",
"92 745 LINE",
"674 745 LINE",
"687 705 OFFCURVE",
"694 644 OFFCURVE",
"694 563 CURVE SMOOTH",
"694 399 OFFCURVE",
"601 313 OFFCURVE",
"473 313 CURVE SMOOTH",
"290 313 OFFCURVE",
"202 299 OFFCURVE",
"127 250 CURVE",
"127 86 LINE",
"224 139 OFFCURVE",
"332 150 OFFCURVE",
"473 150 CURVE SMOOTH",
"697 150 OFFCURVE",
"856 311 OFFCURVE",
"856 563 CURVE SMOOTH",
"856 679 OFFCURVE",
"842 794 OFFCURVE",
"813 909 CURVE",
"254 909 LINE",
"259 1230 OFFCURVE",
"410 1432 OFFCURVE",
"653 1432 CURVE SMOOTH",
"890 1432 OFFCURVE",
"1022 1233 OFFCURVE",
"1085 856 CURVE SMOOTH",
"1144 513 OFFCURVE",
"1221 295 OFFCURVE",
"1448 -137 CURVE"
);
}
);
width = 2345;
}
);
note = u182B_1822;
},
{
glyphname = u182B_1825.V1;
lastChange = "2016-11-10 17:37:31 +0000";
layers = (
{
layerId = "ECD52525-6592-4E14-BB2F-A163A2F4C2CC";
paths = (
{
closed = 1;
nodes = (
"1326 82 OFFCURVE",
"1466 294 OFFCURVE",
"1473 745 CURVE",
"1905 745 LINE SMOOTH",
"2049 745 OFFCURVE",
"2105 683 OFFCURVE",
"2105 571 CURVE SMOOTH",
"2105 481 OFFCURVE",
"2090 401 OFFCURVE",
"2060 332 CURVE",
"2212 332 LINE",
"2246 407 OFFCURVE",
"2263 487 OFFCURVE",
"2263 571 CURVE SMOOTH",
"2263 796 OFFCURVE",
"2144 909 OFFCURVE",
"1905 909 CURVE SMOOTH",
"1464 909 LINE",
"1448 1051 OFFCURVE",
"1410 1174 OFFCURVE",
"1350 1279 CURVE SMOOTH",
"1229 1488 OFFCURVE",
"1025 1602 OFFCURVE",
"762 1602 CURVE SMOOTH",
"629 1602 OFFCURVE",
"512 1571 OFFCURVE",
"410 1510 CURVE SMOOTH",
"206 1386 OFFCURVE",
"92 1147 OFFCURVE",
"92 836 CURVE SMOOTH",
"92 745 LINE",
"668 745 LINE",
"668 563 LINE SMOOTH",
"668 399 OFFCURVE",
"581 313 OFFCURVE",
"461 313 CURVE SMOOTH",
"282 313 OFFCURVE",
"202 299 OFFCURVE",
"127 250 CURVE",
"127 86 LINE",
"223 139 OFFCURVE",
"325 150 OFFCURVE",
"461 150 CURVE SMOOTH",
"578 150 OFFCURVE",
"672 193 OFFCURVE",
"743 279 CURVE",
"795 148 OFFCURVE",
"892 82 OFFCURVE",
"1034 82 CURVE SMOOTH"
);
},
{
closed = 1;
nodes = (
"897 252 OFFCURVE",
"829 363 OFFCURVE",
"829 586 CURVE SMOOTH",
"829 745 LINE",
"1311 745 LINE",
"1309 623 OFFCURVE",
"1299 526 OFFCURVE",
"1280 455 CURVE SMOOTH",
"1242 312 OFFCURVE",
"1173 252 OFFCURVE",
"1034 252 CURVE SMOOTH"
);
},
{
closed = 1;
nodes = (
"255 1010 OFFCURVE",
"277 1100 OFFCURVE",
"320 1181 CURVE SMOOTH",
"405 1341 OFFCURVE",
"563 1432 OFFCURVE",
"762 1432 CURVE SMOOTH",
"1057 1432 OFFCURVE",
"1253 1237 OFFCURVE",
"1300 909 CURVE",
"254 909 LINE"
);
}
);
width = 2355;
}
);
note = u182B_1825.V1;
},
{
glyphname = u182B_1827;
lastChange = "2016-11-10 17:40:46 +0000";
layers = (
{
layerId = "ECD52525-6592-4E14-BB2F-A163A2F4C2CC";
paths = (
{
closed = 1;
nodes = (
"1788 -244 OFFCURVE",
"1851 -218 OFFCURVE",
"1880 -174 CURVE",
"1880 12 LINE",
"1842 -45 OFFCURVE",
"1786 -74 OFFCURVE",
"1712 -74 CURVE SMOOTH",
"1612 -74 OFFCURVE",
"1529 26 OFFCURVE",
"1441 217 CURVE SMOOTH",
"1352 408 OFFCURVE",
"1297 588 OFFCURVE",
"1268 745 CURVE",
"2077 745 LINE SMOOTH",
"2221 745 OFFCURVE",
"2277 683 OFFCURVE",
"2277 571 CURVE SMOOTH",
"2277 481 OFFCURVE",
"2262 401 OFFCURVE",
"2232 332 CURVE",
"2384 332 LINE",
"2418 407 OFFCURVE",
"2435 487 OFFCURVE",
"2435 571 CURVE SMOOTH",
"2435 796 OFFCURVE",
"2316 909 OFFCURVE",
"2077 909 CURVE SMOOTH",
"1237 909 LINE",
"1148 1408 OFFCURVE",
"965 1602 OFFCURVE",
"653 1602 CURVE SMOOTH",
"308 1602 OFFCURVE",
"92 1319 OFFCURVE",
"92 836 CURVE SMOOTH",
"92 745 LINE",
"674 745 LINE",
"687 705 OFFCURVE",
"694 644 OFFCURVE",
"694 563 CURVE SMOOTH",
"694 399 OFFCURVE",
"601 313 OFFCURVE",
"473 313 CURVE SMOOTH",
"290 313 OFFCURVE",
"202 299 OFFCURVE",
"127 250 CURVE",
"127 86 LINE",
"224 139 OFFCURVE",
"332 150 OFFCURVE",
"473 150 CURVE SMOOTH",
"697 150 OFFCURVE",
"856 311 OFFCURVE",
"856 563 CURVE SMOOTH",
"856 679 OFFCURVE",
"842 794 OFFCURVE",
"813 909 CURVE",
"254 909 LINE",
"259 1230 OFFCURVE",
"410 1432 OFFCURVE",
"653 1432 CURVE SMOOTH",
"889 1432 OFFCURVE",
"1014 1273 OFFCURVE",
"1085 856 CURVE SMOOTH",
"1134 571 OFFCURVE",
"1212 314 OFFCURVE",
"1321 84 CURVE SMOOTH",
"1426 -141 OFFCURVE",
"1539 -244 OFFCURVE",
"1712 -244 CURVE SMOOTH"
);
}
);
width = 2527;
}
);
note = u182B_1827;
},
{
glyphname = u182C_1821;
lastChange = "2016-11-10 17:40:46 +0000";
layers = (
{
layerId = "ECD52525-6592-4E14-BB2F-A163A2F4C2CC";
paths = (
{
closed = 1;
nodes = (
"1632 -541 LINE",
"1603 -488 OFFCURVE",
"1589 -436 OFFCURVE",
"1589 -383 CURVE SMOOTH",
"1589 -340 OFFCURVE",
"1593 -305 OFFCURVE",
"1601 -278 CURVE SMOOTH",
"1616 -224 OFFCURVE",
"1653 -158 OFFCURVE",
"1726 -63 CURVE SMOOTH",
"1934 205 OFFCURVE",
"1999 351 OFFCURVE",
"1999 502 CURVE SMOOTH",
"1999 763 OFFCURVE",
"1839 909 OFFCURVE",
"1526 909 CURVE SMOOTH",
"1030 909 LINE",
"981 1305 OFFCURVE",
"840 1489 OFFCURVE",
"561 1489 CURVE SMOOTH",
"468 1489 OFFCURVE",
"385 1463 OFFCURVE",
"314 1412 CURVE SMOOTH",
"170 1309 OFFCURVE",
"92 1110 OFFCURVE",
"92 854 CURVE SMOOTH",
"92 613 OFFCURVE",
"180 357 OFFCURVE",
"356 86 CURVE",
"502 174 LINE",
"329 427 OFFCURVE",
"254 615 OFFCURVE",
"254 854 CURVE SMOOTH",
"254 1169 OFFCURVE",
"373 1319 OFFCURVE",
"561 1319 CURVE SMOOTH",
"702 1319 OFFCURVE",
"780 1251 OFFCURVE",
"827 1095 CURVE SMOOTH",
"850 1016 OFFCURVE",
"868 900 OFFCURVE",
"881 745 CURVE SMOOTH",
"920 197 LINE",
"1055 197 LINE",
"1094 745 LINE",
"1524 745 LINE SMOOTH",
"1743 745 OFFCURVE",
"1839 666 OFFCURVE",
"1839 502 CURVE SMOOTH",
"1839 457 OFFCURVE",
"1833 417 OFFCURVE",
"1821 380 CURVE SMOOTH",
"1796 306 OFFCURVE",
"1735 205 OFFCURVE",
"1620 57 CURVE SMOOTH",
"1477 -132 OFFCURVE",
"1425 -252 OFFCURVE",
"1425 -383 CURVE SMOOTH",
"1425 -443 OFFCURVE",
"1438 -496 OFFCURVE",
"1464 -541 CURVE"
);
}
);
width = 2091;
}
);
note = u182C_1821;
},
{
glyphname = u182C_1822;
lastChange = "2016-11-10 17:40:46 +0000";
layers = (
{
layerId = "ECD52525-6592-4E14-BB2F-A163A2F4C2CC";
paths = (
{
closed = 1;
nodes = (
"1423 -63 LINE",
"1252 206 OFFCURVE",
"1142 476 OFFCURVE",
"1092 745 CURVE",
"1720 745 LINE SMOOTH",
"1865 745 OFFCURVE",
"1921 683 OFFCURVE",
"1921 571 CURVE SMOOTH",
"1921 484 OFFCURVE",
"1906 404 OFFCURVE",
"1876 332 CURVE",
"2028 332 LINE",
"2062 407 OFFCURVE",
"2079 487 OFFCURVE",
"2079 571 CURVE SMOOTH",
"2079 796 OFFCURVE",
"1959 909 OFFCURVE",
"1720 909 CURVE SMOOTH",
"1071 909 LINE",
"1016 1354 OFFCURVE",
"875 1556 OFFCURVE",
"588 1556 CURVE SMOOTH",
"288 1556 OFFCURVE",
"92 1286 OFFCURVE",
"92 854 CURVE SMOOTH",
"92 613 OFFCURVE",
"180 357 OFFCURVE",
"356 86 CURVE",
"502 174 LINE",
"329 427 OFFCURVE",
"254 615 OFFCURVE",
"254 854 CURVE SMOOTH",
"254 1211 OFFCURVE",
"388 1386 OFFCURVE",
"588 1386 CURVE SMOOTH",
"656 1386 OFFCURVE",
"710 1369 OFFCURVE",
"751 1335 CURVE SMOOTH",
"832 1266 OFFCURVE",
"882 1129 OFFCURVE",
"915 856 CURVE SMOOTH",
"954 536 OFFCURVE",
"1077 184 OFFCURVE",
"1274 -137 CURVE"
);
}
);
width = 2171;
}
);
note = u182C_1822;
},
{
glyphname = u1832.medV1;
lastChange = "2016-11-10 17:37:31 +0000";
layers = (
{
layerId = "ECD52525-6592-4E14-BB2F-A163A2F4C2CC";
paths = (
{
closed = 1;
nodes = (
"870 197 LINE",
"909 745 LINE",
"1339 745 LINE",
"1339 909 LINE",
"848 909 LINE",
"841 1069 OFFCURVE",
"821 1199 OFFCURVE",
"788 1300 CURVE SMOOTH",
"720 1501 OFFCURVE",
"603 1591 OFFCURVE",
"403 1591 CURVE SMOOTH",
"162 1591 OFFCURVE",
"-2 1414 OFFCURVE",
"-2 1153 CURVE SMOOTH",
"-2 1069 OFFCURVE",
"15 988 OFFCURVE",
"49 909 CURVE",
"0 909 LINE",
"0 745 LINE",
"696 745 LINE",
"735 197 LINE"
);
},
{
closed = 1;
nodes = (
"176 965 OFFCURVE",
"160 1046 OFFCURVE",
"160 1153 CURVE SMOOTH",
"160 1322 OFFCURVE",
"256 1421 OFFCURVE",
"403 1421 CURVE SMOOTH",
"590 1421 OFFCURVE",
"671 1261 OFFCURVE",
"684 909 CURVE",
"207 909 LINE"
);
}
);
width = 1278;
}
);
note = u1832.medV1;
},
{
glyphname = u1832.fin;
lastChange = "2016-11-10 17:37:31 +0000";
layers = (
{
layerId = "ECD52525-6592-4E14-BB2F-A163A2F4C2CC";
paths = (
{
closed = 1;
nodes = (
"870 197 LINE",
"909 745 LINE",
"1339 745 LINE SMOOTH",
"1484 745 OFFCURVE",
"1540 683 OFFCURVE",
"1540 571 CURVE SMOOTH",
"1540 481 OFFCURVE",
"1525 401 OFFCURVE",
"1495 332 CURVE",
"1647 332 LINE",
"1681 407 OFFCURVE",
"1698 487 OFFCURVE",
"1698 571 CURVE SMOOTH",
"1698 796 OFFCURVE",
"1578 909 OFFCURVE",
"1339 909 CURVE SMOOTH",
"848 909 LINE",
"841 1069 OFFCURVE",
"821 1199 OFFCURVE",
"788 1300 CURVE SMOOTH",
"720 1501 OFFCURVE",
"603 1591 OFFCURVE",
"403 1591 CURVE SMOOTH",
"162 1591 OFFCURVE",
"-2 1414 OFFCURVE",
"-2 1153 CURVE SMOOTH",
"-2 1069 OFFCURVE",
"15 988 OFFCURVE",
"49 909 CURVE",
"0 909 LINE",
"0 745 LINE",
"696 745 LINE",
"735 197 LINE"
);
},
{
closed = 1;
nodes = (
"176 965 OFFCURVE",
"160 1046 OFFCURVE",
"160 1153 CURVE SMOOTH",
"160 1322 OFFCURVE",
"256 1421 OFFCURVE",
"403 1421 CURVE SMOOTH",
"590 1421 OFFCURVE",
"671 1261 OFFCURVE",
"684 909 CURVE",
"207 909 LINE"
);
}
);
width = 1790;
}
);
note = u1832.fin;
},
